<svg id="svg" version="1.1" xmlns="http://www.w3.org/2000/svg" xmlns:xlink="http://www.w3.org/1999/xlink" width="400" height="400" viewBox="0, 0, 400,400"><g id="svgg"><path id="path0" d="M282.267 54.666 C 282.121 54.812,281.522 54.983,280.937 55.046 C 280.352 55.108,279.756 55.347,279.614 55.578 C 279.472 55.808,278.883 56.035,278.306 56.083 C 277.730 56.131,277.345 56.312,277.452 56.485 C 277.639 56.786,276.644 56.984,275.800 56.814 C 275.580 56.770,275.524 56.857,275.675 57.009 C 275.953 57.286,275.038 58.230,272.866 59.910 C 272.219 60.410,271.451 61.400,271.159 62.110 C 270.868 62.819,270.335 63.720,269.975 64.110 C 269.616 64.501,269.076 65.581,268.777 66.510 C 268.478 67.440,268.136 68.290,268.017 68.400 C 267.536 68.843,266.800 70.428,266.800 71.018 C 266.800 71.364,266.637 71.546,266.437 71.423 C 266.238 71.300,266.176 71.587,266.300 72.062 C 266.452 72.642,266.378 72.834,266.075 72.646 C 265.795 72.473,265.537 72.791,265.396 73.484 C 265.272 74.098,264.839 75.230,264.436 76.000 C 263.885 77.050,263.808 77.567,264.128 78.067 C 264.551 78.729,264.396 79.131,261.154 85.738 C 260.739 86.584,260.400 87.529,260.400 87.838 C 260.400 88.147,260.220 88.400,260.000 88.400 C 259.780 88.400,259.600 88.760,259.600 89.200 C 259.600 89.640,259.420 90.000,259.200 90.000 C 258.980 90.000,258.800 90.272,258.800 90.605 C 258.800 90.938,258.626 91.523,258.412 91.905 C 258.069 92.520,257.456 93.842,254.569 100.200 C 253.445 102.675,251.300 105.650,249.466 107.280 C 247.226 109.270,243.864 110.922,241.000 111.439 C 237.279 112.112,36.904 112.047,36.231 111.374 C 35.884 111.027,35.600 110.936,35.600 111.171 C 35.600 111.470,30.190 111.600,17.796 111.600 L -0.008 111.600 0.096 226.415 C 0.174 312.233,0.316 341.301,0.659 341.515 C 0.911 341.672,1.181 342.250,1.259 342.800 C 1.336 343.350,1.627 344.040,1.904 344.332 C 2.181 344.625,2.317 345.011,2.206 345.190 C 2.095 345.370,2.292 345.627,2.644 345.761 C 3.052 345.918,3.188 346.254,3.020 346.691 C 2.876 347.068,2.868 347.265,3.004 347.130 C 3.318 346.816,5.200 348.543,5.200 349.146 C 5.200 349.396,5.380 349.600,5.600 349.600 C 5.820 349.600,6.003 350.005,6.006 350.500 C 6.011 351.211,6.090 351.277,6.385 350.811 C 6.704 350.307,6.795 350.321,7.021 350.911 C 7.167 351.290,7.536 351.600,7.843 351.600 C 8.149 351.600,8.400 351.870,8.400 352.200 C 8.400 352.530,8.573 352.800,8.784 352.800 C 8.996 352.800,9.526 353.183,9.962 353.651 C 10.399 354.120,11.021 354.401,11.347 354.276 C 11.703 354.139,12.190 354.430,12.565 355.002 C 12.993 355.656,13.465 355.903,14.065 355.787 C 14.547 355.695,15.134 355.770,15.370 355.954 C 15.607 356.139,16.295 356.408,16.900 356.552 C 17.505 356.697,18.000 356.992,18.000 357.208 C 18.000 357.423,18.191 357.600,18.424 357.600 C 18.657 357.600,18.743 357.432,18.616 357.226 C 18.472 356.993,18.878 356.993,19.686 357.225 C 21.326 357.695,382.124 357.725,381.834 357.255 C 381.667 356.984,384.984 355.976,386.600 355.806 C 386.820 355.783,386.940 355.502,386.867 355.182 C 386.793 354.862,386.867 354.733,387.030 354.897 C 387.193 355.060,387.603 354.970,387.940 354.697 C 388.447 354.286,388.500 354.304,388.247 354.800 C 388.079 355.130,388.224 355.051,388.570 354.624 C 388.917 354.196,389.200 353.999,389.200 354.185 C 389.200 354.370,389.536 354.135,389.947 353.661 C 390.358 353.188,390.816 352.800,390.964 352.800 C 391.113 352.800,391.710 352.360,392.290 351.821 C 392.871 351.283,393.521 350.951,393.735 351.083 C 393.949 351.215,394.002 351.127,393.854 350.888 C 393.706 350.648,394.038 349.998,394.592 349.444 C 395.147 348.890,395.600 348.238,395.600 347.995 C 395.600 347.752,395.780 347.664,396.000 347.800 C 396.220 347.936,396.400 347.677,396.400 347.224 C 396.400 346.771,396.547 346.400,396.726 346.400 C 397.215 346.400,398.799 343.250,398.806 342.262 C 398.811 341.624,398.902 341.541,399.157 341.944 C 399.893 343.106,399.929 335.533,399.831 202.400 C 399.728 63.910,399.729 64.273,399.133 64.641 C 398.950 64.755,398.800 64.567,398.800 64.224 C 398.800 63.881,398.609 63.600,398.376 63.600 C 398.143 63.600,398.052 63.439,398.174 63.242 C 398.296 63.045,398.126 62.781,397.798 62.654 C 397.469 62.528,397.200 62.059,397.200 61.613 C 397.200 61.166,397.034 60.800,396.831 60.800 C 396.628 60.800,395.756 60.080,394.893 59.200 C 394.031 58.320,393.117 57.600,392.862 57.600 C 392.608 57.600,392.400 57.454,392.400 57.275 C 392.400 57.096,391.770 56.702,391.000 56.400 C 390.230 56.098,389.600 55.704,389.600 55.525 C 389.600 55.346,388.970 55.200,388.200 55.200 C 387.430 55.200,386.800 55.020,386.800 54.800 C 386.800 54.349,282.718 54.215,282.267 54.666 " stroke="none" fill="#fcd464" fill-rule="evenodd"></path><path id="path1" d="M156.000 78.000 C 155.620 78.246,133.694 78.390,96.100 78.394 L 36.800 78.400 36.800 94.600 L 36.800 110.800 138.950 110.800 C 248.474 110.800,241.701 110.918,245.888 108.932 C 248.684 107.605,252.731 103.067,253.993 99.843 C 254.175 99.379,255.070 97.380,255.982 95.400 C 256.894 93.420,257.972 91.080,258.377 90.200 C 258.783 89.320,259.564 87.610,260.113 86.400 C 260.663 85.190,261.672 83.004,262.356 81.543 C 263.040 80.081,263.600 78.596,263.600 78.243 C 263.600 77.483,157.172 77.243,156.000 78.000 " stroke="none" fill="#ecf3f3" fill-rule="evenodd"></path><path id="path2" d="M20.229 43.154 C 20.108 43.348,19.243 43.633,18.305 43.785 C 16.329 44.107,12.327 47.053,10.907 49.230 C 10.416 49.984,9.831 50.817,9.607 51.083 C 9.383 51.349,9.200 51.844,9.200 52.183 C 9.200 52.522,9.020 52.800,8.800 52.800 C 8.580 52.800,8.400 53.340,8.400 54.000 C 8.400 54.660,8.220 55.200,8.000 55.200 C 7.780 55.200,7.600 55.740,7.600 56.400 C 7.600 57.060,7.420 57.600,7.200 57.600 C 6.980 57.600,6.800 58.129,6.800 58.776 C 6.800 59.423,6.620 60.064,6.400 60.200 C 6.180 60.336,6.000 61.056,6.000 61.800 C 6.000 62.544,5.820 63.264,5.600 63.400 C 5.380 63.536,5.200 64.166,5.200 64.800 C 5.200 65.434,5.020 66.064,4.800 66.200 C 4.580 66.336,4.400 66.966,4.400 67.600 C 4.400 68.234,4.220 68.864,4.000 69.000 C 3.780 69.136,3.600 69.946,3.600 70.800 C 3.600 71.654,3.420 72.464,3.200 72.600 C 2.980 72.736,2.800 73.827,2.800 75.024 C 2.800 76.221,2.620 77.200,2.400 77.200 C 2.180 77.200,2.000 78.010,2.000 79.000 C 2.000 79.990,1.834 80.800,1.632 80.800 C 1.429 80.800,1.166 82.105,1.047 83.700 C 0.928 85.295,0.662 88.400,0.456 90.600 C 0.249 92.800,0.062 98.425,0.040 103.100 L 0.000 111.600 17.757 111.600 C 33.580 111.600,35.541 111.531,35.757 110.967 C 35.891 110.619,36.000 103.059,36.000 94.167 L 36.000 78.000 95.700 77.994 C 128.535 77.991,155.643 77.834,155.941 77.645 C 156.354 77.383,156.071 76.889,154.741 75.546 C 153.783 74.581,152.745 73.297,152.432 72.695 C 152.120 72.093,151.715 71.600,151.532 71.600 C 151.350 71.600,151.199 71.375,151.198 71.100 C 151.197 70.825,150.657 70.025,149.998 69.322 C 149.339 68.619,148.800 67.880,148.800 67.681 C 148.800 67.482,148.260 66.754,147.600 66.063 C 146.940 65.372,146.400 64.652,146.400 64.463 C 146.400 64.274,145.860 63.554,145.200 62.863 C 144.540 62.172,144.000 61.492,144.000 61.351 C 144.000 61.209,143.685 60.803,143.300 60.447 C 142.915 60.091,142.249 59.170,141.820 58.400 C 141.391 57.630,140.716 56.651,140.320 56.225 C 139.924 55.798,139.600 55.202,139.600 54.901 C 139.600 54.599,139.420 54.464,139.200 54.600 C 138.980 54.736,138.800 54.567,138.800 54.224 C 138.800 53.881,138.620 53.600,138.400 53.600 C 138.180 53.600,138.000 53.357,138.000 53.059 C 138.000 52.762,137.505 51.994,136.900 51.352 C 136.295 50.711,135.561 49.739,135.269 49.193 C 134.976 48.647,134.033 47.660,133.172 47.000 C 132.311 46.340,131.219 45.486,130.745 45.103 C 129.926 44.439,127.571 43.607,126.500 43.602 C 126.225 43.601,126.000 43.420,126.000 43.200 C 126.000 42.689,20.544 42.643,20.229 43.154 M266.113 71.900 C 266.061 72.849,266.100 72.890,266.398 72.200 C 266.848 71.158,266.871 70.800,266.487 70.800 C 266.315 70.800,266.147 71.295,266.113 71.900 M15.118 356.228 C 15.611 356.573,16.327 356.774,16.707 356.674 C 17.233 356.537,17.189 356.482,16.524 356.446 C 16.042 356.421,15.536 356.220,15.400 356.000 C 15.264 355.780,14.943 355.600,14.687 355.600 C 14.431 355.600,14.625 355.883,15.118 356.228 " stroke="none" fill="#f4c45b" fill-rule="evenodd"></path><path id="path3" d="M36.583 78.501 C 36.477 78.776,36.438 86.291,36.495 95.201 L 36.600 111.400 137.000 111.508 C 206.660 111.583,238.257 111.485,240.199 111.189 C 245.393 110.397,250.116 107.314,252.625 103.079 C 254.483 99.942,254.356 99.622,252.435 102.600 C 250.648 105.370,248.002 107.928,245.888 108.932 C 241.701 110.918,248.474 110.800,138.950 110.800 L 36.800 110.800 36.800 94.601 L 36.800 78.403 96.300 78.300 L 155.800 78.197 96.287 78.099 C 48.940 78.020,36.736 78.102,36.583 78.501 M263.600 78.443 C 263.600 78.686,263.040 80.081,262.356 81.543 C 261.672 83.004,260.663 85.190,260.113 86.400 C 258.834 89.218,258.067 90.888,255.816 95.760 C 254.810 97.938,254.061 99.794,254.152 99.885 C 254.308 100.041,255.103 98.453,257.400 93.400 C 257.950 92.190,258.838 90.255,259.373 89.100 C 263.730 79.702,264.415 78.000,263.843 78.000 C 263.710 78.000,263.600 78.199,263.600 78.443 " stroke="none" fill="#f4e0a5" fill-rule="evenodd"></path><path id="path4" d="M263.758 78.827 C 263.735 79.459,263.870 79.880,264.058 79.764 C 264.480 79.504,264.510 78.115,264.100 77.863 C 263.935 77.762,263.781 78.195,263.758 78.827 M36.267 78.267 C 35.617 78.917,35.973 111.504,36.633 111.757 C 37.508 112.093,238.436 112.009,239.285 111.672 C 239.662 111.522,194.212 111.400,138.285 111.400 L 36.600 111.400 36.600 94.700 C 36.600 85.515,36.585 78.000,36.567 78.000 C 36.548 78.000,36.413 78.120,36.267 78.267 M252.986 102.500 L 252.352 103.800 253.167 102.800 C 253.952 101.837,254.208 101.200,253.810 101.200 C 253.706 101.200,253.335 101.785,252.986 102.500 M248.571 107.703 L 247.400 108.997 248.600 107.999 C 249.260 107.449,249.875 106.955,249.967 106.900 C 250.058 106.845,250.045 106.712,249.938 106.604 C 249.830 106.496,249.215 106.991,248.571 107.703 " stroke="none" fill="#fcdc84" fill-rule="evenodd"></path></g></svg>