<svg id="svg" version="1.1" xmlns="http://www.w3.org/2000/svg" xmlns:xlink="http://www.w3.org/1999/xlink" width="400" height="400" viewBox="0, 0, 400,400"><g id="svgg"><path id="path0" d="M10.000 68.795 C 10.000 69.018,9.460 69.200,8.800 69.200 C 8.140 69.200,7.600 69.380,7.600 69.600 C 7.600 69.820,7.280 70.000,6.888 70.000 C 6.497 70.000,5.917 70.360,5.600 70.800 C 5.283 71.240,4.780 71.600,4.483 71.600 C 3.819 71.600,3.177 72.257,2.432 73.700 C 2.120 74.305,1.715 74.800,1.532 74.800 C 1.350 74.800,1.200 75.145,1.200 75.567 C 1.200 75.988,0.975 76.408,0.700 76.500 C -0.118 76.773,-0.023 184.516,0.798 186.300 C 1.126 187.015,1.531 187.600,1.698 187.600 C 1.864 187.600,2.000 187.801,2.000 188.046 C 2.000 188.732,5.309 191.600,6.100 191.600 C 6.485 191.600,6.800 191.780,6.800 192.000 C 6.800 192.220,7.160 192.400,7.600 192.400 C 8.040 192.400,8.400 192.580,8.400 192.800 C 8.400 193.020,9.199 193.200,10.176 193.200 C 11.153 193.200,12.064 193.380,12.200 193.600 C 12.652 194.332,109.863 194.133,110.145 193.400 C 110.348 192.869,120.501 192.800,198.193 192.800 C 246.493 192.800,286.323 192.648,286.705 192.463 C 287.087 192.278,288.268 191.706,289.328 191.193 C 291.547 190.118,293.910 187.607,295.262 184.887 L 296.200 183.000 296.200 131.000 L 296.200 79.000 295.135 76.982 C 292.953 72.849,288.809 69.824,284.726 69.384 C 283.557 69.258,243.990 69.077,196.800 68.981 C 149.610 68.886,88.275 68.714,60.500 68.599 C 26.583 68.459,10.000 68.524,10.000 68.795 M139.200 96.529 C 146.146 98.433,147.129 106.719,140.800 110.022 C 140.120 110.377,137.338 110.601,132.100 110.724 L 124.400 110.904 124.400 135.403 C 124.400 162.486,124.481 161.593,121.827 163.922 C 118.438 166.898,112.978 165.794,110.956 161.723 C 110.243 160.287,110.194 158.798,110.091 135.552 L 109.982 110.903 102.280 110.727 C 94.789 110.555,94.537 110.522,93.052 109.513 C 87.391 105.666,88.702 98.429,95.400 96.553 C 97.772 95.888,136.786 95.867,139.200 96.529 M31.643 97.630 C 34.562 99.709,34.578 99.803,34.800 116.000 L 35.000 130.600 51.800 130.600 L 68.600 130.600 68.800 115.800 C 68.998 101.171,69.011 100.985,69.916 99.716 C 73.053 95.318,79.402 95.517,82.023 100.094 L 83.000 101.800 83.000 131.261 L 83.000 160.721 81.758 162.436 C 78.683 166.681,72.879 166.717,69.993 162.510 C 69.039 161.119,68.992 160.752,68.800 153.231 L 68.600 145.400 51.800 145.400 L 35.000 145.400 34.796 153.268 L 34.592 161.136 33.386 162.626 C 30.152 166.621,25.046 166.619,21.810 162.621 L 20.600 161.126 20.487 132.153 C 20.364 100.294,20.324 100.876,22.792 98.408 C 24.957 96.243,29.174 95.872,31.643 97.630 M162.334 97.501 C 164.011 98.521,165.445 100.567,169.693 108.000 C 170.134 108.770,170.833 109.878,171.247 110.462 C 171.661 111.046,172.000 111.643,172.000 111.790 C 172.000 111.936,172.540 112.841,173.200 113.800 C 173.860 114.759,174.400 115.664,174.400 115.810 C 174.400 115.957,174.739 116.554,175.153 117.138 C 175.567 117.722,176.267 118.830,176.708 119.600 C 179.423 124.342,182.499 129.200,182.786 129.200 C 183.112 129.200,184.144 127.656,185.727 124.800 C 186.154 124.030,187.560 121.716,188.851 119.658 C 190.143 117.600,191.200 115.833,191.200 115.730 C 191.200 115.628,191.740 114.759,192.400 113.800 C 193.060 112.841,193.600 111.941,193.600 111.800 C 193.600 111.659,194.140 110.759,194.800 109.800 C 195.460 108.841,196.000 107.972,196.000 107.869 C 196.000 107.626,198.921 102.791,200.694 100.100 C 203.940 95.173,210.530 95.336,213.265 100.410 C 213.981 101.738,214.009 103.119,213.907 131.400 L 213.800 161.000 212.800 162.481 C 209.998 166.632,203.943 166.646,201.075 162.509 L 200.000 160.957 200.000 145.478 C 200.000 136.965,199.859 130.000,199.687 130.000 C 199.515 130.000,197.702 132.785,195.657 136.190 C 190.545 144.702,189.841 145.196,182.800 145.196 C 176.130 145.196,174.653 144.283,170.836 137.800 C 169.670 135.820,168.150 133.243,167.458 132.073 L 166.200 129.946 166.000 145.073 L 165.800 160.200 164.799 161.988 C 162.099 166.810,155.063 166.838,152.530 162.037 L 151.600 160.274 151.600 131.124 C 151.600 98.945,151.497 100.276,154.156 98.150 C 156.573 96.218,159.802 95.962,162.334 97.501 M238.289 97.495 C 238.815 97.840,239.775 98.892,240.423 99.833 L 241.600 101.544 241.600 126.558 L 241.600 151.572 256.530 151.686 L 271.460 151.800 272.909 152.793 C 277.266 155.780,276.964 162.157,272.339 164.804 L 270.600 165.800 251.800 165.800 C 229.445 165.800,229.509 165.814,227.680 160.372 C 226.387 156.524,227.152 100.000,228.497 100.000 C 228.664 100.000,228.800 99.734,228.800 99.409 C 228.800 99.084,229.295 98.503,229.900 98.118 C 230.505 97.733,231.091 97.296,231.201 97.145 C 231.854 96.260,236.774 96.502,238.289 97.495 M273.800 235.087 C 271.089 235.746,269.978 237.556,266.612 246.800 C 264.534 252.504,262.391 258.237,261.602 260.200 C 261.425 260.640,261.064 261.630,260.800 262.400 C 260.251 264.000,259.883 264.977,259.293 266.400 C 259.065 266.950,258.483 268.480,258.000 269.800 C 256.972 272.611,256.654 273.445,256.094 274.800 C 255.867 275.350,255.464 276.430,255.200 277.200 C 254.936 277.970,254.568 278.960,254.382 279.400 C 254.197 279.840,251.776 286.320,249.002 293.800 C 246.227 301.280,243.811 307.760,243.632 308.200 C 243.453 308.640,243.121 309.450,242.894 310.000 C 242.667 310.550,242.264 311.630,242.000 312.400 C 241.454 313.989,241.088 314.962,240.494 316.400 C 240.267 316.950,239.864 318.030,239.600 318.800 C 239.336 319.570,238.933 320.650,238.706 321.200 C 238.139 322.572,237.808 323.442,236.879 326.000 C 236.439 327.210,235.539 329.640,234.878 331.400 C 233.805 334.256,232.449 337.929,229.929 344.800 C 229.485 346.010,228.967 347.360,228.778 347.800 C 226.446 353.217,229.253 358.400,234.519 358.400 C 238.548 358.400,239.939 356.822,242.800 349.000 C 243.283 347.680,243.865 346.150,244.093 345.600 C 244.683 344.177,245.051 343.200,245.600 341.600 C 245.864 340.830,246.243 339.795,246.440 339.300 C 246.638 338.805,246.962 337.995,247.160 337.500 C 247.357 337.005,247.736 335.970,248.000 335.200 C 248.264 334.430,248.633 333.440,248.818 333.000 C 249.004 332.560,249.810 330.400,250.610 328.200 C 252.471 323.084,254.613 317.313,255.881 314.000 C 256.429 312.570,257.237 310.410,257.677 309.200 C 258.118 307.990,258.665 306.550,258.893 306.000 C 259.483 304.577,259.851 303.600,260.400 302.000 C 260.946 300.411,261.312 299.438,261.906 298.000 C 262.133 297.450,262.536 296.370,262.800 295.600 C 263.064 294.830,263.467 293.750,263.694 293.200 C 263.921 292.650,264.253 291.840,264.431 291.400 C 264.695 290.749,269.258 278.456,273.266 267.600 C 273.712 266.390,274.265 264.950,274.493 264.400 C 275.083 262.977,275.451 262.000,276.000 260.400 C 276.549 258.800,276.917 257.823,277.507 256.400 C 277.735 255.850,278.317 254.320,278.800 253.000 C 279.283 251.680,279.865 250.150,280.093 249.600 C 281.025 247.352,281.184 246.925,281.733 245.200 C 282.838 241.734,282.871 241.031,282.020 239.046 C 280.517 235.540,277.640 234.154,273.800 235.087 M211.600 248.849 C 210.097 249.290,168.417 290.425,166.722 293.140 C 165.501 295.096,165.581 298.164,166.908 300.217 C 168.057 301.995,208.295 342.208,210.262 343.543 C 214.301 346.286,220.400 342.995,220.400 338.072 C 220.400 335.151,219.734 334.380,200.977 315.586 C 190.760 305.348,182.400 296.803,182.400 296.596 C 182.400 296.389,190.759 287.845,200.976 277.610 C 211.192 267.374,219.742 258.493,219.976 257.874 C 222.003 252.496,217.115 247.228,211.600 248.849 M294.728 248.775 C 290.367 250.162,288.588 255.239,291.171 258.928 C 291.815 259.848,300.365 268.609,310.171 278.398 C 319.977 288.187,328.000 296.373,328.000 296.588 C 328.000 296.804,319.836 305.174,309.859 315.190 C 289.606 335.520,290.000 335.067,290.000 338.000 C 290.000 343.110,295.976 346.376,300.138 343.540 C 301.991 342.277,341.846 302.492,343.226 300.528 C 344.531 298.670,344.863 295.222,343.903 293.495 C 343.200 292.230,301.661 250.525,300.182 249.598 C 298.722 248.684,296.206 248.305,294.728 248.775 " stroke="none" fill="#fb6c4c" fill-rule="evenodd"></path><path id="path1" d="M124.500 0.289 C 123.785 0.378,123.200 0.619,123.200 0.825 C 123.200 1.031,122.840 1.200,122.400 1.200 C 121.960 1.200,121.600 1.380,121.600 1.600 C 121.600 1.820,121.240 2.000,120.800 2.000 C 120.360 2.000,120.000 2.180,120.000 2.400 C 120.000 2.620,119.736 2.800,119.414 2.800 C 118.446 2.800,113.480 8.142,112.303 10.450 C 109.930 15.100,110.024 13.799,110.006 42.219 L 109.989 68.400 197.048 68.400 C 259.679 68.400,284.569 68.525,285.754 68.845 C 291.406 70.372,295.228 74.194,296.755 79.846 C 297.394 82.213,297.384 180.368,296.744 182.372 C 295.487 186.309,291.485 191.600,289.764 191.600 C 289.454 191.600,289.200 191.780,289.200 192.000 C 289.200 192.220,288.876 192.400,288.480 192.400 C 288.084 192.400,287.535 192.625,287.260 192.900 C 286.864 193.296,268.356 193.442,198.480 193.600 L 110.200 193.800 110.099 288.595 C 110.006 376.324,110.048 383.554,110.669 385.595 C 111.038 386.808,111.308 387.935,111.270 388.100 C 111.231 388.265,111.360 388.400,111.557 388.400 C 111.753 388.400,112.190 389.075,112.528 389.900 C 112.867 390.725,113.606 391.887,114.172 392.483 C 114.737 393.078,115.200 393.783,115.200 394.049 C 115.200 394.315,115.312 394.421,115.449 394.285 C 115.585 394.148,116.381 394.748,117.217 395.618 C 118.053 396.488,119.021 397.200,119.369 397.200 C 119.716 397.200,120.000 397.380,120.000 397.600 C 120.000 397.820,120.360 398.000,120.800 398.000 C 121.240 398.000,121.600 398.180,121.600 398.400 C 121.600 398.620,121.945 398.800,122.367 398.800 C 122.788 398.800,123.208 399.025,123.300 399.300 C 123.433 399.699,150.169 399.800,255.200 399.800 C 360.231 399.800,386.967 399.699,387.100 399.300 C 387.192 399.025,387.516 398.800,387.821 398.800 C 388.691 398.800,391.018 397.370,392.645 395.835 C 393.462 395.064,394.309 394.544,394.527 394.679 C 394.745 394.813,394.813 394.745,394.679 394.527 C 394.544 394.309,395.064 393.462,395.835 392.645 C 397.370 391.018,398.800 388.691,398.800 387.821 C 398.800 387.516,399.025 387.192,399.300 387.100 C 399.699 386.967,399.821 355.973,399.904 234.278 L 400.007 81.623 397.802 79.511 C 396.590 78.350,394.653 76.451,393.499 75.291 C 392.344 74.132,388.430 70.220,384.800 66.598 C 381.170 62.976,377.503 59.312,376.652 58.454 C 374.644 56.432,362.368 44.156,360.346 42.148 C 359.488 41.297,355.824 37.630,352.202 34.000 C 344.042 25.822,342.978 24.758,334.800 16.598 C 326.400 8.217,325.788 7.601,321.746 3.448 L 318.389 -0.000 222.094 0.064 C 169.132 0.099,125.215 0.201,124.500 0.289 M279.195 234.997 C 282.565 236.705,284.141 240.821,282.750 244.281 C 282.503 244.897,282.122 245.850,281.904 246.400 C 281.685 246.950,281.348 247.713,281.153 248.095 C 280.959 248.477,280.800 249.064,280.800 249.400 C 280.800 249.736,280.641 250.323,280.447 250.705 C 280.252 251.087,279.892 251.895,279.647 252.500 C 279.401 253.105,278.999 254.095,278.753 254.700 C 278.508 255.305,278.148 256.113,277.953 256.495 C 277.759 256.877,277.600 257.552,277.600 257.995 C 277.600 258.438,277.420 258.800,277.200 258.800 C 276.980 258.800,276.800 259.162,276.800 259.605 C 276.800 260.048,276.641 260.723,276.447 261.105 C 275.971 262.040,275.382 263.507,274.800 265.200 C 274.536 265.970,274.157 267.005,273.960 267.500 C 273.762 267.995,273.438 268.805,273.240 269.300 C 273.043 269.795,272.664 270.830,272.400 271.600 C 272.136 272.370,271.775 273.360,271.599 273.800 C 271.423 274.240,270.260 277.390,269.014 280.800 C 266.793 286.880,266.530 287.577,265.694 289.600 C 265.467 290.150,265.064 291.230,264.800 292.000 C 264.536 292.770,264.157 293.805,263.960 294.300 C 263.762 294.795,263.438 295.605,263.240 296.100 C 263.043 296.595,262.664 297.630,262.400 298.400 C 261.818 300.093,261.229 301.560,260.753 302.495 C 260.559 302.877,260.400 303.552,260.400 303.995 C 260.400 304.438,260.220 304.800,260.000 304.800 C 259.780 304.800,259.600 305.162,259.600 305.605 C 259.600 306.048,259.441 306.723,259.247 307.105 C 259.052 307.487,258.692 308.295,258.447 308.900 C 258.201 309.505,257.833 310.405,257.628 310.900 C 257.424 311.395,256.809 313.060,256.262 314.600 C 254.468 319.645,251.957 326.584,251.629 327.400 C 251.452 327.840,251.121 328.650,250.894 329.200 C 250.667 329.750,250.264 330.830,250.000 331.600 C 249.418 333.293,248.829 334.760,248.353 335.695 C 248.159 336.077,248.000 336.580,248.000 336.814 C 248.000 337.048,247.640 337.984,247.200 338.894 C 246.760 339.805,246.400 340.789,246.400 341.081 C 246.400 341.372,246.241 341.923,246.047 342.305 C 245.852 342.687,245.471 343.540,245.200 344.200 C 244.929 344.860,244.548 345.713,244.353 346.095 C 244.159 346.477,244.000 347.064,244.000 347.400 C 244.000 347.736,243.841 348.323,243.647 348.705 C 243.452 349.087,243.116 349.850,242.900 350.400 C 240.643 356.141,240.106 356.959,237.705 358.300 C 235.269 359.662,229.653 358.375,228.975 356.300 C 228.849 355.915,228.578 355.600,228.373 355.600 C 228.168 355.600,228.000 355.251,228.000 354.824 C 228.000 354.397,227.820 353.936,227.600 353.800 C 227.380 353.664,227.200 352.674,227.200 351.600 C 227.200 350.526,227.380 349.536,227.600 349.400 C 227.820 349.264,228.000 348.724,228.000 348.200 C 228.000 347.676,228.180 347.136,228.400 347.000 C 228.620 346.864,228.800 346.491,228.800 346.172 C 228.800 345.853,229.149 344.828,229.576 343.896 C 230.003 342.963,230.703 341.120,231.131 339.800 C 231.842 337.603,232.774 335.037,233.598 333.000 C 233.776 332.560,234.317 331.120,234.800 329.800 C 235.283 328.480,235.865 326.950,236.093 326.400 C 236.683 324.977,237.051 324.000,237.600 322.400 C 237.864 321.630,238.267 320.550,238.494 320.000 C 238.721 319.450,239.084 318.550,239.300 318.000 C 239.516 317.450,239.852 316.687,240.047 316.305 C 240.241 315.923,240.400 315.248,240.400 314.805 C 240.400 314.362,240.580 314.000,240.800 314.000 C 241.020 314.000,241.200 313.638,241.200 313.195 C 241.200 312.752,241.359 312.077,241.553 311.695 C 241.748 311.313,242.129 310.460,242.400 309.800 C 242.671 309.140,243.052 308.287,243.247 307.905 C 243.441 307.523,243.600 306.936,243.600 306.600 C 243.600 306.264,243.759 305.677,243.953 305.295 C 244.148 304.913,244.529 304.060,244.800 303.400 C 245.071 302.740,245.452 301.887,245.647 301.505 C 245.841 301.123,246.000 300.536,246.000 300.200 C 246.000 299.864,246.159 299.277,246.353 298.895 C 246.915 297.790,247.380 296.586,249.786 290.000 C 251.032 286.590,252.202 283.440,252.387 283.000 C 252.571 282.560,253.117 281.120,253.600 279.800 C 254.083 278.480,254.640 276.995,254.839 276.500 C 255.038 276.005,255.362 275.195,255.560 274.700 C 255.757 274.205,256.136 273.170,256.400 272.400 C 257.212 270.036,258.196 267.585,258.847 266.305 C 259.041 265.923,259.200 265.248,259.200 264.805 C 259.200 264.362,259.380 264.000,259.600 264.000 C 259.820 264.000,260.000 263.561,260.000 263.024 C 260.000 262.487,260.144 261.958,260.321 261.849 C 260.497 261.740,260.890 260.739,261.193 259.625 C 261.496 258.511,261.892 257.600,262.072 257.600 C 262.253 257.600,262.400 257.186,262.400 256.680 C 262.400 256.174,262.543 255.589,262.718 255.380 C 262.893 255.171,263.274 254.280,263.565 253.400 C 264.254 251.313,266.737 244.455,267.222 243.300 C 268.214 240.939,268.366 240.542,268.589 239.741 C 269.841 235.243,275.067 232.906,279.195 234.997 M217.926 249.207 C 220.541 251.143,221.616 254.146,220.799 257.236 C 220.380 258.818,218.414 260.923,201.766 277.610 C 191.555 287.845,183.200 296.391,183.200 296.600 C 183.200 296.809,191.554 305.355,201.763 315.590 C 220.801 334.675,221.196 335.130,221.196 338.000 C 221.196 340.081,218.878 344.000,217.647 344.000 C 217.401 344.000,217.200 344.180,217.200 344.400 C 217.200 344.620,216.696 344.800,216.080 344.800 C 215.464 344.800,214.740 345.020,214.470 345.290 C 214.083 345.677,213.815 345.677,213.195 345.290 C 212.764 345.020,212.136 344.800,211.800 344.800 C 210.507 344.800,208.792 343.195,188.285 322.800 C 163.544 298.194,163.468 298.093,165.973 293.284 C 166.871 291.560,208.811 249.598,210.600 248.634 C 212.418 247.654,216.230 247.952,217.926 249.207 M300.165 248.980 C 301.878 250.008,343.432 291.542,344.300 293.095 C 344.575 293.587,344.800 294.316,344.800 294.715 C 344.800 295.114,344.997 295.637,345.237 295.877 C 345.553 296.193,345.553 296.540,345.237 297.131 C 344.997 297.580,344.800 298.317,344.800 298.769 C 344.800 300.013,344.877 299.932,322.405 322.405 C 299.932 344.877,300.013 344.800,298.769 344.800 C 298.317 344.800,297.580 344.997,297.131 345.237 C 296.540 345.553,296.193 345.553,295.877 345.237 C 295.637 344.997,295.114 344.800,294.715 344.800 C 293.332 344.800,291.161 343.128,290.055 341.212 C 289.406 340.087,289.339 335.087,289.971 334.876 C 290.207 334.798,290.400 334.555,290.400 334.338 C 290.400 333.825,288.818 335.452,309.342 314.855 C 319.209 304.952,327.219 296.660,327.142 296.429 C 327.064 296.198,318.765 287.768,308.700 277.695 C 298.635 267.622,290.400 259.175,290.400 258.923 C 290.400 258.672,290.204 258.401,289.965 258.322 C 289.703 258.234,289.529 256.990,289.529 255.200 C 289.529 253.410,289.703 252.166,289.965 252.078 C 290.204 251.999,290.400 251.761,290.400 251.550 C 290.400 251.019,291.735 249.637,293.079 248.777 C 294.803 247.672,298.143 247.768,300.165 248.980 " stroke="none" fill="#e3ebf3" fill-rule="evenodd"></path><path id="path2" d="M95.600 97.062 C 91.177 97.821,88.367 103.289,90.800 106.400 C 91.230 106.950,91.586 107.625,91.591 107.900 C 91.596 108.175,91.797 108.400,92.038 108.400 C 92.279 108.400,92.977 108.756,93.588 109.191 C 94.588 109.903,95.472 109.993,102.449 110.091 L 110.200 110.200 110.424 134.800 C 110.667 161.510,110.626 161.026,112.815 163.215 C 116.083 166.483,122.176 165.146,123.432 160.887 C 123.608 160.289,123.853 148.640,123.976 135.000 L 124.200 110.200 132.182 110.091 C 136.572 110.031,140.262 109.851,140.382 109.691 C 140.502 109.530,141.050 109.167,141.600 108.883 C 145.630 106.806,145.268 100.046,141.000 97.668 C 139.852 97.029,98.972 96.483,95.600 97.062 M157.481 97.125 C 155.219 97.312,152.564 99.972,152.217 102.400 C 152.075 103.390,152.013 116.890,152.080 132.400 L 152.200 160.600 153.139 162.110 C 155.734 166.284,162.088 166.002,164.300 161.615 C 165.185 159.860,165.200 159.585,165.206 144.815 C 165.211 131.651,165.420 127.995,166.118 128.812 C 166.449 129.199,172.000 138.512,172.000 138.680 C 172.000 139.507,175.023 143.168,176.310 143.900 C 177.974 144.846,188.149 144.572,189.726 143.538 C 190.851 142.801,193.600 139.280,193.600 138.577 C 193.600 138.449,194.140 137.559,194.800 136.600 C 195.460 135.641,196.000 134.764,196.000 134.651 C 196.000 134.481,199.035 129.415,199.499 128.812 C 200.176 127.930,200.389 131.773,200.394 145.022 L 200.400 160.243 201.561 162.074 C 204.134 166.131,209.660 166.128,212.406 162.069 L 213.400 160.600 213.523 132.800 C 213.591 117.510,213.531 104.035,213.389 102.855 C 212.842 98.302,207.879 95.725,203.687 97.817 C 202.557 98.380,198.800 103.406,198.800 104.354 C 198.800 104.563,198.665 104.793,198.500 104.867 C 198.124 105.034,196.825 107.164,196.529 108.100 C 196.407 108.485,196.148 108.800,195.953 108.800 C 195.759 108.800,195.600 108.997,195.600 109.238 C 195.600 109.479,195.261 110.154,194.847 110.738 C 193.732 112.312,191.998 115.300,191.736 116.100 C 191.610 116.485,191.348 116.800,191.153 116.800 C 190.959 116.800,190.800 116.993,190.800 117.228 C 190.800 117.463,190.299 118.408,189.688 119.328 C 189.076 120.248,188.349 121.450,188.072 122.000 C 186.674 124.774,183.308 129.805,182.790 129.894 C 182.422 129.957,181.481 128.753,180.293 126.698 C 179.245 124.884,178.075 122.860,177.693 122.200 C 177.312 121.540,176.910 120.910,176.800 120.800 C 176.690 120.690,176.403 120.240,176.162 119.800 C 175.122 117.898,174.587 116.987,174.400 116.800 C 174.290 116.690,173.883 116.060,173.495 115.400 C 162.973 97.500,162.297 96.728,157.481 97.125 M24.600 97.658 C 23.384 98.319,21.619 100.402,21.292 101.564 C 20.579 104.096,20.960 160.128,21.700 161.479 C 24.200 166.052,30.158 166.326,33.100 162.004 C 33.953 160.751,34.000 160.296,34.000 153.315 C 34.000 143.220,31.643 144.400,51.806 144.400 L 68.785 144.400 68.983 145.300 C 69.093 145.795,69.236 149.350,69.302 153.200 C 69.404 159.148,69.537 160.426,70.188 161.706 C 72.275 165.810,78.510 166.173,81.237 162.350 L 82.200 161.000 82.310 131.680 C 82.432 99.167,82.460 99.539,79.823 98.338 C 79.261 98.081,78.800 97.720,78.800 97.536 C 78.800 96.324,73.193 97.239,71.661 98.700 C 69.309 100.944,69.205 101.719,69.202 117.051 C 69.200 128.220,69.099 130.786,68.644 131.164 C 67.713 131.936,34.889 131.587,34.391 130.800 C 34.171 130.451,34.010 124.154,34.006 115.760 L 34.000 101.320 32.797 99.660 C 32.136 98.747,31.326 98.000,30.997 98.000 C 30.669 98.000,30.400 97.820,30.400 97.600 C 30.400 97.061,25.612 97.109,24.600 97.658 M230.816 98.216 C 229.347 99.254,228.773 100.127,228.049 102.428 C 227.412 104.453,227.418 157.572,228.055 159.572 C 228.848 162.057,229.355 162.878,230.764 163.953 L 232.137 165.000 250.669 165.115 C 262.742 165.190,269.747 165.084,270.765 164.809 C 272.488 164.346,274.800 162.428,274.800 161.463 C 274.800 161.124,274.980 160.736,275.200 160.600 C 276.663 159.696,274.891 154.827,272.504 153.190 L 271.060 152.200 256.230 152.000 L 241.400 151.800 241.190 126.800 C 240.993 103.343,240.839 100.000,239.953 100.000 C 239.759 100.000,239.598 99.775,239.595 99.500 C 239.574 97.345,233.342 96.433,230.816 98.216 M394.175 394.500 L 393.000 395.800 394.300 394.625 C 395.015 393.979,395.600 393.394,395.600 393.325 C 395.600 393.016,395.270 393.288,394.175 394.500 " stroke="none" fill="#fcfbfb" fill-rule="evenodd"></path><path id="path3" d="M153.668 69.100 C 177.135 69.157,215.655 69.157,239.268 69.100 C 262.881 69.043,243.680 68.996,196.600 68.996 C 149.520 68.996,130.201 69.043,153.668 69.100 M282.433 68.946 C 282.525 69.026,283.590 69.200,284.800 69.332 C 286.237 69.488,286.722 69.448,286.200 69.214 C 285.443 68.875,282.079 68.636,282.433 68.946 M288.820 70.586 C 291.146 71.798,293.802 74.454,295.014 76.780 C 295.536 77.781,295.971 78.456,295.981 78.280 C 296.110 76.066,289.641 69.539,287.400 69.622 C 287.180 69.631,287.819 70.064,288.820 70.586 M296.200 130.946 C 296.200 159.711,296.317 182.831,296.460 182.323 C 296.795 181.134,296.788 81.384,296.453 79.822 C 296.314 79.175,296.200 102.180,296.200 130.946 M96.200 96.400 C 95.741 96.597,104.778 96.744,117.400 96.744 C 130.022 96.744,139.059 96.597,138.600 96.400 C 138.160 96.211,128.620 96.056,117.400 96.056 C 106.180 96.056,96.640 96.211,96.200 96.400 M26.900 96.676 C 27.285 96.776,27.915 96.776,28.300 96.676 C 28.685 96.575,28.370 96.493,27.600 96.493 C 26.830 96.493,26.515 96.575,26.900 96.676 M157.905 96.683 C 158.402 96.779,159.122 96.775,159.505 96.675 C 159.887 96.575,159.480 96.496,158.600 96.501 C 157.720 96.505,157.407 96.587,157.905 96.683 M206.305 96.683 C 206.802 96.779,207.522 96.775,207.905 96.675 C 208.287 96.575,207.880 96.496,207.000 96.501 C 206.120 96.505,205.807 96.587,206.305 96.683 M23.546 97.612 C 22.967 98.045,22.176 98.895,21.790 99.500 C 21.251 100.345,21.467 100.229,22.723 99.000 C 23.623 98.120,24.773 97.283,25.279 97.140 C 26.077 96.914,26.093 96.876,25.400 96.853 C 24.960 96.838,24.126 97.180,23.546 97.612 M30.798 97.700 C 32.053 98.339,32.831 99.110,33.482 100.363 C 33.987 101.333,34.400 101.894,34.400 101.610 C 34.400 100.027,31.283 96.800,29.753 96.800 C 29.356 96.800,29.826 97.205,30.798 97.700 M71.033 98.546 C 69.466 100.113,68.362 102.495,68.936 103.069 C 69.053 103.186,69.275 102.609,69.429 101.786 C 69.750 100.077,72.194 97.367,73.668 97.086 L 74.600 96.909 73.689 96.854 C 73.102 96.819,72.159 97.419,71.033 98.546 M92.800 97.644 C 92.250 98.098,92.026 98.353,92.301 98.210 C 94.606 97.019,94.926 96.806,94.400 96.811 C 94.070 96.815,93.350 97.189,92.800 97.644 M141.000 97.601 C 143.350 98.775,144.475 100.754,144.501 103.755 C 144.518 105.707,144.581 105.939,144.809 104.908 C 145.561 101.518,142.829 96.799,140.114 96.800 C 139.721 96.800,140.120 97.161,141.000 97.601 M209.928 97.473 C 211.529 98.262,212.989 100.097,213.530 102.000 C 213.749 102.770,213.944 103.067,213.964 102.660 C 214.057 100.748,210.837 96.785,209.209 96.809 C 208.874 96.814,209.198 97.113,209.928 97.473 M236.600 97.087 C 237.040 97.194,238.030 97.726,238.800 98.270 L 240.200 99.258 238.815 98.029 C 238.053 97.353,237.063 96.821,236.615 96.846 C 235.813 96.892,235.812 96.896,236.600 97.087 M153.500 98.700 C 152.385 99.869,151.577 101.615,151.636 102.726 C 151.656 103.097,151.848 102.770,152.064 102.000 C 152.280 101.230,152.992 99.925,153.647 99.100 C 155.048 97.335,154.980 97.149,153.500 98.700 M163.599 99.075 C 164.368 99.914,165.160 100.780,165.358 101.000 C 165.886 101.587,165.192 100.393,164.265 99.119 C 163.832 98.525,163.191 97.929,162.839 97.795 C 162.488 97.661,162.830 98.237,163.599 99.075 M201.519 98.900 C 200.982 99.615,200.408 100.470,200.242 100.800 C 200.076 101.130,200.359 100.862,200.870 100.203 C 201.382 99.545,202.115 98.690,202.500 98.303 C 202.885 97.917,203.041 97.600,202.847 97.600 C 202.654 97.600,202.056 98.185,201.519 98.900 M229.544 98.366 C 229.025 98.787,228.704 99.236,228.832 99.364 C 228.959 99.492,229.486 99.148,230.001 98.598 C 231.115 97.413,230.872 97.290,229.544 98.366 M90.653 99.700 L 89.933 101.000 90.758 100.000 C 91.489 99.113,91.814 98.400,91.486 98.400 C 91.424 98.400,91.049 98.985,90.653 99.700 M20.603 102.500 C 20.468 103.435,20.412 116.980,20.478 132.600 L 20.600 161.000 21.516 162.284 C 22.677 163.912,24.317 165.085,25.824 165.366 C 26.825 165.552,26.794 165.514,25.619 165.111 C 20.613 163.395,20.724 164.239,20.877 129.100 C 20.945 113.535,20.966 100.800,20.925 100.800 C 20.883 100.800,20.738 101.565,20.603 102.500 M241.102 119.138 C 241.157 129.182,241.252 140.550,241.311 144.400 C 241.371 148.250,241.460 140.116,241.510 126.324 C 241.559 112.532,241.465 101.164,241.300 101.062 C 241.135 100.960,241.046 109.094,241.102 119.138 M89.669 103.321 C 89.564 106.844,92.574 110.484,95.479 110.347 L 96.600 110.295 95.400 110.047 C 92.166 109.381,90.328 107.132,89.969 103.400 L 89.738 101.000 89.669 103.321 M165.609 101.900 C 165.614 102.065,165.985 102.650,166.433 103.200 L 167.248 104.200 166.614 102.900 C 166.011 101.665,165.589 101.245,165.609 101.900 M197.834 104.651 C 195.905 107.859,195.351 109.164,196.924 106.793 C 198.309 104.706,200.059 101.600,199.850 101.600 C 199.750 101.600,198.842 102.973,197.834 104.651 M227.443 102.233 C 227.093 103.144,227.155 159.310,227.506 159.862 C 227.668 160.116,227.800 147.111,227.800 130.962 C 227.800 114.813,227.774 101.600,227.743 101.600 C 227.711 101.600,227.576 101.885,227.443 102.233 M34.589 117.000 L 34.600 131.000 51.700 131.104 C 61.105 131.162,68.800 131.072,68.800 130.904 C 68.800 130.737,61.195 130.600,51.900 130.600 L 35.000 130.600 34.789 116.800 L 34.579 103.000 34.589 117.000 M82.989 131.000 C 82.989 146.400,83.039 152.642,83.100 144.871 C 83.161 137.100,83.161 124.500,83.100 116.871 C 83.039 109.242,82.989 115.600,82.989 131.000 M143.424 107.419 C 142.540 108.768,140.489 109.985,139.000 110.045 C 138.262 110.074,138.082 110.166,138.532 110.282 C 140.126 110.694,143.008 109.054,144.023 107.157 C 144.615 106.051,144.202 106.232,143.424 107.419 M194.653 109.991 C 194.074 110.867,193.600 111.717,193.600 111.880 C 193.600 112.044,193.842 111.823,194.139 111.389 C 195.441 109.481,196.078 108.400,195.899 108.400 C 195.793 108.400,195.232 109.116,194.653 109.991 M170.986 110.700 C 171.335 111.415,171.706 112.000,171.810 112.000 C 172.208 112.000,171.952 111.363,171.167 110.400 L 170.352 109.400 170.986 110.700 M103.497 110.699 L 109.994 110.820 110.100 135.310 L 110.206 159.800 110.303 135.100 L 110.400 110.400 103.700 110.489 L 97.000 110.579 103.497 110.699 M124.190 110.900 C 123.877 111.748,123.781 161.154,124.094 160.662 C 124.256 160.408,124.391 149.089,124.394 135.510 L 124.400 110.820 130.900 110.699 L 137.400 110.579 130.887 110.489 C 125.976 110.422,124.329 110.523,124.190 110.900 M172.615 113.500 C 173.956 115.585,174.400 116.177,174.400 115.880 C 174.400 115.496,172.355 112.400,172.101 112.400 C 171.995 112.400,172.226 112.895,172.615 113.500 M192.253 113.991 C 191.674 114.867,191.200 115.689,191.200 115.819 C 191.200 115.949,190.691 116.808,190.068 117.728 C 188.427 120.153,188.307 120.400,188.776 120.400 C 189.009 120.400,189.200 120.203,189.200 119.962 C 189.200 119.721,189.539 119.046,189.953 118.462 C 190.367 117.878,191.091 116.714,191.561 115.874 C 192.031 115.035,192.702 113.910,193.054 113.374 C 193.405 112.839,193.605 112.400,193.499 112.400 C 193.393 112.400,192.832 113.116,192.253 113.991 M175.015 117.500 C 176.356 119.585,176.800 120.177,176.800 119.880 C 176.800 119.496,174.755 116.400,174.501 116.400 C 174.395 116.400,174.626 116.895,175.015 117.500 M177.395 121.448 C 177.773 122.025,178.702 123.555,179.460 124.848 C 180.218 126.142,180.934 127.200,181.052 127.200 C 181.169 127.200,180.864 126.525,180.374 125.700 C 178.413 122.401,177.106 120.400,176.912 120.400 C 176.800 120.400,177.017 120.872,177.395 121.448 M187.570 121.666 C 187.298 122.180,186.813 123.005,186.492 123.500 C 186.171 123.995,185.995 124.400,186.101 124.400 C 186.436 124.400,188.469 121.136,188.262 120.929 C 188.154 120.820,187.842 121.152,187.570 121.666 M181.222 127.800 C 181.234 129.042,182.882 130.038,183.438 129.138 C 183.626 128.835,183.547 128.786,183.207 128.996 C 182.875 129.201,182.427 128.973,181.954 128.358 C 181.549 127.831,181.220 127.580,181.222 127.800 M165.695 143.900 L 165.790 158.600 165.900 144.231 C 165.999 131.356,166.073 129.941,166.612 130.631 C 167.166 131.340,167.176 131.315,166.742 130.300 C 165.737 127.950,165.603 129.685,165.695 143.900 M197.785 131.900 C 195.643 135.549,195.573 135.969,197.636 132.800 C 198.567 131.370,199.480 130.140,199.664 130.067 C 200.089 129.898,200.106 129.200,199.685 129.200 C 199.512 129.200,198.657 130.415,197.785 131.900 M168.545 133.820 C 170.589 138.026,174.264 143.277,175.708 144.055 C 176.097 144.265,175.647 143.661,174.708 142.713 C 173.768 141.766,172.736 140.452,172.412 139.795 C 172.089 139.138,171.324 137.848,170.712 136.928 C 170.101 136.008,169.596 135.108,169.591 134.928 C 169.586 134.748,169.215 134.150,168.767 133.600 L 167.952 132.600 168.545 133.820 M194.653 137.191 C 194.074 138.067,193.600 138.917,193.600 139.080 C 193.600 139.244,193.842 139.023,194.139 138.589 C 195.441 136.681,196.078 135.600,195.899 135.600 C 195.793 135.600,195.232 136.316,194.653 137.191 M192.404 140.993 C 191.931 141.760,190.971 142.854,190.272 143.426 C 189.572 143.997,189.360 144.287,189.800 144.069 C 191.003 143.474,194.192 139.600,193.479 139.600 C 193.361 139.600,192.878 140.227,192.404 140.993 M177.676 144.860 C 178.184 145.003,180.490 145.120,182.800 145.120 C 185.110 145.120,187.416 145.003,187.924 144.860 C 188.432 144.717,186.126 144.600,182.800 144.600 C 179.474 144.600,177.168 144.717,177.676 144.860 M34.667 145.067 C 34.520 145.213,34.439 148.498,34.486 152.367 L 34.571 159.400 34.786 152.400 L 35.000 145.400 51.900 145.400 C 61.195 145.400,68.800 145.265,68.800 145.100 C 68.800 144.729,35.037 144.696,34.667 145.067 M270.400 152.035 C 276.011 153.769,277.445 160.244,273.069 164.085 L 272.200 164.847 273.224 164.227 C 278.085 161.285,276.113 152.659,270.386 151.808 L 269.000 151.603 270.400 152.035 M69.014 159.986 C 69.197 161.252,70.791 164.143,71.123 163.810 C 71.201 163.733,70.935 163.171,70.532 162.563 C 70.129 161.954,69.578 160.814,69.307 160.028 L 68.814 158.600 69.014 159.986 M151.794 159.954 C 152.204 162.626,155.128 165.628,157.284 165.591 C 157.568 165.586,157.021 165.229,156.069 164.797 C 153.950 163.835,152.994 162.749,152.196 160.400 C 151.687 158.900,151.620 158.826,151.794 159.954 M213.382 160.100 C 213.227 160.815,212.763 161.878,212.350 162.462 C 211.938 163.046,211.600 163.672,211.600 163.855 C 211.600 164.037,212.026 163.559,212.546 162.793 C 213.426 161.498,214.316 158.800,213.864 158.800 C 213.754 158.800,213.537 159.385,213.382 160.100 M200.032 160.256 C 200.014 160.726,200.315 161.455,200.700 161.875 C 201.085 162.294,201.289 162.449,201.154 162.219 C 201.018 161.988,200.717 161.260,200.485 160.600 C 200.148 159.640,200.057 159.571,200.032 160.256 M81.900 161.500 L 81.234 163.000 82.017 162.056 C 82.676 161.261,83.085 160.000,82.683 160.000 C 82.619 160.000,82.267 160.675,81.900 161.500 M33.418 161.818 C 32.587 163.362,31.321 164.410,29.400 165.145 L 28.200 165.605 29.376 165.376 C 31.432 164.975,34.711 161.934,34.328 160.784 C 34.254 160.561,33.844 161.027,33.418 161.818 M228.009 161.162 C 227.985 162.669,231.559 165.668,233.260 165.568 C 233.557 165.551,233.260 165.345,232.600 165.111 C 230.729 164.448,229.371 163.344,228.665 161.913 C 228.309 161.191,228.014 160.853,228.009 161.162 M110.800 161.369 C 110.800 162.785,114.914 165.948,116.118 165.459 C 116.458 165.321,116.441 165.254,116.060 165.232 C 114.799 165.158,112.681 163.783,111.776 162.450 C 111.239 161.660,110.800 161.174,110.800 161.369 M121.911 163.266 C 121.092 164.072,119.864 164.854,119.183 165.004 C 118.501 165.154,118.034 165.367,118.145 165.478 C 118.602 165.935,121.148 164.691,122.401 163.398 C 124.211 161.532,123.789 161.417,121.911 163.266 M163.202 163.527 C 162.206 164.577,162.082 164.819,162.773 164.371 C 163.598 163.835,165.191 161.946,164.749 162.027 C 164.667 162.043,163.971 162.718,163.202 163.527 M80.000 163.994 C 79.450 164.421,78.460 164.894,77.800 165.045 C 77.140 165.196,76.817 165.395,77.082 165.487 C 77.673 165.692,80.190 164.535,80.831 163.763 C 81.470 162.993,81.190 163.070,80.000 163.994 M71.600 164.222 C 71.600 164.543,74.069 165.644,74.481 165.506 C 74.716 165.428,74.164 165.072,73.254 164.714 C 72.344 164.357,71.600 164.135,71.600 164.222 M209.400 164.800 C 208.520 165.207,208.034 165.554,208.320 165.570 C 208.889 165.603,211.200 164.495,211.200 164.190 C 211.200 163.954,211.307 163.917,209.400 164.800 M270.400 165.200 C 269.867 165.545,269.867 165.588,270.400 165.588 C 270.730 165.588,271.270 165.413,271.600 165.200 C 272.133 164.855,272.133 164.812,271.600 164.812 C 271.270 164.812,270.730 164.987,270.400 165.200 M243.327 165.900 C 248.127 165.964,255.867 165.963,260.527 165.899 C 265.187 165.836,261.260 165.783,251.800 165.783 C 242.340 165.783,238.527 165.836,243.327 165.900 M295.291 184.680 C 294.660 186.438,292.554 189.083,290.739 190.399 C 289.826 191.059,289.272 191.600,289.508 191.600 C 290.947 191.600,296.681 184.548,295.887 183.754 C 295.780 183.647,295.512 184.063,295.291 184.680 M287.800 191.885 C 286.575 192.180,286.198 192.728,287.376 192.503 C 287.946 192.394,288.510 192.146,288.630 191.952 C 288.749 191.759,288.792 191.621,288.724 191.646 C 288.656 191.672,288.240 191.779,287.800 191.885 M110.262 193.100 C 110.094 193.371,169.597 193.370,254.400 193.097 C 271.890 193.041,246.656 192.951,198.324 192.898 C 149.992 192.844,110.364 192.935,110.262 193.100 M273.600 234.796 C 273.196 235.054,273.654 235.103,275.006 234.945 C 276.382 234.784,277.481 234.907,278.506 235.335 C 280.287 236.079,280.487 235.872,278.820 235.010 C 277.503 234.329,274.522 234.207,273.600 234.796 M271.451 236.031 C 270.870 236.488,270.204 237.253,269.971 237.731 C 269.591 238.509,269.627 238.500,270.317 237.644 C 270.741 237.118,271.518 236.357,272.044 235.953 C 272.570 235.549,272.889 235.214,272.754 235.209 C 272.619 235.204,272.032 235.574,271.451 236.031 M281.914 238.854 C 282.272 239.764,282.628 240.316,282.706 240.081 C 282.844 239.669,281.743 237.200,281.422 237.200 C 281.335 237.200,281.557 237.944,281.914 238.854 M282.250 243.250 C 282.109 243.953,282.069 244.602,282.159 244.692 C 282.250 244.783,282.448 244.291,282.600 243.600 C 282.752 242.909,282.793 242.259,282.691 242.158 C 282.589 242.056,282.391 242.547,282.250 243.250 M265.032 250.098 C 263.939 252.989,263.703 253.596,262.850 255.719 C 262.602 256.334,262.409 257.054,262.419 257.319 C 262.438 257.771,263.143 256.085,265.458 250.051 C 265.996 248.649,266.367 247.433,266.282 247.349 C 266.198 247.264,265.635 248.501,265.032 250.098 M215.635 248.782 C 217.382 249.312,218.807 250.452,219.603 251.960 C 220.022 252.752,220.373 253.147,220.382 252.838 C 220.430 251.309,217.031 248.353,215.320 248.434 C 214.847 248.457,214.955 248.576,215.635 248.782 M298.526 248.807 C 299.145 248.992,299.873 249.292,300.144 249.472 C 300.416 249.653,300.294 249.485,299.875 249.100 C 299.455 248.715,298.726 248.415,298.256 248.434 C 297.562 248.462,297.613 248.533,298.526 248.807 M188.483 270.500 C 176.749 282.215,166.996 292.070,166.810 292.400 C 166.624 292.730,171.438 288.010,177.509 281.910 C 183.580 275.811,193.433 265.956,199.404 260.010 C 205.375 254.065,210.161 249.200,210.039 249.200 C 209.917 249.200,200.217 258.785,188.483 270.500 M291.744 250.100 C 289.172 253.008,288.826 256.150,290.771 258.928 C 291.415 259.848,299.965 268.609,309.771 278.398 C 319.577 288.187,327.600 296.365,327.600 296.571 C 327.600 296.777,319.474 305.058,309.542 314.973 C 289.958 334.523,289.600 334.937,289.600 338.020 C 289.600 340.024,291.653 344.080,292.327 343.406 C 292.464 343.269,292.393 343.031,292.169 342.878 C 289.971 341.378,289.271 336.994,290.859 334.662 C 291.331 333.968,299.881 325.205,309.859 315.190 C 319.836 305.174,328.000 296.804,328.000 296.588 C 328.000 296.373,319.977 288.187,310.171 278.398 C 300.365 268.609,291.815 259.848,291.171 258.928 C 289.122 256.002,289.697 252.280,292.564 249.909 C 293.024 249.529,293.206 249.214,292.970 249.209 C 292.733 249.204,292.181 249.605,291.744 250.100 M322.000 270.984 C 333.550 282.635,343.045 292.250,343.100 292.351 C 343.155 292.451,343.283 292.451,343.384 292.349 C 343.485 292.248,333.990 282.633,322.284 270.983 L 301.000 249.800 322.000 270.984 M278.658 253.304 C 277.728 255.740,277.880 256.204,278.836 253.847 C 279.272 252.773,279.558 251.824,279.472 251.738 C 279.386 251.652,279.020 252.357,278.658 253.304 M220.493 255.200 C 220.493 255.970,220.575 256.285,220.676 255.900 C 220.776 255.515,220.776 254.885,220.676 254.500 C 220.575 254.115,220.493 254.430,220.493 255.200 M220.000 257.874 C 220.000 258.245,211.540 267.026,201.200 277.387 C 190.860 287.749,182.400 296.396,182.400 296.603 C 182.400 296.810,190.671 305.264,200.781 315.390 C 210.890 325.515,219.439 334.340,219.778 335.000 C 220.246 335.910,220.396 336.012,220.398 335.422 C 220.399 334.928,213.541 327.770,201.600 315.804 C 191.260 305.442,182.800 296.797,182.800 296.592 C 182.800 296.387,191.260 287.747,201.600 277.392 C 217.621 261.347,221.441 257.200,220.200 257.200 C 220.090 257.200,220.000 257.503,220.000 257.874 M261.751 258.700 C 261.628 259.085,261.381 259.760,261.203 260.200 C 261.024 260.640,260.483 262.080,260.000 263.400 C 259.517 264.720,258.976 266.160,258.798 266.600 C 257.063 270.886,256.318 273.298,256.826 272.984 C 257.032 272.857,257.200 272.517,257.200 272.230 C 257.200 271.771,257.968 269.636,259.296 266.400 C 259.899 264.932,260.262 263.968,260.800 262.400 C 261.064 261.630,261.426 260.640,261.604 260.200 C 262.176 258.784,262.380 258.000,262.175 258.000 C 262.065 258.000,261.874 258.315,261.751 258.700 M276.572 258.643 C 275.895 260.720,275.482 261.890,275.106 262.800 C 274.879 263.350,274.554 264.160,274.384 264.600 C 272.362 269.831,271.910 271.303,272.426 270.984 C 272.632 270.857,272.800 270.517,272.800 270.230 C 272.800 269.771,273.568 267.636,274.896 264.400 C 276.450 260.616,277.232 258.299,277.026 258.093 C 276.912 257.979,276.708 258.226,276.572 258.643 M271.077 273.477 C 270.700 274.493,270.458 275.391,270.538 275.472 C 270.619 275.552,271.000 274.793,271.385 273.785 C 271.770 272.776,272.012 271.879,271.923 271.790 C 271.835 271.701,271.454 272.460,271.077 273.477 M343.600 293.087 C 343.600 293.343,343.780 293.664,344.000 293.800 C 344.954 294.390,344.448 298.788,343.226 300.528 C 341.846 302.492,301.991 342.277,300.138 343.540 C 298.781 344.465,294.289 344.791,293.800 344.000 C 293.664 343.780,293.343 343.600,293.087 343.600 C 292.831 343.600,293.026 343.883,293.519 344.229 C 295.102 345.337,298.483 345.060,300.486 343.658 C 302.502 342.247,342.674 302.006,343.972 300.098 C 345.060 298.499,345.200 294.906,344.229 293.519 C 343.883 293.026,343.600 292.831,343.600 293.087 M263.377 293.843 C 263.244 294.259,262.970 295.013,262.767 295.519 C 262.565 296.024,262.410 296.654,262.422 296.919 C 262.434 297.183,262.800 296.521,263.236 295.447 C 263.672 294.373,263.936 293.403,263.823 293.290 C 263.711 293.178,263.510 293.426,263.377 293.843 M165.754 294.177 C 165.632 294.494,165.603 295.079,165.689 295.477 C 165.787 295.928,165.924 295.712,166.054 294.900 C 166.271 293.538,166.130 293.196,165.754 294.177 M247.064 297.907 C 246.479 299.399,246.009 300.795,246.021 301.010 C 246.032 301.224,246.579 300.072,247.236 298.449 C 247.894 296.826,248.363 295.430,248.280 295.347 C 248.197 295.263,247.649 296.416,247.064 297.907 M165.654 297.908 C 165.550 299.642,167.641 301.910,188.265 322.443 C 211.429 345.505,210.690 344.857,213.835 344.857 C 215.839 344.857,219.190 343.456,218.599 342.865 C 218.515 342.781,217.913 343.092,217.261 343.556 C 215.603 344.737,212.010 344.730,210.262 343.543 C 208.400 342.279,168.089 302.045,167.002 300.366 C 166.491 299.577,165.991 298.497,165.891 297.966 C 165.714 297.026,165.707 297.024,165.654 297.908 M261.773 298.243 C 261.638 298.659,261.382 299.360,261.204 299.800 C 261.026 300.240,260.664 301.230,260.400 302.000 C 259.949 303.313,259.749 303.839,258.837 306.100 C 257.040 310.559,256.313 312.901,256.826 312.584 C 257.032 312.457,257.200 312.039,257.200 311.656 C 257.200 311.273,257.343 310.789,257.518 310.580 C 257.693 310.371,258.065 309.480,258.345 308.600 C 258.624 307.720,259.045 306.550,259.280 306.000 C 259.515 305.450,259.846 304.640,260.017 304.200 C 261.961 299.179,262.405 297.872,262.227 297.694 C 262.113 297.579,261.908 297.826,261.773 298.243 M245.371 302.243 C 245.030 303.286,243.593 307.225,243.197 308.200 C 242.531 309.841,242.414 310.439,242.805 310.197 C 243.022 310.063,243.200 309.691,243.200 309.371 C 243.200 309.051,243.367 308.477,243.570 308.095 C 244.360 306.614,246.025 301.892,245.827 301.694 C 245.713 301.579,245.508 301.826,245.371 302.243 M241.883 311.484 C 241.763 311.878,241.473 312.818,241.239 313.573 C 241.005 314.328,240.954 314.778,241.125 314.573 C 241.587 314.019,242.503 311.169,242.288 310.954 C 242.185 310.852,242.003 311.090,241.883 311.484 M255.080 316.080 C 254.476 317.639,254.071 319.004,254.181 319.114 C 254.291 319.224,254.492 318.974,254.627 318.557 C 254.762 318.141,255.018 317.440,255.196 317.000 C 256.128 314.695,256.491 313.558,256.343 313.410 C 256.253 313.320,255.684 314.521,255.080 316.080 M252.257 323.657 C 251.436 325.879,250.830 327.764,250.913 327.846 C 250.995 327.928,251.735 326.178,252.557 323.957 C 253.380 321.736,253.985 319.851,253.902 319.768 C 253.819 319.686,253.079 321.435,252.257 323.657 M235.400 328.800 C 235.250 329.273,235.217 329.750,235.327 329.860 C 235.437 329.970,235.650 329.673,235.800 329.200 C 235.950 328.727,235.983 328.250,235.873 328.140 C 235.763 328.030,235.550 328.327,235.400 328.800 M233.000 335.200 C 232.850 335.673,232.817 336.150,232.927 336.260 C 233.037 336.370,233.250 336.073,233.400 335.600 C 233.550 335.127,233.583 334.650,233.473 334.540 C 233.363 334.430,233.150 334.727,233.000 335.200 M220.501 337.800 C 220.505 338.680,220.587 338.993,220.683 338.495 C 220.779 337.998,220.775 337.278,220.675 336.895 C 220.575 336.513,220.496 336.920,220.501 337.800 M231.858 338.504 C 230.928 340.940,231.080 341.404,232.036 339.047 C 232.472 337.973,232.758 337.024,232.672 336.938 C 232.586 336.852,232.220 337.557,231.858 338.504 M219.511 341.226 C 219.140 341.872,218.978 342.400,219.151 342.400 C 219.533 342.400,220.605 340.472,220.360 340.226 C 220.264 340.130,219.882 340.580,219.511 341.226 M230.551 341.900 C 230.428 342.285,230.182 342.960,230.004 343.400 C 229.826 343.840,229.464 344.830,229.200 345.600 C 228.936 346.370,228.565 347.360,228.376 347.800 C 225.983 353.383,229.120 358.897,234.600 358.740 L 236.600 358.682 234.400 358.429 C 228.849 357.789,226.434 353.221,228.779 347.800 C 229.382 346.408,230.482 343.442,230.819 342.300 C 231.170 341.113,230.921 340.742,230.551 341.900 M242.658 349.304 C 241.728 351.740,241.880 352.204,242.836 349.847 C 243.272 348.773,243.558 347.824,243.472 347.738 C 243.386 347.652,243.020 348.357,242.658 349.304 M241.356 352.700 C 240.681 354.858,238.666 357.600,237.754 357.600 C 237.475 357.600,237.137 357.778,237.003 357.995 C 236.560 358.712,238.165 357.915,239.328 356.841 C 240.356 355.892,241.132 354.562,241.745 352.700 C 241.871 352.315,241.885 352.000,241.775 352.000 C 241.665 352.000,241.476 352.315,241.356 352.700 " stroke="none" fill="#f6b8ac" fill-rule="evenodd"></path><path id="path4" d="M153.900 68.700 C 177.935 68.757,217.265 68.757,241.300 68.700 C 265.335 68.643,245.670 68.596,197.600 68.596 C 149.530 68.596,129.865 68.643,153.900 68.700 M293.008 73.300 C 293.867 74.345,294.634 75.200,294.712 75.200 C 294.998 75.200,293.261 72.978,292.366 72.200 C 291.860 71.760,292.149 72.255,293.008 73.300 M296.600 130.977 C 296.600 159.217,296.732 182.116,296.894 181.862 C 297.263 181.281,297.242 81.247,296.872 80.315 C 296.722 79.938,296.600 102.736,296.600 130.977 M26.700 97.082 C 27.195 97.178,28.005 97.178,28.500 97.082 C 28.995 96.987,28.590 96.909,27.600 96.909 C 26.610 96.909,26.205 96.987,26.700 97.082 M75.100 97.082 C 75.595 97.178,76.405 97.178,76.900 97.082 C 77.395 96.987,76.990 96.909,76.000 96.909 C 75.010 96.909,74.605 96.987,75.100 97.082 M206.105 97.087 C 206.714 97.179,207.614 97.177,208.105 97.082 C 208.597 96.987,208.100 96.911,207.000 96.914 C 205.900 96.917,205.497 96.995,206.105 97.087 M233.500 97.082 C 233.995 97.178,234.805 97.178,235.300 97.082 C 235.795 96.987,235.390 96.909,234.400 96.909 C 233.410 96.909,233.005 96.987,233.500 97.082 M154.487 98.300 C 153.530 99.235,153.514 99.281,154.381 98.606 C 156.088 97.276,156.169 97.200,155.886 97.200 C 155.736 97.200,155.106 97.695,154.487 98.300 M161.400 97.452 C 161.620 97.645,162.520 98.432,163.399 99.201 L 164.998 100.600 163.799 99.266 C 163.140 98.532,162.240 97.745,161.800 97.517 C 161.360 97.289,161.180 97.260,161.400 97.452 M34.181 116.200 C 34.180 124.120,34.234 127.417,34.299 123.526 C 34.365 119.635,34.365 113.155,34.300 109.126 C 34.234 105.097,34.181 108.280,34.181 116.200 M82.497 130.867 C 82.444 146.634,82.296 159.864,82.170 160.267 C 81.963 160.925,81.984 160.932,82.372 160.331 C 82.675 159.863,82.774 151.028,82.700 130.931 L 82.595 102.200 82.497 130.867 M68.980 117.000 C 68.980 124.700,69.034 127.793,69.099 123.874 C 69.165 119.955,69.165 113.655,69.099 109.874 C 69.034 106.093,68.980 109.300,68.980 117.000 M151.789 131.000 C 151.789 146.400,151.839 152.642,151.900 144.871 C 151.961 137.100,151.961 124.500,151.900 116.871 C 151.839 109.242,151.789 115.600,151.789 131.000 M213.789 131.000 C 213.789 146.400,213.839 152.642,213.900 144.871 C 213.961 137.100,213.961 124.500,213.900 116.871 C 213.839 109.242,213.789 115.600,213.789 131.000 M166.760 104.200 C 167.434 105.505,167.988 106.228,167.985 105.800 C 167.983 105.580,167.614 104.950,167.164 104.400 C 166.621 103.736,166.485 103.669,166.760 104.200 M169.149 108.200 C 169.365 108.640,169.834 109.360,170.193 109.800 L 170.844 110.600 170.451 109.800 C 170.235 109.360,169.766 108.640,169.407 108.200 L 168.756 107.400 169.149 108.200 M99.700 110.298 C 101.625 110.371,104.775 110.371,106.700 110.298 C 108.625 110.225,107.050 110.165,103.200 110.165 C 99.350 110.165,97.775 110.225,99.700 110.298 M124.261 110.300 C 124.158 110.465,126.172 110.553,128.737 110.495 C 137.340 110.302,138.252 110.155,131.324 110.077 C 127.542 110.035,124.363 110.135,124.261 110.300 M186.614 123.835 C 186.241 124.404,186.005 124.938,186.089 125.022 C 186.173 125.107,186.558 124.641,186.944 123.988 C 187.806 122.528,187.548 122.409,186.614 123.835 M184.016 128.174 C 183.549 128.929,182.859 129.629,182.484 129.727 C 181.855 129.893,181.854 129.911,182.473 129.954 C 183.057 129.994,183.953 129.038,184.958 127.300 C 185.627 126.143,184.793 126.917,184.016 128.174 M165.381 144.600 C 165.381 152.960,165.434 156.437,165.499 152.326 C 165.564 148.216,165.564 141.376,165.500 137.126 C 165.435 132.877,165.382 136.240,165.381 144.600 M200.181 144.600 C 200.181 152.960,200.234 156.437,200.299 152.326 C 200.364 148.216,200.364 141.376,200.300 137.126 C 200.235 132.877,200.182 136.240,200.181 144.600 M167.149 131.000 C 167.365 131.440,167.834 132.160,168.193 132.600 L 168.844 133.400 168.451 132.600 C 168.235 132.160,167.766 131.440,167.407 131.000 L 166.756 130.200 167.149 131.000 M43.700 131.500 C 48.265 131.564,55.735 131.564,60.300 131.500 C 64.865 131.435,61.130 131.383,52.000 131.383 C 42.870 131.383,39.135 131.435,43.700 131.500 M34.661 144.700 C 34.493 144.973,47.742 144.967,63.000 144.687 C 66.300 144.627,61.316 144.538,51.924 144.489 C 42.532 144.440,34.764 144.535,34.661 144.700 M180.500 144.696 C 181.765 144.775,183.835 144.775,185.100 144.696 C 186.365 144.616,185.330 144.551,182.800 144.551 C 180.270 144.551,179.235 144.616,180.500 144.696 M68.965 152.000 C 68.965 155.850,69.025 157.425,69.098 155.500 C 69.171 153.575,69.171 150.425,69.098 148.500 C 69.025 146.575,68.965 148.150,68.965 152.000 M34.167 153.000 C 34.167 157.180,34.226 158.836,34.298 156.679 C 34.371 154.523,34.370 151.103,34.298 149.079 C 34.225 147.056,34.166 148.820,34.167 153.000 M241.545 151.705 C 241.713 151.873,248.049 151.963,255.625 151.905 L 269.400 151.799 255.320 151.600 C 247.575 151.490,241.377 151.537,241.545 151.705 M200.802 161.433 C 200.803 161.635,201.268 162.340,201.835 163.000 L 202.866 164.200 201.963 162.800 C 200.804 161.004,200.800 160.999,200.802 161.433 M74.400 165.194 C 74.730 165.411,75.435 165.591,75.967 165.594 C 77.251 165.602,76.925 165.375,75.200 165.058 C 74.215 164.877,73.978 164.918,74.400 165.194 M157.000 165.181 C 157.768 165.529,159.910 165.756,159.567 165.453 C 159.475 165.372,158.680 165.196,157.800 165.062 C 156.685 164.893,156.442 164.929,157.000 165.181 M207.000 165.200 C 205.893 165.482,205.877 165.509,206.800 165.547 C 207.350 165.569,208.070 165.413,208.400 165.200 C 209.081 164.760,208.729 164.760,207.000 165.200 M251.800 165.200 L 233.400 165.412 251.600 165.500 C 262.828 165.554,270.030 165.439,270.400 165.200 C 270.730 164.987,270.820 164.852,270.600 164.900 C 270.380 164.948,261.920 165.083,251.800 165.200 M110.262 193.500 C 110.094 193.771,169.039 193.770,252.200 193.497 C 269.360 193.441,244.486 193.351,196.924 193.298 C 149.362 193.244,110.364 193.335,110.262 193.500 M275.100 234.282 C 275.595 234.378,276.405 234.378,276.900 234.282 C 277.395 234.187,276.990 234.109,276.000 234.109 C 275.010 234.109,274.605 234.187,275.100 234.282 M280.461 236.089 C 282.281 237.805,282.906 239.462,282.718 242.068 C 282.625 243.354,282.692 244.180,282.868 243.904 C 284.067 242.015,282.412 236.660,280.287 235.552 C 279.529 235.156,279.554 235.234,280.461 236.089 M266.987 243.800 C 266.884 244.130,266.712 244.679,266.605 245.021 C 266.497 245.362,266.566 245.545,266.757 245.427 C 266.948 245.309,267.191 244.759,267.297 244.206 C 267.506 243.113,267.290 242.830,266.987 243.800 M265.477 247.877 C 265.100 248.893,264.858 249.791,264.938 249.872 C 265.019 249.952,265.400 249.193,265.785 248.185 C 266.170 247.176,266.412 246.279,266.323 246.190 C 266.235 246.101,265.854 246.860,265.477 247.877 M293.424 248.613 C 292.996 248.936,292.825 249.200,293.044 249.200 C 293.262 249.200,293.611 249.034,293.820 248.831 C 294.029 248.628,294.740 248.385,295.400 248.291 L 296.600 248.120 295.400 248.073 C 294.740 248.047,293.851 248.290,293.424 248.613 M210.200 248.858 C 208.798 249.620,166.773 291.750,166.168 293.000 C 165.850 293.660,165.815 293.840,166.091 293.400 C 166.778 292.305,209.600 249.511,210.600 248.920 C 211.607 248.325,211.277 248.274,210.200 248.858 M300.200 249.048 C 300.420 249.256,302.490 251.216,304.800 253.405 L 309.000 257.384 305.600 253.863 C 303.730 251.927,301.660 249.966,301.000 249.506 C 300.340 249.047,299.980 248.840,300.200 249.048 M220.567 255.200 C 220.567 257.810,220.614 258.005,220.923 256.700 C 221.132 255.823,221.132 254.577,220.923 253.700 C 220.614 252.395,220.567 252.590,220.567 255.200 M201.016 277.984 C 190.906 288.095,182.717 296.420,182.817 296.484 C 182.918 296.548,191.278 288.275,201.395 278.100 C 211.513 267.925,219.702 259.600,219.594 259.600 C 219.485 259.600,211.125 267.873,201.016 277.984 M309.202 278.200 C 319.211 288.320,327.482 296.548,327.583 296.484 C 327.684 296.420,319.495 288.140,309.385 278.084 L 291.004 259.800 309.202 278.200 M318.200 266.800 C 321.935 270.540,325.081 273.600,325.191 273.600 C 325.301 273.600,322.335 270.540,318.600 266.800 C 314.865 263.060,311.719 260.000,311.609 260.000 C 311.499 260.000,314.465 263.060,318.200 266.800 M335.000 283.600 C 338.515 287.120,341.481 290.000,341.591 290.000 C 341.701 290.000,338.915 287.120,335.400 283.600 C 331.885 280.080,328.919 277.200,328.809 277.200 C 328.699 277.200,331.485 280.080,335.000 283.600 M165.324 296.600 C 165.326 297.920,165.401 298.412,165.490 297.693 C 165.579 296.974,165.577 295.894,165.486 295.293 C 165.395 294.692,165.322 295.280,165.324 296.600 M344.900 296.631 C 344.900 297.552,344.961 297.613,345.291 297.022 C 345.547 296.566,345.547 296.187,345.291 295.931 C 345.036 295.676,344.900 295.920,344.900 296.631 M201.200 315.400 C 211.208 325.410,219.487 333.600,219.597 333.600 C 219.707 333.600,211.608 325.410,201.600 315.400 C 191.592 305.390,183.313 297.200,183.203 297.200 C 183.093 297.200,191.192 305.390,201.200 315.400 M320.727 303.366 C 318.652 305.437,316.706 307.462,316.403 307.866 C 316.099 308.270,317.864 306.623,320.325 304.207 C 322.786 301.791,324.800 299.766,324.800 299.707 C 324.800 299.366,324.135 299.963,320.727 303.366 M169.200 303.800 C 170.617 305.230,171.867 306.400,171.977 306.400 C 172.087 306.400,171.017 305.230,169.600 303.800 C 168.183 302.370,166.933 301.200,166.823 301.200 C 166.713 301.200,167.783 302.370,169.200 303.800 M322.199 322.500 L 301.400 343.400 322.300 322.601 C 333.795 311.162,343.200 301.757,343.200 301.701 C 343.200 301.420,341.531 303.073,322.199 322.500 M183.400 318.000 C 186.033 320.640,188.277 322.800,188.387 322.800 C 188.497 322.800,186.433 320.640,183.800 318.000 C 181.167 315.360,178.923 313.200,178.813 313.200 C 178.703 313.200,180.767 315.360,183.400 318.000 M304.374 319.728 C 302.299 321.779,300.341 323.804,300.025 324.228 C 299.709 324.653,301.464 323.023,303.925 320.607 C 306.386 318.191,308.400 316.166,308.400 316.107 C 308.400 315.801,307.843 316.302,304.374 319.728 M252.444 324.044 C 252.198 324.751,252.066 325.400,252.152 325.485 C 252.238 325.571,252.509 325.062,252.756 324.356 C 253.002 323.649,253.134 323.000,253.048 322.915 C 252.962 322.829,252.691 323.338,252.444 324.044 M234.491 330.500 C 233.810 332.384,233.904 332.894,234.626 331.230 C 234.953 330.477,235.166 329.699,235.101 329.502 C 235.035 329.305,234.760 329.754,234.491 330.500 M200.600 335.200 C 203.233 337.840,205.477 340.000,205.587 340.000 C 205.697 340.000,203.633 337.840,201.000 335.200 C 198.367 332.560,196.123 330.400,196.013 330.400 C 195.903 330.400,197.967 332.560,200.600 335.200 M231.877 337.477 C 231.500 338.493,231.258 339.391,231.338 339.472 C 231.419 339.552,231.800 338.793,232.185 337.785 C 232.570 336.776,232.812 335.879,232.723 335.790 C 232.635 335.701,232.254 336.460,231.877 337.477 M220.655 338.655 C 220.513 339.686,220.474 340.608,220.569 340.702 C 220.663 340.796,220.865 340.039,221.018 339.018 C 221.171 337.998,221.210 337.076,221.104 336.971 C 220.998 336.865,220.796 337.623,220.655 338.655 M213.031 345.250 C 213.150 345.443,213.496 345.600,213.800 345.600 C 214.104 345.600,214.450 345.443,214.569 345.250 C 214.688 345.058,214.342 344.900,213.800 344.900 C 213.258 344.900,212.912 345.058,213.031 345.250 M295.931 345.291 C 296.187 345.547,296.566 345.547,297.022 345.291 C 297.613 344.961,297.552 344.900,296.631 344.900 C 295.920 344.900,295.676 345.036,295.931 345.291 M239.375 356.900 L 238.200 358.200 239.500 357.025 C 240.712 355.930,240.984 355.600,240.675 355.600 C 240.606 355.600,240.021 356.185,239.375 356.900 " stroke="none" fill="#f2cfd0" fill-rule="evenodd"></path></g></svg>