<svg id="svg" version="1.1" xmlns="http://www.w3.org/2000/svg" xmlns:xlink="http://www.w3.org/1999/xlink" width="400" height="400" viewBox="0, 0, 400,400"><g id="svgg"><path id="path0" d="M143.000 86.197 C 142.780 86.271,141.520 86.652,140.200 87.044 C 137.815 87.753,134.436 89.506,133.336 90.607 C 133.019 90.923,132.538 91.321,132.265 91.491 C 130.717 92.457,127.688 97.125,126.354 100.600 C 125.401 103.085,125.200 106.773,125.200 121.760 C 125.200 138.383,125.158 138.885,123.466 142.399 C 121.657 146.158,116.171 150.000,112.615 150.000 C 107.518 150.000,104.000 152.933,104.000 157.182 C 104.000 160.671,107.114 164.000,110.377 164.000 C 114.930 164.000,119.913 166.585,122.440 170.258 C 125.014 174.000,124.976 173.687,125.213 193.200 C 125.477 214.971,125.755 216.220,131.611 222.000 C 140.506 230.778,153.995 230.020,153.109 220.791 C 152.784 217.412,150.529 215.202,146.800 214.608 C 143.998 214.161,141.819 213.034,140.557 211.379 L 139.400 209.864 139.153 192.232 C 138.879 172.640,138.809 172.055,136.064 166.400 C 134.717 163.623,132.055 159.890,130.327 158.353 C 129.250 157.394,129.425 156.733,131.220 154.981 C 137.821 148.540,139.197 142.635,139.199 120.750 C 139.199 112.913,139.319 105.903,139.465 105.174 C 139.793 103.536,142.718 100.513,144.276 100.204 C 149.846 99.099,151.393 98.287,152.544 95.862 C 155.189 90.288,149.125 84.147,143.000 86.197 M243.391 86.834 C 236.663 90.327,239.792 100.000,247.651 100.000 C 249.755 100.000,252.280 102.292,253.378 105.200 C 253.585 105.750,253.859 114.120,253.985 123.800 C 254.223 141.970,254.323 143.065,256.013 146.095 C 256.226 146.477,256.400 146.950,256.400 147.146 C 256.400 147.854,259.206 152.142,261.083 154.302 C 263.773 157.398,263.752 157.211,261.634 159.414 C 259.849 161.270,256.400 166.431,256.400 167.246 C 256.400 167.447,256.226 167.923,256.013 168.305 C 254.311 171.356,254.215 172.410,253.981 190.600 C 253.857 200.280,253.603 208.650,253.417 209.200 C 252.431 212.113,250.194 213.870,246.714 214.465 C 239.303 215.731,237.079 223.126,242.868 227.249 C 244.210 228.204,250.356 228.466,251.890 227.634 C 252.281 227.422,253.050 227.155,253.600 227.041 C 256.521 226.436,261.754 222.272,264.131 218.661 C 267.293 213.856,267.282 213.935,267.605 193.600 C 267.827 179.606,268.022 175.076,268.447 173.999 C 270.745 168.177,275.343 164.722,281.600 164.119 C 286.005 163.694,288.890 160.951,288.861 157.216 C 288.828 152.865,286.473 150.832,280.528 150.022 C 275.353 149.316,271.287 146.331,269.058 141.600 L 267.833 139.000 267.572 120.800 C 267.291 101.275,267.305 101.405,265.053 97.200 C 261.606 90.762,255.016 86.542,247.800 86.151 C 245.539 86.028,244.690 86.160,243.391 86.834 M194.800 122.037 C 191.122 122.523,188.555 124.438,186.988 127.864 C 182.521 137.630,194.041 146.890,202.652 140.455 C 211.365 133.944,205.677 120.600,194.800 122.037 M191.824 173.755 C 189.566 176.013,189.500 176.542,189.669 191.217 L 189.800 202.634 190.800 203.900 C 194.034 207.994,200.419 207.539,202.544 203.062 C 203.634 200.765,203.517 177.699,202.403 175.426 C 200.466 171.470,194.976 170.603,191.824 173.755 M46.497 279.131 C 45.922 279.497,46.010 388.096,46.588 390.971 C 46.923 392.634,48.660 395.854,49.999 397.291 C 50.439 397.764,50.800 398.297,50.800 398.475 C 50.800 398.654,51.070 398.800,51.400 398.800 C 51.730 398.800,52.000 399.069,52.000 399.397 C 52.000 400.219,347.626 400.122,347.900 399.300 C 347.992 399.025,348.322 398.800,348.633 398.800 C 348.945 398.800,349.200 398.647,349.200 398.459 C 349.200 398.272,349.695 397.597,350.300 396.959 C 351.653 395.533,352.979 392.824,353.561 390.294 C 354.351 386.864,354.164 279.348,353.367 279.043 C 352.410 278.676,47.076 278.764,46.497 279.131 M185.909 335.000 C 186.018 364.866,186.015 365.011,185.155 367.400 C 182.280 375.388,175.537 379.153,164.046 379.186 C 161.322 379.194,158.352 379.006,157.446 378.768 C 156.541 378.531,155.080 378.147,154.200 377.915 C 147.568 376.166,142.000 373.537,142.000 372.155 C 142.000 371.830,142.900 370.230,144.000 368.600 C 145.100 366.970,146.000 365.448,146.000 365.218 C 146.000 364.545,147.716 364.736,149.526 365.610 C 157.034 369.237,167.578 369.459,171.341 366.069 C 173.465 364.156,173.392 365.212,173.498 334.800 C 173.552 319.290,173.691 306.190,173.808 305.689 C 174.019 304.786,174.070 304.780,179.910 304.889 L 185.800 305.000 185.909 335.000 M231.280 305.608 C 237.339 306.773,239.593 307.519,240.952 308.809 C 241.296 309.136,237.900 316.508,236.956 317.485 C 236.590 317.863,236.132 317.798,234.863 317.185 C 225.348 312.588,213.527 317.967,214.530 326.438 C 215.054 330.864,217.693 333.264,227.219 337.975 C 235.652 342.145,241.600 346.625,241.600 348.805 C 241.600 349.022,241.780 349.200,242.000 349.200 C 242.220 349.200,242.400 349.436,242.400 349.725 C 242.400 350.014,242.788 351.049,243.261 352.025 C 244.323 354.214,244.565 362.036,243.644 364.400 C 242.443 367.482,242.193 368.000,241.902 368.000 C 241.736 368.000,241.600 368.205,241.600 368.456 C 241.600 369.335,238.582 372.874,236.600 374.320 C 231.348 378.152,227.107 379.349,219.767 379.070 C 211.606 378.759,208.301 377.893,203.255 374.741 C 201.595 373.705,203.292 365.600,205.169 365.600 C 205.758 365.600,206.411 365.764,206.620 365.964 C 207.784 367.077,215.175 368.873,219.474 369.087 C 228.377 369.529,232.800 366.239,232.800 359.173 C 232.800 354.218,230.480 351.768,221.187 346.905 C 210.944 341.546,206.622 338.021,204.332 333.157 C 201.075 326.238,202.924 316.473,208.460 311.363 C 211.691 308.382,214.336 307.023,219.600 305.640 C 221.531 305.133,228.708 305.113,231.280 305.608 " stroke="none" fill="#ecac4c" fill-rule="evenodd"></path><path id="path1" d="M51.987 0.533 C 49.585 1.788,47.610 4.480,46.656 7.800 C 46.010 10.048,45.961 18.681,45.883 144.200 L 45.800 278.200 199.900 278.099 L 354.000 277.998 354.051 185.699 C 354.079 134.935,354.164 92.950,354.239 92.400 C 354.412 91.133,353.615 86.457,353.180 86.188 C 353.000 86.077,333.762 85.990,310.428 85.996 L 268.004 86.007 267.902 43.104 L 267.800 0.200 160.400 0.102 C 71.967 0.021,52.821 0.098,51.987 0.533 M150.501 86.484 C 156.073 90.389,153.969 100.366,147.565 100.406 C 144.964 100.422,142.343 101.778,140.884 103.862 C 140.010 105.109,140.000 105.297,140.000 120.145 C 140.000 142.659,138.863 147.577,131.850 155.400 C 130.071 157.384,130.051 157.147,132.179 159.400 C 138.820 166.430,139.952 171.523,139.981 194.500 C 139.991 203.025,140.141 210.000,140.314 210.000 C 140.486 210.000,140.946 210.540,141.336 211.200 C 141.726 211.860,142.305 212.400,142.623 212.400 C 142.940 212.400,143.200 212.543,143.200 212.717 C 143.200 213.079,146.391 214.000,147.645 214.000 C 151.402 214.000,154.553 218.745,153.791 223.255 C 153.218 226.648,148.563 229.674,144.880 229.049 C 144.066 228.910,142.770 228.695,142.000 228.571 C 141.230 228.447,140.240 228.201,139.800 228.023 C 137.856 227.241,134.988 225.774,134.867 225.500 C 134.793 225.335,134.523 225.200,134.266 225.200 C 132.625 225.200,126.400 217.415,126.400 215.362 C 126.400 215.053,126.220 214.800,126.000 214.800 C 125.780 214.800,125.600 214.296,125.600 213.680 C 125.600 213.064,125.424 212.384,125.208 212.168 C 124.970 211.930,124.756 205.046,124.661 194.588 C 124.509 177.952,124.313 174.240,123.558 173.774 C 123.361 173.652,123.200 173.203,123.200 172.776 C 123.200 172.349,123.020 172.000,122.800 172.000 C 122.580 172.000,122.400 171.763,122.400 171.474 C 122.400 170.678,119.051 167.500,117.323 166.656 C 116.486 166.246,115.487 165.751,115.105 165.556 C 114.723 165.360,113.871 165.200,113.211 165.200 C 104.355 165.200,99.996 157.201,105.774 151.551 C 107.049 150.305,108.146 149.927,112.597 149.201 C 118.475 148.241,123.083 143.965,124.233 138.400 C 124.392 137.630,124.591 129.263,124.674 119.807 C 124.765 109.465,124.979 102.461,125.213 102.227 C 125.426 102.014,125.597 101.471,125.594 101.020 C 125.576 98.522,132.654 88.800,134.491 88.800 C 134.703 88.800,135.354 88.461,135.938 88.047 C 139.590 85.459,147.783 84.579,150.501 86.484 M252.200 86.072 C 254.089 86.582,257.793 88.262,258.502 88.930 C 258.776 89.189,259.691 89.917,260.536 90.548 C 262.173 91.771,265.241 95.688,266.179 97.752 C 268.217 102.236,268.186 101.913,268.399 121.000 L 268.600 139.000 269.668 141.279 C 271.871 145.977,275.383 148.438,281.239 149.385 C 290.033 150.807,292.854 158.810,286.200 163.455 C 285.030 164.272,284.332 164.472,280.200 165.177 C 274.997 166.065,271.877 168.395,269.723 173.000 L 268.600 175.400 268.399 193.400 C 268.188 212.304,268.183 212.356,266.292 216.400 C 264.775 219.644,260.595 224.359,258.140 225.597 C 257.513 225.913,256.522 226.493,255.938 226.886 C 255.354 227.279,254.510 227.600,254.062 227.600 C 253.614 227.600,253.148 227.761,253.026 227.958 C 252.605 228.639,245.395 229.439,245.028 228.845 C 244.877 228.600,244.313 228.400,243.776 228.400 C 243.239 228.400,242.800 228.263,242.800 228.095 C 242.800 227.927,242.395 227.612,241.900 227.395 C 241.405 227.178,240.822 226.595,240.605 226.100 C 240.388 225.605,240.073 225.200,239.905 225.200 C 239.737 225.200,239.600 224.851,239.600 224.424 C 239.600 223.997,239.420 223.536,239.200 223.400 C 238.980 223.264,238.800 222.364,238.800 221.400 C 238.800 220.436,238.980 219.536,239.200 219.400 C 239.420 219.264,239.600 218.803,239.600 218.376 C 239.600 217.949,239.780 217.600,240.000 217.600 C 240.220 217.600,240.400 217.407,240.400 217.171 C 240.400 216.192,243.880 214.000,245.434 214.000 C 246.358 214.000,248.487 213.382,249.887 212.706 C 250.375 212.471,251.222 211.602,251.770 210.774 L 252.766 209.269 252.941 193.135 C 253.124 176.325,253.622 170.128,254.848 169.370 C 255.041 169.251,255.200 168.809,255.200 168.389 C 255.200 167.610,256.288 165.454,257.647 163.538 C 258.061 162.954,258.400 162.367,258.400 162.233 C 258.400 162.100,259.298 161.048,260.396 159.895 C 262.741 157.434,262.789 157.161,261.173 155.478 C 258.736 152.940,255.200 147.336,255.200 146.011 C 255.200 145.591,255.041 145.149,254.848 145.030 C 253.623 144.272,253.125 138.076,252.948 121.400 C 252.764 104.016,252.714 103.618,250.491 102.094 C 249.311 101.284,246.600 100.400,245.299 100.400 C 242.499 100.400,238.800 96.194,238.800 93.011 C 238.800 90.249,241.496 86.294,243.699 85.823 C 244.195 85.718,244.960 85.557,245.400 85.466 C 246.548 85.230,250.328 85.567,252.200 86.072 M199.081 121.256 C 202.311 122.573,203.108 123.064,204.683 124.708 C 205.627 125.694,206.400 126.802,206.400 127.170 C 206.400 127.539,206.604 128.044,206.853 128.293 C 207.721 129.161,207.446 134.864,206.431 137.023 C 205.463 139.083,203.496 141.141,201.689 141.985 C 201.090 142.264,200.287 142.652,199.905 142.847 C 198.951 143.332,193.305 143.294,193.000 142.800 C 192.864 142.580,192.403 142.400,191.976 142.400 C 191.549 142.400,191.200 142.220,191.200 142.000 C 191.200 141.780,190.948 141.600,190.640 141.600 C 186.926 141.600,184.055 131.959,186.407 127.386 C 188.008 124.273,189.512 122.996,193.600 121.275 C 194.950 120.707,197.711 120.698,199.081 121.256 M198.372 171.280 C 203.715 173.075,204.069 174.264,203.921 189.900 C 203.764 206.428,203.156 207.575,194.720 207.256 C 192.915 207.188,190.038 204.603,189.283 202.372 C 188.669 200.556,188.593 176.975,189.200 176.600 C 189.420 176.464,189.600 176.003,189.600 175.576 C 189.600 175.149,189.780 174.800,190.000 174.800 C 190.220 174.800,190.400 174.522,190.400 174.181 C 190.400 173.841,190.939 173.256,191.597 172.881 C 192.256 172.507,192.796 172.065,192.797 171.900 C 192.799 171.735,193.239 171.600,193.776 171.600 C 194.313 171.600,194.864 171.420,195.000 171.200 C 195.331 170.664,196.632 170.695,198.372 171.280 M220.800 306.000 C 219.396 306.450,220.863 306.465,223.000 306.023 L 224.600 305.692 223.200 305.686 C 222.430 305.683,221.350 305.824,220.800 306.000 M225.233 305.748 C 225.325 305.829,226.750 305.996,228.400 306.118 C 230.231 306.253,230.932 306.214,230.200 306.017 C 228.992 305.693,224.923 305.472,225.233 305.748 M208.473 312.080 C 207.347 313.223,206.481 314.215,206.549 314.282 C 206.617 314.350,207.664 313.414,208.875 312.203 C 210.087 310.991,210.953 310.000,210.799 310.000 C 210.646 310.000,209.599 310.936,208.473 312.080 M222.880 315.140 C 222.374 315.283,224.434 315.400,227.459 315.400 C 230.484 315.400,232.428 315.286,231.780 315.147 C 230.225 314.814,224.050 314.809,222.880 315.140 M233.400 315.899 C 234.335 316.771,236.432 317.328,236.922 316.834 C 237.293 316.460,237.261 316.405,236.779 316.589 C 236.437 316.719,235.447 316.533,234.579 316.175 C 233.710 315.818,233.180 315.694,233.400 315.899 M217.800 317.600 C 216.969 318.260,216.450 318.793,216.645 318.784 C 217.036 318.766,219.909 316.400,219.540 316.400 C 219.413 316.400,218.631 316.940,217.800 317.600 M215.014 320.693 C 214.456 321.514,214.011 322.459,214.025 322.793 C 214.039 323.130,214.218 322.982,214.428 322.458 C 214.635 321.940,215.176 320.995,215.630 320.358 C 216.083 319.721,216.359 319.200,216.242 319.200 C 216.125 319.200,215.572 319.872,215.014 320.693 M203.452 321.300 C 203.129 322.506,203.186 328.823,203.528 329.685 C 203.678 330.062,203.800 328.127,203.800 325.385 C 203.800 319.956,203.803 319.991,203.452 321.300 M216.404 332.145 C 217.909 333.874,224.170 337.963,224.621 337.512 C 224.702 337.431,224.101 337.019,223.284 336.597 C 221.071 335.452,218.377 333.641,216.804 332.242 C 215.456 331.043,215.442 331.039,216.404 332.145 M205.273 334.200 C 205.523 334.750,205.884 335.200,206.073 335.200 C 206.263 335.200,206.124 334.750,205.763 334.200 C 205.403 333.650,205.043 333.200,204.963 333.200 C 204.883 333.200,205.022 333.650,205.273 334.200 M206.991 336.447 C 207.613 337.477,211.291 340.800,211.810 340.800 C 211.956 340.800,211.294 340.150,210.338 339.355 C 209.382 338.560,208.096 337.345,207.479 336.655 C 206.533 335.595,206.457 335.563,206.991 336.447 M213.194 341.982 C 213.741 342.402,214.268 342.666,214.365 342.569 C 214.591 342.342,213.129 341.227,212.600 341.222 C 212.380 341.220,212.647 341.561,213.194 341.982 M236.800 344.039 C 236.800 344.138,237.822 345.294,239.072 346.609 C 240.492 348.103,240.882 348.400,240.112 347.400 C 238.893 345.818,236.800 343.694,236.800 344.039 M229.233 351.300 C 229.325 351.355,229.940 351.850,230.600 352.400 L 231.800 353.400 230.830 352.300 C 230.297 351.695,229.682 351.200,229.464 351.200 C 229.245 351.200,229.142 351.245,229.233 351.300 M233.293 360.400 C 233.293 361.170,233.375 361.485,233.476 361.100 C 233.576 360.715,233.576 360.085,233.476 359.700 C 233.375 359.315,233.293 359.630,233.293 360.400 M174.046 361.267 C 174.021 361.634,173.896 362.264,173.770 362.667 C 173.552 363.362,173.563 363.363,173.997 362.687 C 174.248 362.296,174.373 361.666,174.273 361.287 C 174.111 360.668,174.088 360.666,174.046 361.267 M185.293 362.800 C 185.293 363.570,185.375 363.885,185.476 363.500 C 185.576 363.115,185.576 362.485,185.476 362.100 C 185.375 361.715,185.293 362.030,185.293 362.800 M184.730 365.600 C 184.594 366.370,184.365 367.450,184.220 368.000 C 184.065 368.588,184.220 368.428,184.596 367.611 C 184.948 366.847,185.178 365.767,185.106 365.211 C 184.994 364.342,184.942 364.396,184.730 365.600 M231.596 365.297 C 230.426 367.056,230.336 367.382,231.346 366.200 C 232.237 365.157,232.637 364.400,232.296 364.400 C 232.239 364.400,231.924 364.804,231.596 365.297 M205.448 366.393 C 205.890 366.816,212.050 368.883,212.256 368.677 C 212.339 368.594,210.763 367.970,208.752 367.291 C 206.741 366.612,205.254 366.208,205.448 366.393 M169.501 367.565 C 167.424 368.535,167.046 369.031,169.000 368.221 C 169.880 367.857,170.771 367.388,170.980 367.179 C 171.480 366.680,171.287 366.731,169.501 367.565 M144.824 368.118 C 144.523 368.603,144.015 369.405,143.693 369.900 C 143.371 370.395,143.195 370.800,143.301 370.800 C 143.583 370.800,145.686 367.553,145.515 367.381 C 145.435 367.302,145.124 367.633,144.824 368.118 M154.433 368.143 C 154.525 368.221,155.230 368.401,156.000 368.542 C 156.985 368.723,157.222 368.682,156.800 368.406 C 156.258 368.050,154.037 367.803,154.433 368.143 M160.100 369.220 C 161.365 369.371,163.435 369.371,164.700 369.220 C 166.517 369.003,166.033 368.945,162.400 368.945 C 158.767 368.945,158.283 369.003,160.100 369.220 M214.000 369.200 C 215.368 369.638,216.419 369.638,215.400 369.200 C 214.960 369.011,214.240 368.862,213.800 368.868 C 213.157 368.877,213.196 368.943,214.000 369.200 M182.485 371.000 C 181.787 371.990,181.349 372.800,181.512 372.800 C 181.675 372.800,182.058 372.395,182.365 371.900 C 182.671 371.405,183.185 370.595,183.507 370.100 C 184.566 368.470,183.781 369.162,182.485 371.000 M203.449 369.815 C 203.312 370.173,203.218 370.856,203.241 371.333 C 203.267 371.881,203.403 371.686,203.610 370.803 C 203.960 369.316,203.865 368.733,203.449 369.815 M218.700 369.895 C 219.855 369.976,221.745 369.976,222.900 369.895 C 224.055 369.814,223.110 369.748,220.800 369.748 C 218.490 369.748,217.545 369.814,218.700 369.895 M237.734 372.251 C 237.038 372.993,236.598 373.600,236.756 373.600 C 236.914 373.600,237.654 372.970,238.400 372.200 C 239.146 371.430,239.587 370.823,239.378 370.851 C 239.170 370.879,238.430 371.509,237.734 372.251 M178.800 374.800 C 178.250 375.230,177.997 375.586,178.238 375.591 C 178.479 375.596,179.002 375.240,179.400 374.800 C 180.312 373.792,180.088 373.792,178.800 374.800 M154.800 377.600 C 155.130 377.813,155.670 377.988,156.000 377.988 C 156.533 377.988,156.533 377.945,156.000 377.600 C 155.670 377.387,155.130 377.212,154.800 377.212 C 154.267 377.212,154.267 377.255,154.800 377.600 M210.800 377.600 C 211.130 377.813,211.670 377.988,212.000 377.988 C 212.533 377.988,212.533 377.945,212.000 377.600 C 211.670 377.387,211.130 377.212,210.800 377.212 C 210.267 377.212,210.267 377.255,210.800 377.600 M158.400 378.400 C 159.867 378.870,161.694 378.870,160.600 378.400 C 160.160 378.211,159.260 378.062,158.600 378.068 C 157.430 378.079,157.425 378.088,158.400 378.400 M168.000 378.400 C 167.236 378.894,168.058 378.894,169.600 378.400 L 170.600 378.080 169.600 378.046 C 169.050 378.027,168.330 378.187,168.000 378.400 M215.200 378.400 C 215.750 378.576,216.920 378.717,217.800 378.714 L 219.400 378.708 217.800 378.377 C 216.920 378.195,215.750 378.054,215.200 378.063 L 214.200 378.080 215.200 378.400 M223.000 378.400 C 221.936 378.857,223.603 378.857,225.400 378.400 L 226.600 378.095 225.200 378.075 C 224.430 378.065,223.440 378.211,223.000 378.400 M352.691 395.175 C 352.551 395.711,352.657 395.876,353.045 395.727 C 353.675 395.486,353.772 394.954,353.245 394.628 C 353.050 394.508,352.801 394.754,352.691 395.175 " stroke="none" fill="#ecece3" fill-rule="evenodd"></path><path id="path2" d="M268.000 43.204 L 268.000 86.007 310.427 85.996 C 333.761 85.990,353.021 86.090,353.227 86.216 C 353.432 86.343,353.600 86.298,353.600 86.117 C 353.600 85.511,347.924 79.600,347.559 79.825 C 347.362 79.947,347.200 79.831,347.200 79.567 C 347.200 79.032,344.998 76.800,344.471 76.800 C 344.286 76.800,343.894 76.350,343.600 75.800 C 343.306 75.250,342.825 74.800,342.532 74.800 C 342.240 74.800,342.000 74.618,342.000 74.396 C 342.000 73.818,339.805 71.600,339.233 71.600 C 338.969 71.600,338.846 71.448,338.961 71.263 C 339.076 71.078,337.738 69.548,335.989 67.863 C 334.240 66.178,332.932 64.800,333.082 64.800 C 333.232 64.800,332.782 64.377,332.082 63.860 C 331.382 63.344,330.196 62.309,329.446 61.560 C 328.697 60.812,327.840 59.984,327.542 59.719 C 327.244 59.455,326.780 59.005,326.511 58.719 C 326.242 58.434,325.840 58.020,325.618 57.800 C 323.541 55.747,320.800 52.636,320.800 52.332 C 320.800 52.123,320.665 52.012,320.500 52.085 C 320.335 52.157,319.368 51.358,318.352 50.308 C 317.335 49.259,316.595 48.400,316.707 48.400 C 316.818 48.400,316.219 47.851,315.374 47.179 C 314.529 46.508,313.398 45.428,312.861 44.779 C 312.324 44.131,311.505 43.586,311.042 43.568 C 310.579 43.551,310.409 43.451,310.664 43.347 C 310.966 43.224,310.826 42.841,310.264 42.253 C 309.789 41.755,309.265 41.416,309.100 41.498 C 308.935 41.580,308.800 41.435,308.800 41.175 C 308.800 40.523,301.906 33.611,301.504 33.859 C 301.326 33.969,301.230 33.883,301.290 33.667 C 301.459 33.061,295.326 27.201,294.516 27.194 C 293.907 27.189,293.890 27.130,294.400 26.800 C 294.909 26.471,294.890 26.411,294.276 26.406 C 293.878 26.403,293.620 26.265,293.702 26.100 C 293.784 25.935,293.445 25.411,292.947 24.936 C 292.359 24.374,291.976 24.234,291.853 24.536 C 291.749 24.791,291.649 24.666,291.632 24.259 C 291.600 23.522,286.023 17.606,285.975 18.259 C 285.961 18.446,285.787 18.195,285.588 17.700 C 285.389 17.205,284.939 16.800,284.589 16.800 C 284.239 16.800,284.064 16.620,284.200 16.400 C 284.336 16.180,284.167 16.000,283.824 16.000 C 283.481 16.000,283.221 15.865,283.247 15.700 C 283.364 14.962,283.167 14.400,282.791 14.400 C 282.566 14.400,281.423 13.410,280.251 12.200 C 279.079 10.990,277.883 10.000,277.594 10.000 C 277.304 10.000,277.175 9.892,277.307 9.759 C 277.619 9.448,275.895 7.651,275.500 7.876 C 275.335 7.970,275.200 7.829,275.200 7.563 C 275.200 7.297,274.210 6.121,273.000 4.949 C 271.790 3.777,270.800 2.634,270.800 2.409 C 270.800 2.039,270.254 1.841,269.524 1.945 C 269.373 1.966,269.136 1.627,268.997 1.192 C 268.119 -1.577,268.000 3.426,268.000 43.204 M45.799 146.200 L 45.800 278.200 200.000 278.200 L 354.200 278.200 354.201 185.600 L 354.203 93.000 354.100 185.500 L 353.998 278.000 200.000 278.000 L 46.001 278.000 45.900 146.100 L 45.798 14.200 45.799 146.200 M140.800 86.018 C 140.362 86.315,140.524 86.352,141.400 86.156 C 142.871 85.827,143.190 85.598,142.167 85.606 C 141.745 85.609,141.130 85.795,140.800 86.018 M149.400 86.208 C 151.078 87.050,153.057 89.386,153.355 90.875 C 153.493 91.564,153.678 92.054,153.767 91.964 C 154.702 91.018,150.570 85.597,148.919 85.602 C 148.438 85.604,148.597 85.804,149.400 86.208 M242.800 86.200 C 241.494 86.947,241.951 86.955,243.654 86.216 C 244.394 85.894,244.730 85.631,244.400 85.630 C 244.070 85.629,243.350 85.886,242.800 86.200 M250.033 85.744 C 250.125 85.823,250.740 86.008,251.400 86.156 C 252.276 86.352,252.438 86.315,252.000 86.018 C 251.460 85.653,249.632 85.398,250.033 85.744 M239.043 91.033 C 238.700 91.927,238.741 94.716,239.100 94.938 C 239.265 95.040,239.400 94.061,239.400 92.762 C 239.400 90.161,239.392 90.123,239.043 91.033 M261.625 91.831 C 262.381 92.728,263.081 93.397,263.180 93.317 C 263.279 93.238,262.660 92.504,261.805 91.687 L 260.250 90.200 261.625 91.831 M243.952 100.112 C 244.145 100.305,244.819 100.398,245.451 100.319 C 246.509 100.187,246.481 100.159,245.100 99.968 C 244.240 99.849,243.750 99.910,243.952 100.112 M146.900 100.276 C 147.285 100.376,147.915 100.376,148.300 100.276 C 148.685 100.175,148.370 100.093,147.600 100.093 C 146.830 100.093,146.515 100.175,146.900 100.276 M268.183 120.200 C 268.183 129.440,268.236 133.163,268.300 128.473 C 268.364 123.783,268.364 116.223,268.299 111.673 C 268.235 107.123,268.183 110.960,268.183 120.200 M252.919 120.800 C 252.898 129.270,252.997 136.618,253.140 137.129 C 253.383 137.997,253.330 114.370,253.075 108.200 C 253.011 106.660,252.941 112.330,252.919 120.800 M139.781 121.400 C 139.781 129.760,139.834 133.237,139.899 129.126 C 139.964 125.016,139.964 118.176,139.900 113.926 C 139.835 109.677,139.782 113.040,139.781 121.400 M194.138 121.106 C 193.884 121.268,194.902 121.400,196.400 121.400 C 197.898 121.400,198.916 121.268,198.662 121.106 C 198.408 120.944,197.390 120.812,196.400 120.812 C 195.410 120.812,194.392 120.944,194.138 121.106 M124.200 137.600 C 124.048 138.291,124.014 138.947,124.124 139.057 C 124.234 139.167,124.448 138.691,124.600 138.000 C 124.752 137.309,124.786 136.653,124.676 136.543 C 124.566 136.433,124.352 136.909,124.200 137.600 M139.293 138.000 C 139.293 138.770,139.375 139.085,139.476 138.700 C 139.576 138.315,139.576 137.685,139.476 137.300 C 139.375 136.915,139.293 137.230,139.293 138.000 M205.437 138.200 C 205.076 138.750,204.937 139.200,205.127 139.200 C 205.316 139.200,205.677 138.750,205.927 138.200 C 206.178 137.650,206.317 137.200,206.237 137.200 C 206.157 137.200,205.797 137.650,205.437 138.200 M253.606 141.033 C 253.609 141.675,253.784 142.470,253.995 142.800 C 254.255 143.209,254.299 142.890,254.132 141.800 C 253.829 139.823,253.598 139.486,253.606 141.033 M120.425 145.369 L 119.050 147.000 120.605 145.513 C 121.460 144.696,122.079 143.962,121.980 143.883 C 121.881 143.803,121.181 144.472,120.425 145.369 M272.196 145.596 C 272.826 146.254,273.411 146.723,273.495 146.638 C 273.680 146.453,271.672 144.400,271.307 144.400 C 271.166 144.400,271.566 144.938,272.196 145.596 M109.300 149.876 C 109.685 149.976,110.315 149.976,110.700 149.876 C 111.085 149.775,110.770 149.693,110.000 149.693 C 109.230 149.693,108.915 149.775,109.300 149.876 M282.100 149.876 C 282.485 149.976,283.115 149.976,283.500 149.876 C 283.885 149.775,283.570 149.693,282.800 149.693 C 282.030 149.693,281.715 149.775,282.100 149.876 M106.744 150.824 L 105.800 151.647 107.000 150.945 C 108.579 150.020,108.603 150.000,108.111 150.000 C 107.879 150.000,107.264 150.371,106.744 150.824 M287.785 152.700 C 288.402 153.635,288.983 154.400,289.076 154.400 C 289.364 154.400,287.833 151.966,287.232 151.469 C 286.920 151.211,287.168 151.765,287.785 152.700 M260.401 154.596 C 261.170 155.473,261.845 156.268,261.900 156.362 C 261.955 156.456,262.087 156.447,262.193 156.341 C 262.299 156.235,261.624 155.440,260.693 154.574 L 259.001 153.000 260.401 154.596 M130.591 156.409 C 129.988 157.077,129.952 157.305,130.388 157.709 C 130.809 158.100,130.856 158.092,130.619 157.675 C 130.448 157.373,130.620 156.820,131.023 156.375 C 131.408 155.949,131.634 155.600,131.524 155.600 C 131.414 155.600,130.994 155.964,130.591 156.409 M103.042 156.634 C 102.908 156.983,102.949 157.537,103.133 157.866 C 103.368 158.286,103.467 158.099,103.467 157.231 C 103.467 155.837,103.390 155.729,103.042 156.634 M110.600 164.797 C 111.364 165.128,114.314 165.355,113.967 165.056 C 113.875 164.977,112.900 164.809,111.800 164.682 C 110.513 164.533,110.085 164.574,110.600 164.797 M280.400 164.800 L 278.600 165.080 280.200 165.134 C 281.080 165.163,282.070 165.013,282.400 164.800 C 282.730 164.587,282.820 164.437,282.600 164.466 C 282.380 164.496,281.390 164.646,280.400 164.800 M195.062 171.100 C 194.960 171.265,195.652 171.400,196.600 171.400 C 197.548 171.400,198.116 171.268,197.862 171.106 C 197.256 170.721,195.299 170.716,195.062 171.100 M253.849 171.815 C 253.712 172.173,253.621 172.946,253.646 173.533 C 253.680 174.332,253.770 174.198,254.004 173.000 C 254.335 171.300,254.262 170.740,253.849 171.815 M269.386 172.827 C 269.037 173.502,268.807 174.214,268.876 174.409 C 268.944 174.604,269.302 174.051,269.670 173.182 C 270.465 171.306,270.287 171.084,269.386 172.827 M124.034 175.800 C 124.022 176.240,124.187 176.870,124.400 177.200 C 124.914 177.995,124.914 176.996,124.400 175.800 L 124.056 175.000 124.034 175.800 M139.293 176.400 C 139.293 177.170,139.375 177.485,139.476 177.100 C 139.576 176.715,139.576 176.085,139.476 175.700 C 139.375 175.315,139.293 175.630,139.293 176.400 M203.256 176.000 C 203.256 176.330,203.411 176.960,203.600 177.400 C 203.817 177.904,203.944 177.978,203.944 177.600 C 203.944 177.270,203.789 176.640,203.600 176.200 C 203.383 175.696,203.256 175.622,203.256 176.000 M268.183 194.200 C 268.183 203.440,268.236 207.163,268.300 202.473 C 268.364 197.783,268.364 190.223,268.299 185.673 C 268.235 181.123,268.183 184.960,268.183 194.200 M139.781 193.000 C 139.781 201.360,139.834 204.837,139.899 200.726 C 139.964 196.616,139.964 189.776,139.900 185.526 C 139.835 181.277,139.782 184.640,139.781 193.000 M252.982 193.400 C 252.982 201.980,253.035 205.433,253.100 201.074 C 253.164 196.714,253.164 189.694,253.099 185.474 C 253.035 181.253,252.982 184.820,252.982 193.400 M188.806 200.633 C 188.809 201.055,188.995 201.670,189.218 202.000 C 189.515 202.438,189.552 202.276,189.356 201.400 C 189.027 199.929,188.798 199.610,188.806 200.633 M202.716 203.513 L 202.032 205.000 202.816 204.056 C 203.247 203.536,203.600 202.861,203.600 202.556 C 203.600 201.733,203.470 201.873,202.716 203.513 M252.153 210.100 C 250.776 212.436,250.686 212.635,251.387 211.800 C 252.200 210.832,252.900 209.600,252.638 209.600 C 252.533 209.600,252.315 209.825,252.153 210.100 M148.600 214.483 C 149.260 214.713,150.430 215.362,151.200 215.925 C 152.338 216.756,152.462 216.789,151.864 216.102 C 151.057 215.176,148.794 213.982,147.940 214.032 C 147.643 214.049,147.940 214.252,148.600 214.483 M239.067 219.467 C 238.700 219.833,238.729 223.109,239.100 223.337 C 239.265 223.438,239.400 222.548,239.400 221.360 C 239.400 220.172,239.385 219.200,239.367 219.200 C 239.348 219.200,239.213 219.320,239.067 219.467 M153.400 223.271 C 153.248 224.002,152.588 225.320,151.933 226.200 L 150.742 227.800 152.123 226.289 C 153.334 224.963,154.313 222.580,153.841 222.108 C 153.750 222.017,153.552 222.541,153.400 223.271 M143.422 228.839 C 144.435 229.236,147.271 229.271,147.858 228.894 C 148.110 228.732,147.040 228.585,145.480 228.567 C 143.801 228.548,142.961 228.659,143.422 228.839 M245.065 228.900 C 245.294 229.277,248.349 229.242,249.342 228.852 C 249.765 228.686,248.965 228.569,247.483 228.580 C 246.053 228.591,244.964 228.735,245.065 228.900 M45.856 392.278 C 45.715 392.418,45.613 392.818,45.628 393.167 C 45.649 393.639,45.749 393.596,46.022 393.000 C 46.355 392.269,46.384 392.286,46.349 393.200 C 46.287 394.844,46.381 395.259,46.761 395.024 C 46.960 394.901,47.310 395.341,47.540 396.000 C 47.933 397.128,48.800 397.678,48.800 396.800 C 48.800 396.580,48.655 396.400,48.477 396.400 C 48.129 396.400,46.800 393.618,46.800 392.889 C 46.800 392.331,46.194 391.939,45.856 392.278 M352.200 395.600 C 352.060 396.040,351.778 396.400,351.573 396.400 C 351.368 396.400,351.200 396.701,351.200 397.070 C 351.200 398.006,352.620 396.525,352.697 395.510 C 352.768 394.563,352.514 394.609,352.200 395.600 " stroke="none" fill="#dcd4cc" fill-rule="evenodd"></path><path id="path3" d="M140.507 86.397 C 133.749 88.392,128.605 93.283,125.991 100.200 C 124.921 103.030,124.800 105.120,124.796 120.846 C 124.792 134.362,124.682 137.761,124.195 139.366 C 122.560 144.755,118.790 148.212,113.200 149.447 C 111.147 149.901,111.101 149.935,112.509 149.966 C 116.103 150.046,121.618 146.238,123.466 142.399 C 125.158 138.885,125.200 138.383,125.200 121.760 C 125.200 106.773,125.401 103.085,126.354 100.600 C 127.688 97.125,130.717 92.457,132.265 91.491 C 132.538 91.321,133.019 90.923,133.336 90.607 C 138.566 85.377,149.385 84.647,152.194 89.335 C 152.743 90.251,153.194 90.726,153.196 90.391 C 153.219 86.696,146.577 84.605,140.507 86.397 M243.354 86.365 C 238.151 88.728,237.883 96.383,242.903 99.209 C 243.730 99.674,244.810 99.986,245.303 99.901 C 245.988 99.784,245.833 99.670,244.647 99.419 C 236.143 97.622,239.300 85.356,248.075 86.101 C 255.267 86.712,261.683 90.906,265.053 97.200 C 267.321 101.435,267.312 101.353,267.584 119.600 L 267.838 136.600 267.919 120.262 C 268.008 102.344,267.965 101.927,265.534 97.083 C 261.512 89.068,249.831 83.424,243.354 86.365 M153.212 92.740 C 153.189 95.991,151.239 98.519,148.000 99.496 C 146.621 99.912,146.617 99.919,147.753 99.959 C 150.979 100.073,155.134 94.285,153.653 91.738 C 153.300 91.130,153.222 91.306,153.212 92.740 M142.544 101.141 C 139.259 103.521,139.432 102.464,139.142 122.000 C 138.998 131.712,138.698 140.195,138.464 141.200 C 137.247 146.420,134.355 151.922,131.220 154.981 C 129.347 156.809,129.255 157.291,130.534 158.571 C 132.647 160.683,134.438 163.195,135.974 166.198 C 136.868 167.947,137.600 169.135,137.600 168.838 C 137.600 167.276,134.282 161.839,131.661 159.108 L 129.846 157.216 130.823 156.137 C 131.360 155.544,132.281 154.538,132.870 153.902 C 134.497 152.142,136.623 148.366,137.580 145.537 C 138.052 144.142,138.644 142.640,138.895 142.200 C 139.211 141.648,139.422 135.697,139.577 122.990 C 139.800 104.598,139.801 104.580,140.700 103.615 C 141.195 103.084,141.600 102.532,141.600 102.389 C 141.600 102.072,143.302 101.208,145.200 100.561 L 146.600 100.084 145.360 100.042 C 144.581 100.016,143.535 100.424,142.544 101.141 M247.856 100.601 C 253.106 102.257,253.200 102.604,253.201 120.426 C 253.203 142.825,254.137 147.065,260.700 154.463 C 263.263 157.352,263.268 157.027,260.609 159.863 C 259.404 161.148,258.414 162.313,258.409 162.452 C 258.404 162.590,257.782 163.729,257.028 164.982 C 255.609 167.338,253.976 171.907,254.032 173.367 C 254.067 174.305,254.070 174.299,255.028 171.000 C 255.412 169.680,255.877 168.429,256.063 168.220 C 256.248 168.011,256.400 167.624,256.400 167.361 C 256.400 166.450,259.731 161.393,261.634 159.414 C 263.752 157.211,263.773 157.398,261.083 154.302 C 259.206 152.142,256.400 147.854,256.400 147.146 C 256.400 146.950,256.226 146.477,256.013 146.095 C 254.323 143.065,254.223 141.970,253.985 123.800 C 253.859 114.120,253.585 105.750,253.378 105.200 C 252.210 102.108,249.697 99.958,247.346 100.040 C 246.312 100.075,246.361 100.130,247.856 100.601 M193.079 121.778 C 183.892 125.054,182.934 138.064,191.600 141.855 C 192.370 142.192,193.313 142.632,193.695 142.834 C 196.340 144.229,202.649 142.101,204.852 139.071 C 211.302 130.197,203.129 118.193,193.079 121.778 M200.716 122.658 C 207.867 125.892,208.940 135.757,202.652 140.455 C 194.041 146.890,182.521 137.630,186.988 127.864 C 189.328 122.748,195.631 120.358,200.716 122.658 M268.053 138.000 C 268.031 138.770,268.187 139.670,268.400 140.000 C 268.877 140.739,268.877 139.676,268.400 137.800 L 268.095 136.600 268.053 138.000 M268.800 141.016 C 268.800 144.116,275.640 149.530,279.957 149.846 L 281.800 149.982 279.589 149.464 C 275.200 148.437,271.462 145.645,269.807 142.158 C 269.223 140.928,268.800 140.448,268.800 141.016 M106.992 150.972 C 100.365 154.945,103.117 163.408,111.435 164.638 C 118.311 165.655,122.357 168.980,124.231 175.153 C 124.672 176.608,124.792 180.510,124.796 193.554 C 124.800 211.322,124.818 211.510,126.941 216.400 C 128.240 219.391,132.351 224.079,134.800 225.362 C 139.251 227.693,140.599 228.164,144.100 228.608 C 147.494 229.039,149.536 228.487,151.366 226.645 C 155.963 222.018,153.454 215.028,146.880 214.144 C 144.366 213.806,141.875 212.468,140.800 210.878 L 139.801 209.400 139.565 191.200 C 139.414 179.590,139.172 172.638,138.897 172.000 C 138.659 171.450,138.356 170.659,138.223 170.243 C 137.629 168.384,137.649 170.130,138.246 172.243 C 138.801 174.209,138.952 177.527,139.156 192.232 L 139.400 209.864 140.557 211.379 C 141.819 213.034,143.998 214.161,146.800 214.608 C 150.529 215.202,152.784 217.412,153.109 220.791 C 153.995 230.020,140.506 230.778,131.611 222.000 C 125.755 216.220,125.477 214.971,125.213 193.200 C 124.976 173.687,125.014 174.000,122.440 170.258 C 119.913 166.585,114.930 164.000,110.377 164.000 C 102.844 164.000,101.735 152.829,109.044 150.566 C 110.294 150.179,110.403 150.076,109.600 150.046 C 109.050 150.025,107.876 150.441,106.992 150.972 M283.600 150.504 C 291.718 152.952,290.200 163.289,281.600 164.119 C 276.697 164.592,272.280 167.156,270.008 170.848 C 268.247 173.710,268.527 174.141,270.342 171.362 C 273.003 167.288,276.117 165.371,281.144 164.714 C 286.629 163.998,289.280 161.549,289.280 157.200 C 289.280 153.510,286.321 149.936,283.353 150.041 C 282.217 150.081,282.221 150.088,283.600 150.504 M194.554 171.562 C 191.872 172.239,190.044 174.241,189.221 177.400 C 188.639 179.636,188.675 198.597,189.266 201.159 C 190.885 208.170,199.789 209.542,202.885 203.257 C 203.986 201.023,204.512 180.760,203.562 177.200 C 202.410 172.882,198.649 170.528,194.554 171.562 M200.209 172.900 C 203.059 174.735,203.200 175.511,203.200 189.366 C 203.200 203.071,203.129 203.498,200.527 205.483 C 197.685 207.651,193.184 206.918,190.800 203.900 L 189.800 202.634 189.669 191.217 C 189.500 176.542,189.566 176.013,191.824 173.755 C 193.995 171.584,197.595 171.217,200.209 172.900 M268.249 174.615 C 268.112 174.973,268.020 175.836,268.044 176.533 C 268.082 177.637,268.133 177.571,268.436 176.025 C 268.793 174.205,268.694 173.457,268.249 174.615 M253.500 176.759 C 253.335 178.166,253.200 185.923,253.200 193.996 C 253.200 212.264,252.949 213.000,246.360 214.042 C 238.867 215.226,236.555 223.432,242.516 227.684 C 243.958 228.713,251.170 228.990,252.108 228.052 C 252.357 227.803,252.859 227.600,253.224 227.600 C 256.093 227.600,263.243 221.638,265.457 217.400 C 267.961 212.606,268.008 212.160,267.919 194.138 L 267.838 177.800 267.587 194.800 C 267.307 213.794,267.299 213.846,264.131 218.661 C 261.754 222.272,256.521 226.436,253.600 227.041 C 253.050 227.155,252.281 227.422,251.890 227.634 C 250.356 228.466,244.210 228.204,242.868 227.249 C 237.079 223.126,239.303 215.731,246.714 214.465 C 253.637 213.282,254.065 211.851,253.914 190.400 C 253.845 180.587,253.682 175.209,253.500 176.759 M199.900 278.300 L 45.600 278.401 45.600 335.158 C 45.600 386.973,45.656 391.936,46.244 392.162 C 46.797 392.374,46.845 392.195,46.581 390.904 C 46.008 388.107,45.927 279.494,46.497 279.131 C 47.076 278.764,352.410 278.676,353.367 279.043 C 354.164 279.348,354.351 386.864,353.561 390.294 C 352.979 392.824,351.653 395.533,350.300 396.959 C 349.141 398.180,348.915 398.800,349.629 398.800 C 350.253 398.800,351.200 397.753,351.200 397.062 C 351.200 396.735,351.341 396.407,351.513 396.333 C 351.999 396.127,353.600 393.226,353.600 392.554 C 353.600 392.223,353.780 392.064,354.000 392.200 C 354.266 392.364,354.400 373.271,354.400 335.224 C 354.400 303.751,354.355 278.045,354.300 278.099 C 354.245 278.154,284.765 278.244,199.900 278.300 M173.847 305.422 C 173.711 305.776,173.596 318.426,173.590 333.533 C 173.579 367.656,173.764 366.819,165.856 368.385 L 164.200 368.712 165.800 368.724 C 167.951 368.740,171.936 366.614,172.832 364.973 C 174.296 362.292,174.400 360.150,174.400 332.580 L 174.400 305.600 180.017 305.600 L 185.633 305.600 185.517 335.900 L 185.400 366.200 184.096 368.865 C 182.118 372.910,178.205 376.304,174.400 377.278 C 167.735 378.984,162.292 379.270,157.400 378.171 C 152.439 377.056,151.839 376.894,149.400 376.006 C 146.754 375.043,142.400 372.768,142.400 372.348 C 142.400 372.068,143.426 370.278,145.409 367.100 C 146.780 364.902,146.808 364.896,149.650 366.144 C 152.436 367.368,156.525 368.476,158.800 368.623 C 159.790 368.687,160.150 368.652,159.600 368.546 C 156.728 367.990,150.995 366.320,149.526 365.610 C 147.716 364.736,146.000 364.545,146.000 365.218 C 146.000 365.448,145.100 366.970,144.000 368.600 C 142.900 370.230,142.000 371.830,142.000 372.155 C 142.000 373.537,147.568 376.166,154.200 377.915 C 155.080 378.147,156.541 378.531,157.446 378.768 C 164.475 380.611,176.501 378.203,180.940 374.063 C 186.132 369.221,186.037 369.971,185.909 335.000 L 185.800 305.000 179.947 304.890 C 174.873 304.794,174.061 304.865,173.847 305.422 M219.600 305.640 C 214.336 307.023,211.691 308.382,208.460 311.363 C 202.924 316.473,201.075 326.238,204.332 333.157 C 206.622 338.021,210.944 341.546,221.187 346.905 C 228.055 350.499,230.545 352.404,232.020 355.192 C 232.430 355.967,232.773 356.320,232.782 355.978 C 232.816 354.802,230.366 351.939,227.753 350.099 C 226.547 349.250,225.516 348.681,217.800 344.607 C 211.077 341.057,206.643 337.119,204.840 333.095 C 198.743 319.493,209.078 305.600,225.292 305.600 C 230.670 305.600,240.800 307.885,240.800 309.098 C 240.800 309.642,236.915 316.927,236.548 317.071 C 236.299 317.169,235.219 316.833,234.148 316.324 C 227.501 313.170,217.615 315.986,214.780 321.841 C 211.837 327.921,215.068 332.435,226.400 338.078 C 235.809 342.762,239.995 345.974,241.797 349.890 C 242.129 350.610,242.686 351.820,243.035 352.578 C 245.577 358.092,242.747 368.421,237.412 373.101 C 229.731 379.838,214.000 380.770,204.686 375.040 L 202.772 373.863 203.037 372.031 C 203.183 371.024,203.459 369.897,203.651 369.526 C 203.843 369.156,204.003 368.436,204.006 367.926 C 204.020 365.857,204.421 365.810,208.893 367.354 C 211.197 368.149,213.423 368.787,213.841 368.771 C 214.258 368.755,212.980 368.226,211.000 367.595 C 209.020 366.965,207.087 366.258,206.705 366.024 C 204.784 364.850,204.150 365.394,203.249 368.986 C 202.186 373.226,202.186 374.074,203.255 374.741 C 213.256 380.987,227.713 380.804,236.600 374.320 C 238.582 372.874,241.600 369.335,241.600 368.456 C 241.600 368.205,241.736 368.000,241.902 368.000 C 242.193 368.000,242.443 367.482,243.644 364.400 C 244.565 362.036,244.323 354.214,243.261 352.025 C 242.788 351.049,242.400 350.014,242.400 349.725 C 242.400 349.436,242.220 349.200,242.000 349.200 C 241.780 349.200,241.600 349.022,241.600 348.805 C 241.600 346.625,235.652 342.145,227.219 337.975 C 217.693 333.264,215.054 330.864,214.530 326.438 C 213.527 317.967,225.348 312.588,234.863 317.185 C 236.132 317.798,236.590 317.863,236.956 317.485 C 237.900 316.508,241.296 309.136,240.952 308.809 C 239.593 307.519,237.339 306.773,231.280 305.608 C 228.708 305.113,221.531 305.133,219.600 305.640 M232.847 359.089 C 232.711 366.259,228.442 369.486,219.575 369.120 C 217.157 369.021,215.408 369.085,215.689 369.264 C 216.952 370.065,225.098 369.635,227.327 368.649 C 231.618 366.752,234.117 362.104,233.161 357.800 C 232.964 356.912,232.882 357.247,232.847 359.089 M46.800 393.066 C 46.800 393.662,48.177 396.400,48.477 396.400 C 48.655 396.400,48.800 396.683,48.800 397.029 C 48.800 397.747,49.734 398.800,50.371 398.800 C 51.051 398.800,50.878 398.291,49.761 397.000 C 49.190 396.340,48.377 395.125,47.953 394.300 C 47.237 392.904,46.800 392.436,46.800 393.066 " stroke="none" fill="#edd4a2" fill-rule="evenodd"></path><path id="path4" d="M174.400 333.595 C 174.400 364.134,174.415 363.926,172.125 366.237 C 168.025 370.374,157.375 370.282,148.792 366.035 C 147.258 365.276,146.400 365.347,146.400 366.233 C 146.400 366.545,146.220 366.800,146.000 366.800 C 145.780 366.800,145.600 366.990,145.600 367.222 C 145.600 367.454,144.903 368.670,144.051 369.925 C 142.937 371.565,142.628 372.318,142.951 372.603 C 143.408 373.008,146.585 374.579,148.400 375.297 C 148.950 375.515,149.713 375.852,150.095 376.047 C 150.477 376.241,151.152 376.400,151.595 376.400 C 152.038 376.400,152.400 376.562,152.400 376.760 C 152.400 376.958,153.165 377.218,154.100 377.338 C 155.035 377.458,156.970 377.775,158.400 378.044 C 162.467 378.807,171.603 378.497,172.580 377.563 C 172.789 377.363,173.369 377.200,173.868 377.200 C 175.231 377.200,179.370 374.754,180.942 373.019 C 185.531 367.956,185.664 366.787,185.517 332.800 L 185.400 305.800 179.900 305.689 L 174.400 305.577 174.400 333.595 M222.000 306.087 C 219.432 306.427,217.358 306.931,215.800 307.593 C 215.360 307.780,214.415 308.172,213.700 308.464 C 212.985 308.756,212.400 309.131,212.400 309.298 C 212.400 309.464,212.192 309.600,211.938 309.600 C 211.413 309.600,206.419 314.420,206.408 314.938 C 206.403 315.124,206.074 315.754,205.675 316.338 C 203.736 319.175,203.020 328.758,204.503 332.027 C 205.209 333.584,208.705 338.398,209.134 338.403 C 209.280 338.405,210.063 339.035,210.873 339.803 C 211.684 340.572,212.505 341.200,212.698 341.200 C 212.891 341.200,213.398 341.515,213.825 341.901 C 214.251 342.286,215.500 343.048,216.600 343.595 C 217.700 344.142,218.690 344.682,218.800 344.795 C 218.910 344.908,220.707 345.880,222.793 346.956 C 231.286 351.338,233.387 353.764,233.395 359.200 C 233.411 369.531,224.034 372.778,208.800 367.717 C 207.150 367.169,205.598 366.556,205.351 366.354 C 204.775 365.883,204.216 367.326,203.582 370.920 C 203.018 374.114,203.481 374.619,209.000 376.821 C 213.203 378.498,226.628 379.013,228.180 377.557 C 228.389 377.360,228.949 377.200,229.424 377.200 C 231.651 377.200,240.369 370.978,240.409 369.360 C 240.414 369.162,240.770 368.550,241.200 368.000 C 241.630 367.450,241.986 366.685,241.991 366.300 C 241.996 365.915,242.180 365.600,242.400 365.600 C 242.620 365.600,242.800 365.060,242.800 364.400 C 242.800 363.740,242.980 363.200,243.200 363.200 C 243.701 363.200,243.743 354.670,243.247 353.695 C 243.052 353.313,242.716 352.550,242.500 352.000 C 241.559 349.607,240.935 348.663,238.832 346.452 C 236.681 344.192,233.279 341.600,232.461 341.600 C 232.244 341.600,232.007 341.465,231.933 341.300 C 231.860 341.135,230.180 340.223,228.200 339.274 C 221.191 335.914,220.580 335.584,218.626 334.100 C 211.397 328.610,212.246 319.976,220.400 316.057 C 223.442 314.595,231.054 314.519,234.133 315.920 C 235.196 316.404,236.214 316.800,236.395 316.800 C 236.745 316.800,240.616 309.246,240.354 309.074 C 240.164 308.950,238.315 308.129,237.100 307.630 C 235.721 307.063,234.128 306.775,230.200 306.382 C 228.220 306.183,226.150 305.959,225.600 305.882 C 225.050 305.806,223.430 305.898,222.000 306.087 " stroke="none" fill="#fcfcfb" fill-rule="evenodd"></path></g></svg>