<svg id="svg" version="1.1" xmlns="http://www.w3.org/2000/svg" xmlns:xlink="http://www.w3.org/1999/xlink" width="400" height="400" viewBox="0, 0, 400,400"><g id="svgg"><path id="path0" d="M86.200 18.800 C 86.064 19.020,85.344 19.200,84.600 19.200 C 83.856 19.200,83.136 19.380,83.000 19.600 C 82.864 19.820,82.401 20.000,81.971 20.000 C 81.541 20.000,80.877 20.168,80.495 20.374 C 80.113 20.579,79.215 20.983,78.500 21.271 C 77.785 21.560,77.200 21.931,77.200 22.098 C 77.200 22.264,76.840 22.400,76.400 22.400 C 75.960 22.400,75.600 22.580,75.600 22.800 C 75.600 23.020,75.240 23.200,74.800 23.200 C 74.360 23.200,74.000 23.380,74.000 23.600 C 74.000 23.820,73.757 24.000,73.459 24.000 C 73.162 24.000,72.354 24.540,71.663 25.200 C 70.972 25.860,70.228 26.400,70.009 26.400 C 68.484 26.400,60.000 36.923,60.000 38.815 C 60.000 39.247,59.820 39.600,59.600 39.600 C 59.380 39.600,59.200 39.960,59.200 40.400 C 59.200 40.840,59.020 41.200,58.800 41.200 C 58.580 41.200,58.400 41.650,58.400 42.200 C 58.400 42.750,58.220 43.200,58.000 43.200 C 57.780 43.200,57.600 43.639,57.600 44.176 C 57.600 44.713,57.420 45.264,57.200 45.400 C 56.980 45.536,56.800 46.256,56.800 47.000 C 56.800 47.744,56.620 48.464,56.400 48.600 C 56.135 48.764,56.000 88.004,56.000 165.024 L 56.000 281.200 200.000 281.200 L 344.000 281.200 344.000 187.500 L 344.000 93.800 325.300 93.921 C 306.652 94.041,301.073 93.792,296.745 92.645 C 283.892 89.240,273.738 79.109,269.840 65.800 C 269.065 63.151,269.014 61.797,268.894 40.700 L 268.768 18.400 177.608 18.400 C 117.266 18.400,86.364 18.535,86.200 18.800 M206.200 113.040 C 207.520 113.377,209.197 113.804,209.926 113.990 C 210.656 114.176,212.533 114.988,214.098 115.795 C 239.168 128.728,236.160 165.042,209.304 173.670 L 206.408 174.600 206.404 185.041 C 206.400 195.235,206.379 195.514,205.490 196.831 C 202.411 201.401,196.862 201.048,194.100 196.105 C 193.332 194.731,193.390 168.199,194.165 166.349 C 195.174 163.940,197.518 162.400,200.175 162.400 C 216.318 162.400,224.595 142.406,213.231 130.863 C 201.929 119.385,183.921 125.984,181.485 142.496 C 180.656 148.117,179.031 149.997,175.000 149.997 C 169.675 149.997,167.460 144.963,169.370 137.200 C 172.585 124.127,180.168 116.754,194.400 112.864 C 196.628 112.255,203.524 112.358,206.200 113.040 M152.716 125.557 C 155.997 127.232,157.331 130.810,155.811 133.857 C 155.488 134.506,147.750 142.499,138.616 151.619 C 129.482 160.738,122.007 168.433,122.004 168.718 C 122.002 169.003,129.395 176.627,138.432 185.661 C 155.803 203.025,156.396 203.702,156.399 206.165 C 156.404 211.659,150.146 214.400,145.736 210.835 C 143.518 209.043,108.579 173.995,107.266 172.246 C 106.231 170.867,106.075 167.374,106.972 165.680 C 107.942 163.850,146.049 126.101,147.600 125.434 C 149.494 124.619,150.946 124.654,152.716 125.557 M252.716 125.572 C 255.595 127.068,293.073 165.152,293.585 167.100 C 294.575 170.873,295.090 170.236,273.666 191.729 C 262.960 202.470,253.714 211.515,253.120 211.829 C 247.964 214.554,241.626 208.831,244.187 203.761 C 244.509 203.123,252.249 195.131,261.387 186.002 C 270.524 176.873,278.000 169.132,278.000 168.800 C 278.000 168.468,270.519 160.727,261.376 151.598 C 251.331 141.568,244.525 134.466,244.176 133.651 C 241.948 128.436,247.721 122.975,252.716 125.572 M202.659 212.990 C 207.703 215.506,207.625 221.967,202.520 224.552 C 198.836 226.417,193.629 223.144,193.607 218.949 C 193.582 214.292,198.621 210.975,202.659 212.990 M134.535 301.006 C 131.062 303.087,131.199 301.837,131.207 331.426 L 131.213 357.400 132.113 358.988 C 133.050 360.643,135.254 362.408,136.359 362.389 C 136.712 362.383,136.190 361.964,135.200 361.459 C 134.040 360.867,133.082 359.983,132.507 358.970 L 131.613 357.400 131.607 331.496 C 131.599 301.830,131.480 302.904,134.962 301.219 C 138.165 299.668,152.733 300.142,157.300 301.946 C 157.905 302.185,158.400 302.290,158.400 302.180 C 158.400 302.070,157.905 301.785,157.300 301.546 C 152.399 299.610,137.455 299.255,134.535 301.006 M184.535 301.006 C 181.062 303.087,181.199 301.837,181.207 331.426 L 181.213 357.400 182.113 358.988 C 183.050 360.643,185.254 362.408,186.359 362.389 C 186.712 362.383,186.190 361.964,185.200 361.459 C 184.040 360.867,183.082 359.983,182.507 358.970 L 181.613 357.400 181.607 331.496 C 181.599 301.830,181.480 302.904,184.962 301.219 C 187.565 299.958,189.318 300.255,191.799 302.375 L 192.997 303.400 191.999 302.265 C 189.926 299.910,187.146 299.441,184.535 301.006 M210.200 300.596 C 208.903 301.169,206.788 303.200,207.487 303.200 C 207.722 303.200,208.015 302.938,208.138 302.618 C 208.851 300.760,212.551 300.014,215.050 301.224 C 218.531 302.909,218.400 301.730,218.400 331.342 C 218.400 359.331,218.363 359.825,216.182 360.662 C 215.862 360.785,215.600 361.078,215.600 361.313 C 215.600 361.547,216.066 361.303,216.635 360.770 C 218.840 358.704,218.801 359.243,218.793 331.051 L 218.787 305.000 217.885 303.408 C 216.278 300.570,212.985 299.365,210.200 300.596 M234.535 301.006 C 231.062 303.087,231.199 301.837,231.207 331.426 L 231.213 357.400 232.113 358.988 C 233.050 360.643,235.254 362.408,236.359 362.389 C 236.712 362.383,236.190 361.964,235.200 361.459 C 234.040 360.867,233.082 359.983,232.507 358.970 L 231.613 357.400 231.607 331.496 C 231.599 301.830,231.480 302.904,234.962 301.219 C 238.165 299.668,252.733 300.142,257.300 301.946 C 257.905 302.185,258.400 302.290,258.400 302.180 C 258.400 302.070,257.905 301.785,257.300 301.546 C 252.399 299.610,237.455 299.255,234.535 301.006 M158.800 302.547 C 158.800 302.628,159.565 303.176,160.500 303.766 L 162.200 304.838 160.815 303.619 C 159.583 302.534,158.800 302.118,158.800 302.547 M258.800 302.547 C 258.800 302.628,259.565 303.176,260.500 303.766 L 262.200 304.838 260.815 303.619 C 259.583 302.534,258.800 302.118,258.800 302.547 M206.600 304.400 C 206.450 304.873,206.417 305.350,206.527 305.460 C 206.637 305.570,206.850 305.273,207.000 304.800 C 207.150 304.327,207.183 303.850,207.073 303.740 C 206.963 303.630,206.750 303.927,206.600 304.400 M165.053 308.408 C 165.638 309.293,166.206 309.928,166.314 309.819 C 166.514 309.619,164.515 306.800,164.174 306.800 C 164.072 306.800,164.468 307.524,165.053 308.408 M265.053 308.408 C 265.638 309.293,266.206 309.928,266.314 309.819 C 266.514 309.619,264.515 306.800,264.174 306.800 C 264.072 306.800,264.468 307.524,265.053 308.408 M166.400 310.626 C 166.400 310.751,166.604 311.233,166.853 311.699 C 168.300 314.402,168.726 319.339,167.810 322.781 C 167.311 324.658,167.264 326.331,167.755 324.757 C 169.178 320.196,169.018 315.966,167.254 311.500 C 166.864 310.511,166.400 310.037,166.400 310.626 M266.400 310.626 C 266.400 310.751,266.604 311.233,266.853 311.699 C 268.300 314.402,268.726 319.339,267.810 322.781 C 267.311 324.658,267.264 326.331,267.755 324.757 C 269.178 320.196,269.018 315.966,267.254 311.500 C 266.864 310.511,266.400 310.037,266.400 310.626 M152.992 313.315 C 153.884 313.820,154.980 314.916,155.485 315.808 C 156.027 316.764,156.389 317.116,156.393 316.689 C 156.402 315.766,153.034 312.398,152.111 312.407 C 151.684 312.411,152.036 312.773,152.992 313.315 M252.992 313.315 C 253.884 313.820,254.980 314.916,255.485 315.808 C 256.027 316.764,256.389 317.116,256.393 316.689 C 256.397 316.299,255.595 315.174,254.611 314.189 C 253.626 313.205,252.501 312.403,252.111 312.407 C 251.684 312.411,252.036 312.773,252.992 313.315 M155.665 321.417 C 154.995 322.888,155.123 323.202,155.847 321.865 C 156.186 321.240,156.388 320.654,156.296 320.563 C 156.205 320.471,155.921 320.856,155.665 321.417 M255.665 321.417 C 254.995 322.888,255.123 323.202,255.847 321.865 C 256.186 321.240,256.388 320.654,256.296 320.563 C 256.205 320.471,255.921 320.856,255.665 321.417 M152.200 324.614 C 151.540 324.917,151.270 325.166,151.600 325.168 C 151.930 325.170,152.650 324.914,153.200 324.600 C 154.465 323.877,153.789 323.887,152.200 324.614 M252.200 324.614 C 251.540 324.917,251.270 325.166,251.600 325.168 C 251.930 325.170,252.650 324.914,253.200 324.600 C 254.465 323.877,253.789 323.887,252.200 324.614 M165.938 327.628 C 165.360 328.713,165.011 329.600,165.164 329.600 C 165.466 329.600,167.314 325.980,167.113 325.780 C 167.045 325.712,166.517 326.544,165.938 327.628 M265.938 327.628 C 265.360 328.713,265.011 329.600,265.164 329.600 C 265.466 329.600,267.314 325.980,267.113 325.780 C 267.045 325.712,266.517 326.544,265.938 327.628 M162.400 332.083 C 158.658 335.573,155.432 336.729,148.200 337.172 L 143.400 337.466 147.280 337.533 C 154.066 337.650,158.834 336.009,162.734 332.215 C 165.588 329.437,165.341 329.339,162.400 332.083 M262.400 332.083 C 258.658 335.573,255.432 336.729,248.200 337.172 L 243.400 337.466 247.280 337.533 C 254.066 337.650,258.834 336.009,262.734 332.215 C 265.588 329.437,265.341 329.339,262.400 332.083 M196.700 337.498 C 198.515 337.572,201.485 337.572,203.300 337.498 C 205.115 337.423,203.630 337.363,200.000 337.363 C 196.370 337.363,194.885 337.423,196.700 337.498 M206.412 357.200 C 206.412 357.530,206.587 358.070,206.800 358.400 C 207.145 358.933,207.188 358.933,207.188 358.400 C 207.188 358.070,207.013 357.530,206.800 357.200 C 206.455 356.667,206.412 356.667,206.412 357.200 M142.885 358.327 C 142.661 358.970,141.966 359.988,141.339 360.591 L 140.200 361.688 141.266 361.020 C 142.283 360.384,143.875 357.742,143.480 357.347 C 143.377 357.244,143.109 357.685,142.885 358.327 M192.885 358.327 C 192.661 358.970,191.966 359.988,191.339 360.591 L 190.200 361.688 191.266 361.020 C 192.283 360.384,193.875 357.742,193.480 357.347 C 193.377 357.244,193.109 357.685,192.885 358.327 M242.885 358.327 C 242.661 358.970,241.966 359.988,241.339 360.591 L 240.200 361.688 241.266 361.020 C 242.283 360.384,243.875 357.742,243.480 357.347 C 243.377 357.244,243.109 357.685,242.885 358.327 M207.656 359.941 C 207.910 360.348,208.497 360.911,208.959 361.191 C 209.548 361.547,209.448 361.325,208.625 360.450 C 207.288 359.027,206.986 358.869,207.656 359.941 M138.400 362.000 C 137.867 362.345,137.867 362.388,138.400 362.388 C 138.730 362.388,139.270 362.213,139.600 362.000 C 140.133 361.655,140.133 361.612,139.600 361.612 C 139.270 361.612,138.730 361.787,138.400 362.000 M188.400 362.000 C 187.867 362.345,187.867 362.388,188.400 362.388 C 188.730 362.388,189.270 362.213,189.600 362.000 C 190.133 361.655,190.133 361.612,189.600 361.612 C 189.270 361.612,188.730 361.787,188.400 362.000 M210.400 362.000 C 210.730 362.213,211.270 362.388,211.600 362.388 C 212.133 362.388,212.133 362.345,211.600 362.000 C 211.270 361.787,210.730 361.612,210.400 361.612 C 209.867 361.612,209.867 361.655,210.400 362.000 M213.600 362.000 C 213.067 362.345,213.067 362.388,213.600 362.388 C 213.930 362.388,214.470 362.213,214.800 362.000 C 215.333 361.655,215.333 361.612,214.800 361.612 C 214.470 361.612,213.930 361.787,213.600 362.000 M238.400 362.000 C 237.867 362.345,237.867 362.388,238.400 362.388 C 238.730 362.388,239.270 362.213,239.600 362.000 C 240.133 361.655,240.133 361.612,239.600 361.612 C 239.270 361.612,238.730 361.787,238.400 362.000 " stroke="none" fill="#cbd3fc" fill-rule="evenodd"></path><path id="path1" d="M56.000 314.800 C 56.000 336.667,56.137 348.000,56.400 348.000 C 56.620 348.000,56.800 348.990,56.800 350.200 C 56.800 351.410,56.980 352.400,57.200 352.400 C 57.420 352.400,57.600 352.940,57.600 353.600 C 57.600 354.290,57.388 354.803,57.100 354.806 C 56.757 354.810,56.782 354.928,57.181 355.180 C 57.500 355.382,57.905 355.458,58.081 355.350 C 58.256 355.242,58.400 355.624,58.400 356.200 C 58.400 356.890,58.242 357.150,57.938 356.962 C 57.650 356.784,57.585 356.852,57.766 357.145 C 57.925 357.402,58.224 357.509,58.430 357.381 C 58.637 357.254,58.921 357.449,59.061 357.815 C 59.202 358.181,59.091 358.620,58.816 358.790 C 58.460 359.010,58.443 359.180,58.757 359.374 C 59.001 359.524,59.380 359.536,59.600 359.400 C 59.820 359.264,60.000 359.433,60.000 359.776 C 60.000 360.119,59.820 360.400,59.600 360.400 C 59.380 360.400,59.200 360.580,59.200 360.800 C 59.200 361.020,59.560 361.200,60.000 361.200 C 60.860 361.200,61.100 361.833,60.336 362.088 C 59.989 362.204,59.986 362.438,60.324 363.021 C 60.726 363.714,60.777 363.722,60.788 363.100 C 60.795 362.715,61.001 362.400,61.247 362.400 C 61.492 362.400,61.603 362.747,61.492 363.170 C 61.351 363.710,61.456 363.877,61.845 363.727 C 62.158 363.607,62.400 363.762,62.400 364.082 C 62.400 364.394,62.760 365.036,63.200 365.508 C 63.640 365.980,64.000 366.513,64.000 366.693 C 64.000 366.872,65.441 368.452,67.203 370.203 C 69.627 372.613,70.250 373.442,69.765 373.612 C 69.257 373.791,69.335 373.933,70.143 374.301 C 70.994 374.689,71.125 374.670,70.938 374.183 C 70.609 373.326,71.332 373.474,72.000 374.400 C 72.317 374.840,72.820 375.200,73.117 375.200 C 73.849 375.200,74.800 376.200,74.800 376.971 C 74.800 377.317,74.991 377.600,75.224 377.600 C 75.457 377.600,75.536 377.420,75.400 377.200 C 75.264 376.980,75.433 376.800,75.776 376.800 C 76.119 376.800,76.400 376.980,76.400 377.200 C 76.400 377.420,76.739 377.600,77.153 377.600 C 77.587 377.600,78.023 377.982,78.180 378.500 C 78.346 379.045,78.535 379.203,78.660 378.900 C 79.008 378.057,79.998 378.345,80.032 379.300 C 80.049 379.795,80.154 379.975,80.265 379.700 C 80.376 379.425,80.912 379.200,81.457 379.200 C 82.002 379.200,82.358 379.344,82.250 379.519 C 82.142 379.695,82.218 380.100,82.420 380.419 C 82.672 380.818,82.790 380.843,82.794 380.500 C 82.797 380.212,83.310 380.000,84.000 380.000 C 84.660 380.000,85.200 380.180,85.200 380.400 C 85.200 380.620,86.201 380.800,87.424 380.800 C 88.804 380.800,89.553 380.952,89.400 381.200 C 89.235 381.466,126.204 381.600,200.000 381.600 C 273.796 381.600,310.765 381.466,310.600 381.200 C 310.446 380.950,311.263 380.800,312.776 380.800 C 314.125 380.800,315.200 380.623,315.200 380.400 C 315.200 380.180,315.830 380.000,316.600 380.000 C 317.370 380.000,318.000 379.820,318.000 379.600 C 318.000 379.021,319.496 379.107,319.735 379.700 C 319.846 379.975,319.951 379.774,319.968 379.253 C 319.995 378.465,320.167 378.339,321.000 378.498 C 321.671 378.626,322.000 378.510,322.000 378.145 C 322.000 377.845,322.281 377.600,322.624 377.600 C 322.967 377.600,323.136 377.780,323.000 378.000 C 322.864 378.220,322.943 378.400,323.176 378.400 C 323.409 378.400,323.600 378.040,323.600 377.600 C 323.600 376.725,324.611 376.497,324.935 377.300 C 325.051 377.588,325.150 377.492,325.168 377.071 C 325.208 376.165,326.137 375.200,326.971 375.200 C 327.317 375.200,327.600 375.008,327.600 374.773 C 327.600 374.522,327.971 374.450,328.500 374.599 C 329.183 374.791,329.258 374.755,328.812 374.448 C 328.488 374.226,328.308 373.989,328.412 373.922 C 329.626 373.137,330.491 372.853,331.084 373.044 C 331.671 373.234,331.694 373.200,331.211 372.859 C 330.516 372.368,335.360 367.135,336.353 367.304 C 336.663 367.357,336.994 367.130,337.089 366.800 C 337.242 366.267,337.214 366.267,336.837 366.800 C 336.470 367.318,336.411 367.304,336.406 366.700 C 336.403 366.315,336.745 365.655,337.167 365.233 C 337.588 364.812,337.845 364.379,337.738 364.271 C 337.404 363.938,338.891 362.460,339.374 362.645 C 340.093 362.921,341.783 359.161,341.125 358.751 C 340.701 358.487,340.697 358.269,341.100 357.618 C 341.375 357.174,341.600 356.448,341.600 356.005 C 341.600 355.562,341.816 355.245,342.080 355.300 C 342.401 355.367,342.524 354.902,342.450 353.900 C 342.385 353.027,342.519 352.400,342.769 352.400 C 343.025 352.400,343.200 351.504,343.200 350.200 C 343.200 348.990,343.380 348.000,343.600 348.000 C 343.863 348.000,344.000 336.667,344.000 314.800 L 344.000 281.600 200.000 281.600 L 56.000 281.600 56.000 314.800 M152.676 299.969 C 172.795 302.302,174.764 330.859,155.240 337.161 C 154.492 337.403,151.657 337.600,148.940 337.600 L 144.000 337.600 144.000 347.805 C 144.000 358.412,143.964 358.669,142.200 360.738 C 139.386 364.037,133.778 363.270,131.651 359.296 C 131.329 358.693,131.200 350.617,131.200 331.011 L 131.200 303.569 132.725 301.934 C 134.818 299.690,143.175 298.867,152.676 299.969 M190.801 300.616 C 191.857 301.146,192.674 302.017,193.500 303.495 C 193.864 304.145,194.000 307.174,194.000 314.595 L 194.000 324.800 200.000 324.800 L 206.000 324.800 206.029 314.500 C 206.061 303.298,206.147 302.822,208.446 301.106 C 212.698 297.931,218.427 300.614,218.989 306.044 C 219.610 312.048,219.042 358.124,218.332 359.400 C 216.138 363.338,210.616 364.023,207.779 360.710 C 206.039 358.678,206.000 358.392,206.000 347.805 L 206.000 337.600 200.000 337.600 L 194.000 337.600 194.000 347.805 C 194.000 358.412,193.964 358.669,192.200 360.738 C 189.386 364.037,183.778 363.270,181.651 359.296 C 181.329 358.693,181.200 350.617,181.200 331.011 L 181.200 303.569 182.725 301.934 C 184.829 299.678,187.923 299.173,190.801 300.616 M252.676 299.969 C 272.795 302.302,274.764 330.859,255.240 337.161 C 254.492 337.403,251.657 337.600,248.940 337.600 L 244.000 337.600 244.000 347.805 C 244.000 358.412,243.964 358.669,242.200 360.738 C 239.386 364.037,233.778 363.270,231.651 359.296 C 231.329 358.693,231.200 350.617,231.200 331.011 L 231.200 303.569 232.725 301.934 C 234.818 299.690,243.175 298.867,252.676 299.969 M144.000 318.800 L 144.000 324.800 147.351 324.800 C 153.552 324.800,157.132 321.558,155.633 317.300 C 154.461 313.973,152.303 312.800,147.351 312.800 L 144.000 312.800 144.000 318.800 M244.000 318.800 L 244.000 324.800 247.351 324.800 C 252.303 324.800,254.461 323.627,255.633 320.300 C 257.132 316.042,253.552 312.800,247.351 312.800 L 244.000 312.800 244.000 318.800 " stroke="none" fill="#5454fc" fill-rule="evenodd"></path><path id="path2" d="M269.302 40.680 C 269.473 65.288,269.469 65.250,273.362 73.200 C 274.400 75.320,275.245 76.787,275.800 77.438 C 276.020 77.695,276.830 78.686,277.600 79.639 C 281.473 84.431,287.067 88.469,293.200 90.897 C 293.750 91.115,294.513 91.452,294.895 91.647 C 295.277 91.841,296.121 92.000,296.771 92.000 C 297.421 92.000,298.064 92.180,298.200 92.400 C 298.336 92.620,299.148 92.800,300.004 92.800 C 300.860 92.800,302.424 92.983,303.480 93.208 C 304.673 93.461,312.513 93.575,324.185 93.508 L 342.970 93.400 306.062 56.480 L 269.155 19.559 269.302 40.680 M196.600 113.200 C 196.160 113.389,195.046 113.556,194.124 113.572 C 193.202 113.587,192.336 113.780,192.200 114.000 C 192.064 114.220,191.582 114.400,191.128 114.400 C 188.379 114.400,179.070 120.470,176.400 124.003 C 175.850 124.731,175.220 125.530,175.000 125.779 C 172.510 128.593,169.804 136.179,169.351 141.614 C 168.451 152.404,180.053 152.466,181.180 141.678 C 181.899 134.794,185.107 130.106,191.341 126.830 C 192.628 126.154,194.012 125.600,194.417 125.600 C 194.822 125.600,195.264 125.420,195.400 125.200 C 195.540 124.973,197.530 124.800,200.000 124.800 C 202.470 124.800,204.460 124.973,204.600 125.200 C 204.736 125.420,205.276 125.600,205.800 125.600 C 206.324 125.600,206.864 125.780,207.000 126.000 C 207.136 126.220,207.597 126.400,208.024 126.400 C 208.451 126.400,208.800 126.536,208.800 126.702 C 208.800 126.869,209.385 127.262,210.100 127.576 C 214.787 129.638,219.200 137.505,219.200 143.800 C 219.200 153.551,210.509 162.800,201.347 162.800 C 198.326 162.800,194.800 164.836,194.800 166.581 C 194.800 166.895,194.620 167.264,194.400 167.400 C 194.146 167.557,194.000 172.596,194.000 181.200 C 194.000 189.804,194.146 194.843,194.400 195.000 C 194.620 195.136,194.800 195.578,194.800 195.982 C 194.800 197.838,198.744 199.940,201.210 199.398 C 205.378 198.482,206.000 196.512,206.000 184.215 L 206.000 174.128 207.700 173.618 C 209.525 173.071,210.982 172.519,212.095 171.953 C 212.477 171.759,213.062 171.600,213.395 171.600 C 213.728 171.600,214.000 171.420,214.000 171.200 C 214.000 170.980,214.177 170.800,214.392 170.800 C 216.314 170.800,224.268 163.583,225.968 160.297 C 226.280 159.694,226.685 159.200,226.868 159.200 C 227.050 159.200,227.200 158.935,227.200 158.612 C 227.200 158.289,227.523 157.434,227.919 156.712 C 228.314 155.990,228.875 154.590,229.165 153.600 C 229.455 152.610,229.895 151.260,230.142 150.600 C 231.448 147.108,230.179 133.900,228.337 131.820 C 228.151 131.611,228.000 131.116,228.000 130.720 C 228.000 130.324,227.820 130.000,227.600 130.000 C 227.380 130.000,227.200 129.640,227.200 129.200 C 227.200 128.760,227.020 128.400,226.800 128.400 C 226.580 128.400,226.400 128.130,226.400 127.800 C 226.400 127.470,226.220 127.200,226.000 127.200 C 225.780 127.200,225.600 127.022,225.600 126.805 C 225.600 125.602,220.514 120.523,217.008 118.226 C 210.900 114.222,200.298 111.611,196.600 113.200 M147.787 126.023 C 145.221 127.270,107.462 165.372,106.918 167.264 C 105.996 170.469,105.772 170.199,127.186 191.614 C 149.358 213.786,148.655 213.224,152.175 211.570 C 154.005 210.709,154.666 209.955,155.582 207.679 C 156.703 204.897,156.455 204.591,138.137 186.224 C 128.822 176.883,121.200 169.005,121.200 168.718 C 121.200 168.431,128.771 160.637,138.024 151.398 C 157.004 132.447,157.075 132.353,155.157 128.912 C 153.294 125.568,150.765 124.577,147.787 126.023 M247.621 126.132 C 245.154 127.394,242.994 131.731,244.400 132.600 C 244.620 132.736,244.801 133.152,244.802 133.524 C 244.804 133.896,252.453 141.850,261.802 151.200 C 271.150 160.550,278.799 168.471,278.799 168.802 C 278.800 169.133,271.150 177.052,261.800 186.400 C 252.450 195.748,244.800 203.702,244.800 204.075 C 244.800 204.448,244.620 204.864,244.400 205.000 C 243.330 205.661,244.879 209.871,246.576 210.914 C 248.808 212.285,250.259 212.471,252.076 211.616 C 254.560 210.449,292.067 172.851,292.984 170.609 C 294.352 167.266,294.723 167.721,272.819 145.898 C 250.495 123.657,251.271 124.266,247.621 126.132 M197.722 213.543 C 196.170 214.341,194.800 215.755,194.800 216.560 C 194.800 216.886,194.620 217.264,194.400 217.400 C 191.518 219.181,197.837 225.502,201.355 224.356 C 204.442 223.351,207.397 218.510,205.600 217.400 C 205.380 217.264,205.200 216.858,205.200 216.498 C 205.200 215.613,203.220 213.600,202.349 213.600 C 201.963 213.600,201.536 213.420,201.400 213.200 C 201.039 212.616,199.192 212.788,197.722 213.543 M127.900 281.500 C 167.555 281.556,232.445 281.556,272.100 281.500 C 311.755 281.444,279.310 281.398,200.000 281.398 C 120.690 281.398,88.245 281.444,127.900 281.500 M140.500 299.898 C 142.425 299.971,145.575 299.971,147.500 299.898 C 149.425 299.825,147.850 299.765,144.000 299.765 C 140.150 299.765,138.575 299.825,140.500 299.898 M240.500 299.898 C 242.425 299.971,245.575 299.971,247.500 299.898 C 249.425 299.825,247.850 299.765,244.000 299.765 C 240.150 299.765,238.575 299.825,240.500 299.898 M133.944 300.824 L 133.000 301.647 134.200 300.945 C 135.779 300.020,135.803 300.000,135.311 300.000 C 135.079 300.000,134.464 300.371,133.944 300.824 M154.200 300.400 C 154.640 300.589,155.270 300.744,155.600 300.744 C 155.978 300.744,155.904 300.617,155.400 300.400 C 154.960 300.211,154.330 300.056,154.000 300.056 C 153.622 300.056,153.696 300.183,154.200 300.400 M183.944 300.824 L 183.000 301.647 184.200 300.945 C 185.779 300.020,185.803 300.000,185.311 300.000 C 185.079 300.000,184.464 300.371,183.944 300.824 M214.433 300.121 C 214.525 300.188,215.140 300.558,215.800 300.945 L 217.000 301.647 216.056 300.824 C 215.536 300.371,214.921 300.000,214.689 300.000 C 214.457 300.000,214.342 300.054,214.433 300.121 M233.944 300.824 L 233.000 301.647 234.200 300.945 C 235.779 300.020,235.803 300.000,235.311 300.000 C 235.079 300.000,234.464 300.371,233.944 300.824 M254.200 300.400 C 254.640 300.589,255.270 300.744,255.600 300.744 C 255.978 300.744,255.904 300.617,255.400 300.400 C 254.960 300.211,254.330 300.056,254.000 300.056 C 253.622 300.056,253.696 300.183,254.200 300.400 M207.601 301.798 C 207.086 302.348,206.739 302.864,206.832 302.946 C 206.924 303.028,207.419 302.578,207.930 301.947 C 209.076 300.535,208.874 300.444,207.601 301.798 M131.755 303.012 C 131.390 303.569,131.164 304.098,131.253 304.187 C 131.342 304.276,131.718 303.820,132.089 303.174 C 132.914 301.736,132.669 301.617,131.755 303.012 M181.755 303.012 C 181.390 303.569,181.164 304.098,181.253 304.187 C 181.342 304.276,181.718 303.820,182.089 303.174 C 182.914 301.736,182.669 301.617,181.755 303.012 M231.755 303.012 C 231.390 303.569,231.164 304.098,231.253 304.187 C 231.342 304.276,231.718 303.820,232.089 303.174 C 232.914 301.736,232.669 301.617,231.755 303.012 M163.183 305.300 C 164.841 307.066,165.200 307.384,165.200 307.083 C 165.200 307.019,164.345 306.164,163.300 305.183 L 161.400 303.400 163.183 305.300 M206.180 304.107 C 206.073 304.386,206.034 309.201,206.094 314.807 L 206.201 325.000 206.401 314.300 C 206.510 308.415,206.549 303.600,206.487 303.600 C 206.426 303.600,206.287 303.828,206.180 304.107 M263.183 305.300 C 264.841 307.066,265.200 307.384,265.200 307.083 C 265.200 307.019,264.345 306.164,263.300 305.183 L 261.400 303.400 263.183 305.300 M218.988 331.200 C 218.988 345.170,219.039 350.885,219.100 343.900 C 219.161 336.915,219.161 325.485,219.100 318.500 C 219.039 311.515,218.988 317.230,218.988 331.200 M166.039 308.976 C 166.501 309.759,166.956 310.400,167.050 310.400 C 167.334 310.400,166.036 308.069,165.602 307.801 C 165.380 307.664,165.577 308.193,166.039 308.976 M266.039 308.976 C 266.501 309.759,266.956 310.400,267.050 310.400 C 267.334 310.400,266.036 308.069,265.602 307.801 C 265.380 307.664,265.577 308.193,266.039 308.976 M145.300 312.691 C 146.125 312.778,147.475 312.778,148.300 312.691 C 149.125 312.605,148.450 312.534,146.800 312.534 C 145.150 312.534,144.475 312.605,145.300 312.691 M245.300 312.691 C 246.125 312.778,247.475 312.778,248.300 312.691 C 249.125 312.605,248.450 312.534,246.800 312.534 C 245.150 312.534,244.475 312.605,245.300 312.691 M168.056 313.200 C 168.056 313.530,168.211 314.160,168.400 314.600 C 168.617 315.104,168.744 315.178,168.744 314.800 C 168.744 314.470,168.589 313.840,168.400 313.400 C 168.183 312.896,168.056 312.822,168.056 313.200 M268.056 313.200 C 268.056 313.530,268.211 314.160,268.400 314.600 C 268.617 315.104,268.744 315.178,268.744 314.800 C 268.744 314.470,268.589 313.840,268.400 313.400 C 268.183 312.896,268.056 312.822,268.056 313.200 M164.106 331.168 C 163.174 332.250,161.509 333.720,160.406 334.435 C 158.208 335.859,157.775 336.344,159.500 335.450 C 160.960 334.694,164.175 331.840,165.219 330.373 C 166.458 328.633,166.018 328.947,164.106 331.168 M264.106 331.168 C 263.174 332.250,261.509 333.720,260.406 334.435 C 258.208 335.859,257.775 336.344,259.500 335.450 C 260.960 334.694,264.175 331.840,265.219 330.373 C 266.458 328.633,266.018 328.947,264.106 331.168 M206.083 348.076 C 206.037 353.728,206.135 358.437,206.300 358.539 C 206.465 358.641,206.554 355.637,206.497 351.863 C 206.305 339.045,206.166 337.773,206.083 348.076 M56.000 349.776 C 56.000 350.753,56.180 351.664,56.400 351.800 C 56.647 351.952,56.800 351.271,56.800 350.024 C 56.800 348.911,56.620 348.000,56.400 348.000 C 56.180 348.000,56.000 348.799,56.000 349.776 M343.200 350.024 C 343.200 351.271,343.353 351.952,343.600 351.800 C 343.820 351.664,344.000 350.753,344.000 349.776 C 344.000 348.799,343.820 348.000,343.600 348.000 C 343.380 348.000,343.200 348.911,343.200 350.024 M56.800 353.600 C 56.800 354.260,56.980 354.800,57.200 354.800 C 57.420 354.800,57.600 354.260,57.600 353.600 C 57.600 352.940,57.420 352.400,57.200 352.400 C 56.980 352.400,56.800 352.940,56.800 353.600 M342.400 353.576 C 342.400 354.223,342.580 354.864,342.800 355.000 C 343.038 355.147,343.200 354.671,343.200 353.824 C 343.200 353.041,343.020 352.400,342.800 352.400 C 342.580 352.400,342.400 352.929,342.400 353.576 M57.817 355.727 C 57.623 356.163,57.675 356.635,57.947 356.907 C 58.196 357.156,58.400 357.684,58.400 358.080 C 58.400 358.476,58.580 358.800,58.800 358.800 C 59.301 358.800,59.323 357.887,58.834 357.380 C 58.632 357.171,58.394 356.550,58.304 356.000 C 58.161 355.125,58.100 355.091,57.817 355.727 M341.600 356.153 C 341.600 356.703,341.420 357.264,341.200 357.400 C 340.980 357.536,340.800 357.907,340.800 358.224 C 340.800 358.541,340.980 358.800,341.200 358.800 C 341.420 358.800,341.600 358.440,341.600 358.000 C 341.600 357.560,341.780 357.200,342.000 357.200 C 342.220 357.200,342.400 356.851,342.400 356.424 C 342.400 355.997,342.220 355.536,342.000 355.400 C 341.774 355.260,341.600 355.588,341.600 356.153 M141.775 360.900 L 140.600 362.200 141.900 361.025 C 143.112 359.930,143.384 359.600,143.075 359.600 C 143.006 359.600,142.421 360.185,141.775 360.900 M191.775 360.900 L 190.600 362.200 191.900 361.025 C 193.112 359.930,193.384 359.600,193.075 359.600 C 193.006 359.600,192.421 360.185,191.775 360.900 M206.800 359.725 C 206.800 359.794,207.385 360.379,208.100 361.025 L 209.400 362.200 208.225 360.900 C 207.130 359.688,206.800 359.416,206.800 359.725 M241.775 360.900 L 240.600 362.200 241.900 361.025 C 242.615 360.379,243.200 359.794,243.200 359.725 C 243.200 359.416,242.870 359.688,241.775 360.900 M137.600 362.400 L 135.400 362.670 137.400 362.729 C 138.500 362.761,139.670 362.613,140.000 362.400 C 140.330 362.187,140.420 362.039,140.200 362.071 C 139.980 362.104,138.810 362.252,137.600 362.400 M187.600 362.400 L 185.400 362.670 187.400 362.729 C 188.500 362.761,189.670 362.613,190.000 362.400 C 190.330 362.187,190.420 362.039,190.200 362.071 C 189.980 362.104,188.810 362.252,187.600 362.400 M210.262 362.500 C 210.364 362.665,211.416 362.800,212.600 362.800 C 213.784 362.800,214.836 362.665,214.938 362.500 C 215.040 362.335,213.988 362.200,212.600 362.200 C 211.212 362.200,210.160 362.335,210.262 362.500 M237.600 362.400 L 235.400 362.670 237.400 362.729 C 238.500 362.761,239.670 362.613,240.000 362.400 C 240.330 362.187,240.420 362.039,240.200 362.071 C 239.980 362.104,238.810 362.252,237.600 362.400 M60.800 363.000 C 60.800 363.330,60.980 363.600,61.200 363.600 C 61.420 363.600,61.600 363.330,61.600 363.000 C 61.600 362.670,61.420 362.400,61.200 362.400 C 60.980 362.400,60.800 362.670,60.800 363.000 M338.259 363.239 C 337.883 363.678,337.682 364.209,337.812 364.419 C 337.941 364.628,337.853 364.800,337.615 364.800 C 337.377 364.800,336.975 365.257,336.720 365.816 C 336.215 366.925,329.681 373.600,329.101 373.600 C 328.515 373.600,327.480 374.815,327.807 375.119 C 327.973 375.274,328.190 375.175,328.288 374.900 C 328.386 374.625,328.680 374.400,328.941 374.400 C 329.436 374.400,332.512 371.868,334.529 369.800 C 335.627 368.675,336.058 368.093,338.593 364.320 C 339.655 362.737,339.399 361.908,338.259 363.239 M61.429 363.953 C 61.218 364.295,62.671 366.464,63.293 366.733 C 63.462 366.807,63.600 367.089,63.600 367.361 C 63.600 368.023,69.360 373.600,70.043 373.600 C 70.340 373.600,69.101 372.111,67.291 370.292 C 65.481 368.472,64.000 366.845,64.000 366.675 C 64.000 366.505,63.640 365.980,63.200 365.508 C 62.760 365.036,62.400 364.413,62.400 364.125 C 62.400 363.531,61.760 363.418,61.429 363.953 M70.800 373.928 C 70.800 374.437,72.739 376.000,73.370 376.000 C 73.680 376.000,74.014 376.225,74.112 376.500 C 74.210 376.775,74.427 376.874,74.593 376.719 C 74.973 376.365,73.841 375.200,73.117 375.200 C 72.820 375.200,72.317 374.840,72.000 374.400 C 71.410 373.581,70.800 373.341,70.800 373.928 M325.660 375.842 C 325.362 376.178,325.252 376.576,325.414 376.726 C 325.577 376.877,325.790 376.775,325.888 376.500 C 325.986 376.225,326.332 376.000,326.657 376.000 C 326.982 376.000,327.136 375.820,327.000 375.600 C 326.662 375.054,326.298 375.119,325.660 375.842 M323.600 377.200 C 323.600 377.420,323.870 377.600,324.200 377.600 C 324.530 377.600,324.800 377.420,324.800 377.200 C 324.800 376.980,324.530 376.800,324.200 376.800 C 323.870 376.800,323.600 376.980,323.600 377.200 M78.800 378.800 C 78.800 379.020,79.070 379.200,79.400 379.200 C 79.730 379.200,80.000 379.020,80.000 378.800 C 80.000 378.580,79.730 378.400,79.400 378.400 C 79.070 378.400,78.800 378.580,78.800 378.800 M320.000 378.800 C 320.000 379.020,320.360 379.200,320.800 379.200 C 321.240 379.200,321.600 379.020,321.600 378.800 C 321.600 378.580,321.240 378.400,320.800 378.400 C 320.360 378.400,320.000 378.580,320.000 378.800 M80.400 379.600 C 80.400 379.820,80.749 380.000,81.176 380.000 C 81.603 380.000,82.064 379.820,82.200 379.600 C 82.340 379.373,82.004 379.200,81.424 379.200 C 80.861 379.200,80.400 379.380,80.400 379.600 M318.000 379.600 C 318.000 379.820,318.360 380.000,318.800 380.000 C 319.240 380.000,319.600 379.820,319.600 379.600 C 319.600 379.380,319.240 379.200,318.800 379.200 C 318.360 379.200,318.000 379.380,318.000 379.600 M82.800 380.400 C 82.800 380.620,83.340 380.800,84.000 380.800 C 84.660 380.800,85.200 380.620,85.200 380.400 C 85.200 380.180,84.660 380.000,84.000 380.000 C 83.340 380.000,82.800 380.180,82.800 380.400 M315.200 380.400 C 315.200 380.620,315.639 380.800,316.176 380.800 C 316.713 380.800,317.264 380.620,317.400 380.400 C 317.544 380.167,317.137 380.000,316.424 380.000 C 315.751 380.000,315.200 380.180,315.200 380.400 M85.800 381.200 C 85.936 381.420,86.746 381.600,87.600 381.600 C 88.454 381.600,89.264 381.420,89.400 381.200 C 89.553 380.953,88.863 380.800,87.600 380.800 C 86.337 380.800,85.647 380.953,85.800 381.200 M310.600 381.200 C 310.736 381.420,311.546 381.600,312.400 381.600 C 313.254 381.600,314.064 381.420,314.200 381.200 C 314.353 380.953,313.663 380.800,312.400 380.800 C 311.137 380.800,310.447 380.953,310.600 381.200 " stroke="none" fill="#8494fc" fill-rule="evenodd"></path><path id="path3" d="M134.932 301.226 C 131.482 302.934,131.599 301.870,131.607 331.496 L 131.613 357.400 132.507 358.973 C 134.433 362.364,138.441 363.047,141.386 360.487 C 143.399 358.736,143.600 357.509,143.600 346.951 L 143.600 337.200 147.500 337.186 C 167.592 337.112,176.216 314.594,160.330 303.687 C 155.547 300.403,139.697 298.867,134.932 301.226 M184.932 301.226 C 181.482 302.934,181.599 301.870,181.607 331.496 L 181.613 357.400 182.507 358.973 C 184.433 362.364,188.441 363.047,191.386 360.487 C 193.399 358.736,193.600 357.509,193.600 346.951 L 193.600 337.200 200.000 337.200 L 206.400 337.200 206.406 346.700 C 206.413 356.972,206.636 358.418,208.509 360.291 C 211.469 363.251,215.662 362.527,217.632 358.716 C 218.871 356.321,218.819 306.319,217.576 303.750 C 216.166 300.838,212.899 299.712,210.084 301.168 C 206.697 302.919,206.400 304.093,206.400 315.728 L 206.400 325.200 200.000 325.200 L 193.600 325.200 193.600 315.224 C 193.600 309.004,193.449 305.154,193.200 305.000 C 192.980 304.864,192.800 304.437,192.800 304.051 C 192.800 301.466,187.958 299.728,184.932 301.226 M234.932 301.226 C 231.482 302.934,231.599 301.870,231.607 331.496 L 231.613 357.400 232.507 358.973 C 234.433 362.364,238.441 363.047,241.386 360.487 C 243.399 358.736,243.600 357.509,243.600 346.951 L 243.600 337.200 247.500 337.186 C 267.592 337.112,276.216 314.594,260.330 303.687 C 255.547 300.403,239.697 298.867,234.932 301.226 M154.611 314.189 C 157.783 317.362,156.934 322.587,152.896 324.749 C 152.422 325.002,150.199 325.200,147.826 325.200 L 143.600 325.200 143.600 318.800 L 143.600 312.400 148.211 312.400 L 152.821 312.400 154.611 314.189 M254.611 314.189 C 257.211 316.790,257.214 320.822,254.618 323.418 C 253.075 324.961,252.165 325.200,247.826 325.200 L 243.600 325.200 243.600 318.800 L 243.600 312.400 248.211 312.400 L 252.821 312.400 254.611 314.189 " stroke="none" fill="#fbfbfc" fill-rule="evenodd"></path><path id="path4" d="M268.894 40.700 C 269.014 61.797,269.065 63.151,269.840 65.800 C 274.421 81.440,286.816 91.922,302.745 93.625 C 306.858 94.065,343.344 93.991,343.792 93.541 C 344.114 93.219,340.597 89.437,333.651 82.637 C 330.709 79.757,326.839 75.891,325.051 74.047 C 323.263 72.204,319.393 68.334,316.451 65.447 C 313.509 62.561,309.819 58.867,308.251 57.238 C 306.683 55.609,302.987 51.919,300.038 49.038 C 297.089 46.157,293.399 42.474,291.838 40.853 C 288.116 36.988,281.638 30.514,277.947 26.971 C 276.326 25.415,273.763 22.850,272.251 21.271 C 270.738 19.692,269.336 18.400,269.135 18.400 C 268.916 18.400,268.819 27.372,268.894 40.700 M324.185 93.508 C 312.513 93.575,304.673 93.461,303.480 93.208 C 302.424 92.983,300.860 92.800,300.004 92.800 C 299.148 92.800,298.336 92.620,298.200 92.400 C 298.064 92.180,297.421 92.000,296.771 92.000 C 296.121 92.000,295.277 91.841,294.895 91.647 C 294.513 91.452,293.750 91.115,293.200 90.897 C 287.067 88.469,281.473 84.431,277.600 79.639 C 276.830 78.686,276.020 77.695,275.800 77.438 C 275.245 76.787,274.400 75.320,273.362 73.200 C 269.469 65.250,269.473 65.288,269.302 40.680 L 269.155 19.559 306.062 56.480 L 342.970 93.400 324.185 93.508 M194.400 112.864 C 183.198 115.926,177.353 120.182,172.515 128.800 C 169.145 134.803,167.684 143.965,169.598 147.104 C 172.604 152.034,181.322 150.147,181.162 144.600 L 181.128 143.400 180.730 144.785 C 179.120 150.399,172.224 151.252,169.798 146.138 C 168.055 142.465,171.229 130.041,175.000 125.779 C 175.220 125.530,175.850 124.731,176.400 124.003 C 179.070 120.470,188.379 114.400,191.128 114.400 C 191.582 114.400,192.050 114.243,192.169 114.050 C 192.288 113.858,193.424 113.577,194.693 113.427 C 195.962 113.277,197.805 113.053,198.789 112.929 C 203.470 112.343,211.670 114.726,217.008 118.226 C 220.514 120.523,225.600 125.602,225.600 126.805 C 225.600 127.022,225.780 127.200,226.000 127.200 C 226.220 127.200,226.400 127.470,226.400 127.800 C 226.400 128.130,226.580 128.400,226.800 128.400 C 227.020 128.400,227.200 128.760,227.200 129.200 C 227.200 129.640,227.380 130.000,227.600 130.000 C 227.820 130.000,228.000 130.324,228.000 130.720 C 228.000 131.116,228.151 131.611,228.337 131.820 C 230.179 133.900,231.448 147.108,230.142 150.600 C 229.895 151.260,229.455 152.610,229.165 153.600 C 228.875 154.590,228.314 155.990,227.919 156.712 C 227.523 157.434,227.200 158.289,227.200 158.612 C 227.200 158.935,227.050 159.200,226.868 159.200 C 226.685 159.200,226.280 159.694,225.968 160.297 C 224.268 163.583,216.314 170.800,214.392 170.800 C 214.177 170.800,214.000 170.980,214.000 171.200 C 214.000 171.420,213.728 171.600,213.395 171.600 C 213.062 171.600,212.477 171.759,212.095 171.953 C 210.982 172.519,209.525 173.071,207.700 173.618 L 206.000 174.128 206.000 184.215 C 206.000 196.512,205.378 198.482,201.210 199.398 C 198.744 199.940,194.800 197.838,194.800 195.982 C 194.800 195.578,194.620 195.136,194.400 195.000 C 194.146 194.843,194.000 189.804,194.000 181.200 C 194.000 172.596,194.146 167.557,194.400 167.400 C 194.620 167.264,194.800 166.895,194.800 166.581 C 194.800 164.836,198.326 162.800,201.347 162.800 C 210.509 162.800,219.200 153.551,219.200 143.800 C 219.200 137.505,214.787 129.638,210.100 127.576 C 209.385 127.262,208.800 126.869,208.800 126.702 C 208.800 126.536,208.451 126.400,208.024 126.400 C 207.597 126.400,207.136 126.220,207.000 126.000 C 206.864 125.780,206.324 125.600,205.800 125.600 C 205.276 125.600,204.736 125.420,204.600 125.200 C 204.460 124.973,202.470 124.800,200.000 124.800 C 197.530 124.800,195.540 124.973,195.400 125.200 C 195.264 125.420,194.822 125.600,194.417 125.600 C 193.530 125.600,189.517 127.667,187.664 129.078 C 184.365 131.591,181.151 137.743,181.239 141.378 C 181.276 142.895,181.309 142.844,181.754 140.600 C 185.853 119.903,214.956 120.453,218.437 141.294 C 220.191 151.791,211.011 162.400,200.175 162.400 C 197.518 162.400,195.174 163.940,194.165 166.349 C 193.390 168.199,193.332 194.731,194.100 196.105 C 196.862 201.048,202.411 201.401,205.490 196.831 C 206.379 195.514,206.400 195.235,206.404 185.041 L 206.408 174.600 209.304 173.670 C 236.160 165.042,239.168 128.728,214.098 115.795 C 212.533 114.988,210.656 114.176,209.926 113.990 C 209.197 113.804,207.520 113.377,206.200 113.040 C 203.524 112.358,196.628 112.255,194.400 112.864 M147.600 125.434 C 146.049 126.101,107.942 163.850,106.972 165.680 C 106.658 166.274,106.418 167.174,106.441 167.680 C 106.472 168.387,106.579 168.276,106.903 167.200 C 107.502 165.210,145.366 127.186,147.965 125.964 C 150.792 124.635,153.361 125.688,155.157 128.912 C 157.075 132.353,157.004 132.447,138.024 151.398 C 128.771 160.637,121.200 168.432,121.200 168.719 C 121.200 169.007,128.776 176.837,138.036 186.121 C 153.951 202.076,156.022 204.410,155.989 206.349 C 155.961 207.979,154.133 210.571,152.379 211.468 C 151.399 211.969,150.923 212.383,151.320 212.389 C 154.874 212.444,157.640 206.639,155.631 203.343 C 155.209 202.652,147.470 194.695,138.432 185.661 C 129.395 176.627,122.002 169.003,122.004 168.718 C 122.007 168.433,129.482 160.738,138.616 151.619 C 147.750 142.499,155.488 134.506,155.811 133.857 C 158.336 128.797,152.854 123.174,147.600 125.434 M247.289 125.647 C 244.231 127.161,242.883 130.625,244.176 133.651 C 244.525 134.466,251.331 141.568,261.376 151.598 C 270.519 160.727,278.000 168.468,278.000 168.800 C 278.000 169.132,270.524 176.873,261.387 186.002 C 244.441 202.932,243.600 203.892,243.600 206.307 C 243.600 209.038,246.528 212.437,248.825 212.373 L 249.800 212.346 248.800 211.932 C 246.555 211.001,245.814 210.408,244.929 208.832 C 243.955 207.098,243.723 205.418,244.400 205.000 C 244.620 204.864,244.800 204.448,244.800 204.075 C 244.800 203.702,252.450 195.748,261.800 186.400 C 271.150 177.052,278.800 169.133,278.799 168.802 C 278.799 168.471,271.150 160.550,261.802 151.200 C 252.453 141.850,244.804 133.896,244.802 133.524 C 244.801 133.152,244.620 132.736,244.400 132.600 C 242.933 131.693,245.169 127.372,247.778 126.071 C 251.330 124.300,250.533 123.670,272.819 145.886 C 295.000 167.998,294.477 167.345,292.830 170.845 C 291.754 173.134,254.587 210.391,252.200 211.575 C 251.275 212.033,250.904 212.375,251.320 212.384 C 252.886 212.419,254.881 210.575,273.666 191.729 C 295.090 170.236,294.575 170.873,293.585 167.100 C 293.190 165.598,290.867 163.122,273.669 145.872 C 251.341 123.475,251.473 123.577,247.289 125.647 M106.427 170.046 C 106.386 171.619,106.728 171.990,126.566 191.906 C 145.710 211.125,147.302 212.581,148.868 212.293 C 149.666 212.146,149.598 212.076,148.400 211.809 C 146.958 211.487,108.614 173.852,107.689 171.850 C 107.473 171.383,107.106 170.550,106.875 170.000 L 106.454 169.000 106.427 170.046 M197.303 212.975 C 192.497 215.633,192.433 221.901,197.186 224.300 C 201.604 226.530,206.400 223.534,206.400 218.546 C 206.400 214.293,200.951 210.957,197.303 212.975 M201.400 213.200 C 201.536 213.420,201.963 213.600,202.349 213.600 C 203.220 213.600,205.200 215.613,205.200 216.498 C 205.200 216.858,205.380 217.264,205.600 217.400 C 207.397 218.510,204.442 223.351,201.355 224.356 C 197.837 225.502,191.518 219.181,194.400 217.400 C 194.620 217.264,194.800 216.886,194.800 216.560 C 194.800 214.607,200.482 211.715,201.400 213.200 M191.829 302.038 C 192.473 302.829,193.081 303.408,193.179 303.325 C 193.278 303.242,192.751 302.595,192.009 301.887 L 190.658 300.600 191.829 302.038 M193.789 315.100 L 193.800 325.000 199.900 325.016 L 206.001 325.032 200.007 324.906 L 194.014 324.779 193.896 314.989 L 193.779 305.200 193.789 315.100 M143.784 318.900 L 143.800 325.000 147.501 325.024 L 151.202 325.048 147.611 324.909 L 144.021 324.770 143.894 318.785 L 143.768 312.799 143.784 318.900 M243.784 318.900 L 243.800 325.000 247.501 325.024 L 251.202 325.048 247.611 324.909 L 244.021 324.770 243.894 318.785 L 243.768 312.799 243.784 318.900 M156.109 318.800 C 156.109 319.790,156.187 320.195,156.282 319.700 C 156.378 319.205,156.378 318.395,156.282 317.900 C 156.187 317.405,156.109 317.810,156.109 318.800 M256.109 318.800 C 256.109 319.790,256.187 320.195,256.282 319.700 C 256.378 319.205,256.378 318.395,256.282 317.900 C 256.187 317.405,256.109 317.810,256.109 318.800 M162.981 332.100 L 161.400 333.800 163.100 332.219 C 164.681 330.748,164.984 330.400,164.681 330.400 C 164.616 330.400,163.851 331.165,162.981 332.100 M262.981 332.100 L 261.400 333.800 263.100 332.219 C 264.035 331.349,264.800 330.584,264.800 330.519 C 264.800 330.216,264.452 330.519,262.981 332.100 M143.773 347.400 C 143.773 352.900,143.830 355.205,143.899 352.523 C 143.968 349.841,143.968 345.341,143.899 342.523 C 143.830 339.705,143.774 341.900,143.773 347.400 M193.773 347.400 C 193.773 352.900,193.830 355.205,193.899 352.523 C 193.968 349.841,193.968 345.341,193.899 342.523 C 193.830 339.705,193.774 341.900,193.773 347.400 M243.773 347.400 C 243.773 352.900,243.830 355.205,243.899 352.523 C 243.968 349.841,243.968 345.341,243.899 342.523 C 243.830 339.705,243.774 341.900,243.773 347.400 M132.000 359.464 C 132.000 359.682,132.495 360.297,133.100 360.830 L 134.200 361.800 133.200 360.600 C 132.650 359.940,132.155 359.325,132.100 359.233 C 132.045 359.142,132.000 359.245,132.000 359.464 M182.000 359.464 C 182.000 359.682,182.495 360.297,183.100 360.830 L 184.200 361.800 183.200 360.600 C 182.650 359.940,182.155 359.325,182.100 359.233 C 182.045 359.142,182.000 359.245,182.000 359.464 M232.000 359.464 C 232.000 359.682,232.495 360.297,233.100 360.830 L 234.200 361.800 233.200 360.600 C 232.650 359.940,232.155 359.325,232.100 359.233 C 232.045 359.142,232.000 359.245,232.000 359.464 " stroke="none" fill="#98a1fc" fill-rule="evenodd"></path></g></svg>