<svg id="svg" version="1.1" xmlns="http://www.w3.org/2000/svg" xmlns:xlink="http://www.w3.org/1999/xlink" width="400" height="400" viewBox="0, 0, 400,400"><g id="svgg"><path id="path0" d="M42.400 12.400 C 42.070 12.613,41.226 12.791,40.524 12.794 C 39.822 12.797,39.136 12.980,39.000 13.200 C 38.864 13.420,38.401 13.600,37.971 13.600 C 37.541 13.600,36.877 13.761,36.495 13.958 C 36.113 14.155,34.540 14.919,33.000 15.656 C 31.460 16.393,30.140 17.132,30.067 17.298 C 29.993 17.464,29.678 17.600,29.367 17.600 C 29.055 17.600,28.800 17.780,28.800 18.000 C 28.800 18.220,28.622 18.400,28.405 18.400 C 27.355 18.400,18.400 27.355,18.400 28.405 C 18.400 28.622,18.220 28.800,18.000 28.800 C 17.780 28.800,17.600 29.055,17.600 29.367 C 17.600 29.678,17.465 29.993,17.300 30.067 C 16.868 30.259,15.200 33.572,15.200 34.238 C 15.200 34.547,15.020 34.800,14.800 34.800 C 14.580 34.800,14.400 35.149,14.400 35.576 C 14.400 36.003,14.220 36.464,14.000 36.600 C 13.780 36.736,13.600 37.276,13.600 37.800 C 13.600 38.324,13.439 38.852,13.242 38.974 C 13.045 39.095,12.749 39.961,12.583 40.897 C 12.106 43.586,11.924 357.284,12.399 357.759 C 12.620 357.980,12.800 358.743,12.800 359.456 C 12.800 360.169,12.980 360.864,13.200 361.000 C 13.420 361.136,13.600 361.676,13.600 362.200 C 13.600 362.724,13.780 363.264,14.000 363.400 C 14.220 363.536,14.400 363.997,14.400 364.424 C 14.400 364.851,14.580 365.200,14.800 365.200 C 15.020 365.200,15.200 365.453,15.200 365.762 C 15.200 366.428,16.868 369.741,17.300 369.933 C 17.465 370.007,17.603 370.277,17.607 370.533 C 17.627 371.798,27.190 381.600,28.405 381.600 C 28.622 381.600,28.800 381.780,28.800 382.000 C 28.800 382.220,29.055 382.400,29.367 382.400 C 29.678 382.400,29.993 382.535,30.067 382.700 C 30.259 383.132,33.572 384.800,34.238 384.800 C 34.547 384.800,34.800 384.980,34.800 385.200 C 34.800 385.420,35.149 385.600,35.576 385.600 C 36.003 385.600,36.464 385.780,36.600 386.000 C 36.736 386.220,37.276 386.400,37.800 386.400 C 38.324 386.400,38.864 386.580,39.000 386.800 C 39.136 387.020,39.856 387.200,40.600 387.200 C 41.344 387.200,42.064 387.380,42.200 387.600 C 42.358 387.856,48.337 388.000,58.824 388.000 L 75.200 388.000 75.200 331.600 C 75.200 294.267,75.335 275.200,75.600 275.200 C 75.839 275.200,76.000 273.667,76.000 271.400 C 76.000 269.133,76.161 267.600,76.400 267.600 C 76.620 267.600,76.800 266.970,76.800 266.200 C 76.800 265.430,76.980 264.800,77.200 264.800 C 77.420 264.800,77.600 264.350,77.600 263.800 C 77.600 263.250,77.780 262.800,78.000 262.800 C 78.220 262.800,78.400 262.260,78.400 261.600 C 78.400 260.940,78.580 260.400,78.800 260.400 C 79.020 260.400,79.200 260.040,79.200 259.600 C 79.200 259.160,79.380 258.800,79.600 258.800 C 79.820 258.800,80.000 258.530,80.000 258.200 C 80.000 257.870,80.180 257.600,80.400 257.600 C 80.620 257.600,80.800 257.240,80.800 256.800 C 80.800 256.360,80.950 256.000,81.132 256.000 C 81.315 256.000,81.720 255.514,82.032 254.921 C 83.049 252.988,90.976 244.800,91.830 244.800 C 91.942 244.800,92.420 244.440,92.892 244.000 C 93.364 243.560,93.987 243.200,94.275 243.200 C 94.564 243.200,94.800 243.020,94.800 242.800 C 94.800 242.580,95.160 242.400,95.600 242.400 C 96.040 242.400,96.400 242.220,96.400 242.000 C 96.400 241.780,96.664 241.600,96.986 241.600 C 97.710 241.600,101.151 240.514,102.095 239.987 C 102.477 239.774,103.332 239.600,103.995 239.600 C 104.658 239.600,105.200 239.433,105.200 239.228 C 105.200 237.862,293.583 237.861,294.980 239.228 C 295.189 239.433,295.729 239.603,296.180 239.606 C 297.002 239.612,299.447 240.378,300.203 240.867 C 300.425 241.010,301.280 241.254,302.103 241.408 C 302.926 241.563,303.600 241.849,303.600 242.045 C 303.600 242.240,303.960 242.400,304.400 242.400 C 304.840 242.400,305.200 242.580,305.200 242.800 C 305.200 243.020,305.520 243.200,305.912 243.200 C 306.303 243.200,306.883 243.560,307.200 244.000 C 307.517 244.440,308.009 244.800,308.293 244.800 C 308.996 244.800,317.600 253.529,317.600 254.241 C 317.600 254.359,318.140 255.241,318.800 256.200 C 319.460 257.159,320.000 258.137,320.000 258.372 C 320.000 258.607,320.180 258.800,320.400 258.800 C 320.620 258.800,320.800 259.160,320.800 259.600 C 320.800 260.040,320.980 260.400,321.200 260.400 C 321.420 260.400,321.600 260.940,321.600 261.600 C 321.600 262.260,321.780 262.800,322.000 262.800 C 322.220 262.800,322.400 263.239,322.400 263.776 C 322.400 264.313,322.580 264.864,322.800 265.000 C 323.020 265.136,323.200 265.766,323.200 266.400 C 323.200 267.034,323.380 267.664,323.600 267.800 C 323.820 267.936,324.000 269.657,324.000 271.624 C 324.000 273.741,324.163 275.200,324.400 275.200 C 324.665 275.200,324.800 294.267,324.800 331.600 L 324.800 388.000 341.176 388.000 C 351.663 388.000,357.642 387.856,357.800 387.600 C 357.936 387.380,358.757 387.200,359.624 387.200 C 360.491 387.200,361.200 387.020,361.200 386.800 C 361.200 386.580,361.740 386.400,362.400 386.400 C 363.060 386.400,363.600 386.220,363.600 386.000 C 363.600 385.780,363.960 385.600,364.400 385.600 C 364.840 385.600,365.200 385.420,365.200 385.200 C 365.200 384.980,365.453 384.800,365.762 384.800 C 366.280 384.800,369.540 383.261,370.000 382.799 C 370.110 382.689,370.695 382.344,371.300 382.032 C 371.905 381.720,372.400 381.315,372.400 381.132 C 372.400 380.950,372.592 380.800,372.826 380.800 C 373.060 380.800,374.950 379.102,377.026 377.026 C 379.102 374.950,380.800 373.060,380.800 372.826 C 380.800 372.592,380.950 372.400,381.132 372.400 C 381.315 372.400,381.720 371.905,382.032 371.300 C 382.344 370.695,382.690 370.110,382.802 370.000 C 383.257 369.552,385.600 364.648,385.600 364.144 C 385.600 363.845,385.780 363.600,386.000 363.600 C 386.220 363.600,386.400 363.060,386.400 362.400 C 386.400 361.740,386.580 361.200,386.800 361.200 C 387.020 361.200,387.200 360.491,387.200 359.624 C 387.200 358.757,387.380 357.936,387.600 357.800 C 388.155 357.457,388.155 95.200,387.600 95.200 C 387.380 95.200,387.200 94.840,387.200 94.400 C 387.200 93.960,387.020 93.600,386.800 93.600 C 386.580 93.600,386.400 93.319,386.400 92.976 C 386.400 91.839,308.067 13.904,305.904 12.889 C 304.054 12.021,303.663 12.000,289.404 12.000 L 274.800 12.000 274.800 62.200 C 274.800 95.400,274.665 112.400,274.400 112.400 C 274.172 112.400,274.000 113.592,274.000 115.176 C 274.000 116.703,273.820 118.064,273.600 118.200 C 273.380 118.336,273.200 118.977,273.200 119.624 C 273.200 120.271,273.020 120.800,272.800 120.800 C 272.580 120.800,272.400 121.160,272.400 121.600 C 272.400 122.040,272.220 122.400,272.000 122.400 C 271.780 122.400,271.600 122.760,271.600 123.200 C 271.600 123.640,271.420 124.000,271.200 124.000 C 270.980 124.000,270.800 124.320,270.800 124.712 C 270.800 125.103,270.440 125.683,270.000 126.000 C 269.560 126.317,269.200 126.721,269.200 126.897 C 269.200 127.417,265.084 131.350,263.894 131.968 C 263.292 132.280,262.800 132.685,262.800 132.868 C 262.800 133.050,262.530 133.200,262.200 133.200 C 261.870 133.200,261.600 133.380,261.600 133.600 C 261.600 133.820,261.240 134.000,260.800 134.000 C 260.360 134.000,260.000 134.180,260.000 134.400 C 260.000 134.620,259.640 134.800,259.200 134.800 C 258.760 134.800,258.400 134.980,258.400 135.200 C 258.400 135.420,257.871 135.600,257.224 135.600 C 256.577 135.600,255.936 135.780,255.800 136.000 C 255.664 136.220,254.303 136.400,252.776 136.400 C 251.192 136.400,250.000 136.572,250.000 136.800 C 250.000 137.065,233.141 137.200,200.224 137.200 C 167.471 137.200,150.363 137.063,150.200 136.800 C 150.064 136.580,148.714 136.400,147.200 136.400 C 145.686 136.400,144.336 136.220,144.200 136.000 C 144.064 135.780,143.423 135.600,142.776 135.600 C 142.129 135.600,141.600 135.420,141.600 135.200 C 141.600 134.980,141.240 134.800,140.800 134.800 C 140.360 134.800,140.000 134.664,140.000 134.498 C 140.000 134.331,139.415 133.936,138.700 133.620 C 137.985 133.303,137.051 132.720,136.625 132.322 C 136.198 131.925,135.699 131.600,135.516 131.600 C 135.089 131.600,130.800 127.323,130.800 126.897 C 130.800 126.721,130.440 126.317,130.000 126.000 C 129.560 125.683,129.200 125.103,129.200 124.712 C 129.200 124.320,129.020 124.000,128.800 124.000 C 128.580 124.000,128.400 123.640,128.400 123.200 C 128.400 122.760,128.220 122.400,128.000 122.400 C 127.780 122.400,127.600 122.040,127.600 121.600 C 127.600 121.160,127.420 120.800,127.200 120.800 C 126.980 120.800,126.800 120.260,126.800 119.600 C 126.800 118.940,126.620 118.400,126.400 118.400 C 126.169 118.400,126.000 117.133,126.000 115.400 C 126.000 113.667,125.831 112.400,125.600 112.400 C 125.335 112.400,125.200 95.400,125.200 62.200 L 125.200 12.000 84.100 12.006 C 58.256 12.010,42.777 12.156,42.400 12.400 M149.600 62.400 L 149.600 112.800 200.000 112.800 L 250.400 112.800 250.400 62.400 L 250.400 12.000 200.000 12.000 L 149.600 12.000 149.600 62.400 M107.400 262.540 C 106.740 262.791,105.962 263.221,105.671 263.498 C 105.381 263.774,104.976 264.000,104.771 264.000 C 104.195 264.000,101.200 267.228,101.200 267.848 C 101.200 268.152,101.020 268.400,100.800 268.400 C 100.580 268.400,100.400 268.749,100.400 269.176 C 100.400 269.603,100.220 270.064,100.000 270.200 C 99.736 270.363,99.600 290.471,99.600 329.224 L 99.600 388.000 200.000 388.000 L 300.400 388.000 300.400 329.000 C 300.400 289.933,300.265 270.000,300.000 270.000 C 299.780 270.000,299.600 269.640,299.600 269.200 C 299.600 268.760,299.420 268.400,299.200 268.400 C 298.980 268.400,298.800 268.152,298.800 267.848 C 298.800 267.228,295.805 264.000,295.229 264.000 C 295.024 264.000,294.619 263.775,294.329 263.500 C 292.722 261.980,293.898 261.999,199.772 262.043 C 132.693 262.074,108.283 262.205,107.400 262.540 " stroke="none" fill="#040404" fill-rule="evenodd"></path><path id="path1" d="" stroke="none" fill="#080404" fill-rule="evenodd"></path><path id="path2" d="" stroke="none" fill="#080404" fill-rule="evenodd"></path><path id="path3" d="" stroke="none" fill="#080404" fill-rule="evenodd"></path><path id="path4" d="" stroke="none" fill="#080404" fill-rule="evenodd"></path></g></svg>