<svg id="svg" version="1.1" xmlns="http://www.w3.org/2000/svg" xmlns:xlink="http://www.w3.org/1999/xlink" width="400" height="400" viewBox="0, 0, 400,400"><g id="svgg"><path id="path0" d="M62.606 231.735 C 60.655 232.793,57.600 235.756,57.600 236.589 C 57.600 236.925,57.420 237.200,57.200 237.200 C 56.980 237.200,56.800 237.560,56.800 238.000 C 56.800 238.440,56.620 238.800,56.400 238.800 C 56.135 238.800,56.000 257.400,56.000 293.800 C 56.000 330.200,56.135 348.800,56.400 348.800 C 56.620 348.800,56.800 349.160,56.800 349.600 C 56.800 350.040,56.980 350.400,57.200 350.400 C 57.420 350.400,57.600 350.635,57.600 350.922 C 57.600 351.875,60.266 354.372,62.590 355.594 C 64.996 356.860,74.341 357.467,75.000 356.400 C 75.164 356.135,117.263 356.000,200.000 356.000 C 282.737 356.000,324.836 356.135,325.000 356.400 C 325.527 357.252,335.032 356.883,337.057 355.931 C 339.252 354.899,342.400 352.042,342.400 351.081 C 342.400 350.706,342.580 350.400,342.800 350.400 C 343.020 350.400,343.200 350.040,343.200 349.600 C 343.200 349.160,343.380 348.800,343.600 348.800 C 343.865 348.800,344.000 330.275,344.000 294.024 C 344.000 257.937,343.864 239.163,343.600 239.000 C 343.380 238.864,343.200 238.403,343.200 237.976 C 343.200 237.549,343.020 237.200,342.800 237.200 C 342.580 237.200,342.400 236.906,342.400 236.547 C 342.400 235.646,339.365 232.781,337.262 231.696 C 335.365 230.718,325.544 230.320,325.000 231.200 C 324.836 231.465,282.737 231.600,200.000 231.600 C 117.263 231.600,75.164 231.465,75.000 231.200 C 74.472 230.345,64.364 230.782,62.606 231.735 M185.711 260.909 C 186.640 261.848,187.777 263.333,188.238 264.209 C 188.700 265.084,189.493 266.520,190.001 267.400 C 190.509 268.280,191.129 269.360,191.378 269.800 C 191.626 270.240,192.453 271.680,193.214 273.000 C 194.955 276.018,195.349 276.704,197.772 280.947 C 198.856 282.846,199.866 284.400,200.017 284.400 C 200.246 284.400,203.132 279.563,206.758 273.100 C 208.618 269.787,209.193 268.797,210.763 266.212 C 211.663 264.731,212.400 263.352,212.400 263.149 C 212.400 261.812,216.037 259.200,217.889 259.206 C 223.282 259.222,228.400 262.962,228.400 266.887 C 228.400 268.637,227.966 269.498,223.600 276.400 C 215.096 289.843,211.200 296.253,211.200 296.804 C 211.200 297.007,212.218 298.754,213.463 300.686 C 214.708 302.619,216.476 305.370,217.391 306.800 C 218.307 308.230,220.647 311.830,222.592 314.800 C 228.214 323.385,229.200 325.120,229.200 326.427 C 229.200 332.881,216.719 337.214,213.912 331.734 C 213.070 330.091,211.566 327.465,211.200 327.000 C 211.027 326.780,210.532 325.970,210.101 325.200 C 207.078 319.803,200.302 308.800,200.001 308.800 C 199.799 308.800,199.146 309.655,198.549 310.700 C 197.953 311.745,196.505 314.189,195.332 316.132 C 194.160 318.075,193.200 319.727,193.200 319.803 C 193.200 319.879,192.323 321.370,191.252 323.116 C 190.180 324.862,189.235 326.456,189.152 326.657 C 186.287 333.577,182.832 335.598,177.363 333.552 C 171.078 331.200,169.478 327.355,172.702 322.351 C 173.747 320.728,174.858 318.905,175.169 318.300 C 175.480 317.695,175.885 317.200,176.068 317.200 C 176.250 317.200,176.400 317.031,176.400 316.824 C 176.400 316.617,178.313 313.512,180.651 309.924 C 189.833 295.833,189.156 297.122,188.231 295.500 C 186.876 293.123,183.122 287.044,180.947 283.704 C 179.766 281.891,178.800 280.306,178.800 280.182 C 178.800 280.058,178.080 278.896,177.200 277.600 C 176.320 276.304,175.600 275.054,175.600 274.822 C 175.600 274.590,175.420 274.400,175.200 274.400 C 174.980 274.400,174.800 274.226,174.800 274.013 C 174.800 273.801,174.080 272.513,173.200 271.151 C 170.103 266.360,171.801 262.317,177.880 260.006 C 181.439 258.653,183.743 258.919,185.711 260.909 M167.513 260.624 C 170.443 262.676,170.817 270.017,168.154 273.182 L 167.129 274.400 159.797 274.400 C 155.765 274.400,152.181 274.509,151.833 274.643 C 151.264 274.861,151.200 277.651,151.200 302.082 C 151.200 332.440,151.304 331.270,148.469 332.657 C 146.370 333.684,140.877 333.891,138.618 333.028 C 135.131 331.697,135.426 334.311,135.200 302.658 L 135.000 274.600 127.341 274.400 C 118.738 274.175,118.587 274.125,117.152 271.000 C 115.738 267.920,116.559 262.477,118.692 260.799 C 120.094 259.696,165.953 259.532,167.513 260.624 M281.154 260.653 C 284.272 262.837,284.451 269.934,281.468 273.100 L 280.243 274.400 272.732 274.400 L 265.221 274.400 265.111 302.118 C 264.986 333.360,265.202 331.311,261.869 332.825 C 259.475 333.912,254.601 333.881,252.002 332.763 C 248.617 331.306,248.800 333.078,248.800 301.840 L 248.800 274.400 241.386 274.400 C 235.095 274.400,233.815 274.297,232.939 273.723 C 229.789 271.659,229.498 263.589,232.474 260.817 C 233.702 259.673,279.534 259.518,281.154 260.653 " stroke="none" fill="#f35444" fill-rule="evenodd"></path><path id="path1" d="M250.243 19.033 C 250.109 19.381,250.000 36.301,250.000 56.633 L 250.000 93.600 287.600 93.600 C 312.240 93.600,325.200 93.463,325.200 93.203 C 325.200 92.984,321.672 89.312,317.359 85.043 C 313.047 80.774,309.339 77.101,309.119 76.881 C 308.597 76.359,292.441 60.203,291.919 59.681 C 291.699 59.461,287.982 55.745,283.659 51.422 C 279.337 47.099,275.620 43.383,275.400 43.163 C 275.180 42.943,271.517 39.279,267.259 35.022 C 263.002 30.765,259.363 27.128,259.172 26.941 C 258.982 26.753,257.026 24.755,254.827 22.500 C 250.461 18.024,250.592 18.123,250.243 19.033 M110.336 150.538 C 105.259 152.794,105.014 159.775,109.941 161.833 C 112.257 162.801,288.935 162.613,290.600 161.641 C 294.656 159.272,294.542 153.176,290.398 150.847 L 288.891 150.000 200.146 150.032 C 132.806 150.057,111.143 150.179,110.336 150.538 M109.543 188.463 C 105.436 190.845,105.469 196.830,109.602 199.153 L 111.109 200.000 200.000 200.000 L 288.891 200.000 290.398 199.153 C 294.644 196.767,294.663 190.575,290.432 188.416 C 288.835 187.602,288.637 187.600,199.916 187.609 L 111.000 187.618 109.543 188.463 " stroke="none" fill="#44546c" fill-rule="evenodd"></path><path id="path2" d="M82.726 18.821 C 82.650 19.049,82.186 19.266,81.694 19.303 C 81.202 19.340,80.800 19.512,80.800 19.685 C 80.800 19.858,80.611 20.000,80.381 20.000 C 79.706 20.000,76.400 23.451,76.400 24.156 C 76.400 24.510,76.220 24.800,76.000 24.800 C 75.780 24.800,75.600 25.160,75.600 25.600 C 75.600 26.040,75.420 26.400,75.200 26.400 C 74.934 26.400,74.800 60.733,74.800 128.600 L 74.800 230.800 200.000 230.800 L 325.200 230.800 325.200 162.402 L 325.200 94.004 287.500 93.902 L 249.800 93.800 249.800 56.098 L 249.800 18.396 166.332 18.402 C 109.158 18.406,82.821 18.538,82.726 18.821 M289.640 150.055 C 294.941 151.831,295.628 159.234,290.746 161.981 C 289.292 162.799,289.227 162.800,199.905 162.800 L 110.518 162.800 109.169 161.890 C 104.592 158.806,104.932 152.587,109.800 150.352 C 111.766 149.449,286.967 149.160,289.640 150.055 M290.831 188.110 C 295.411 191.196,294.974 197.773,290.051 199.835 C 288.025 200.684,111.975 200.684,109.949 199.835 C 105.026 197.773,104.589 191.196,109.169 188.110 L 110.518 187.200 200.000 187.200 L 289.482 187.200 290.831 188.110 M180.000 260.269 C 174.086 260.934,170.961 265.953,173.693 270.400 C 174.436 271.610,175.305 273.050,175.622 273.600 C 175.940 274.150,176.290 274.690,176.400 274.800 C 176.510 274.910,176.825 275.405,177.100 275.900 C 178.341 278.135,178.643 278.608,179.300 279.355 C 179.685 279.793,180.000 280.387,180.000 280.675 C 180.000 280.964,180.180 281.200,180.400 281.200 C 180.620 281.200,180.800 281.388,180.800 281.618 C 180.800 281.848,181.700 283.370,182.800 285.000 C 183.900 286.630,184.800 288.137,184.800 288.349 C 184.800 288.560,184.938 288.793,185.108 288.867 C 185.277 288.940,186.202 290.350,187.164 292.000 C 188.126 293.650,189.186 295.316,189.520 295.702 C 190.331 296.639,190.103 297.099,184.975 304.894 C 182.679 308.385,180.800 311.329,180.800 311.437 C 180.800 311.545,180.440 312.020,180.000 312.492 C 179.560 312.964,179.200 313.587,179.200 313.875 C 179.200 314.164,179.020 314.400,178.800 314.400 C 178.580 314.400,178.400 314.636,178.400 314.925 C 178.400 315.213,178.085 315.798,177.700 316.225 C 177.315 316.651,176.745 317.495,176.432 318.100 C 176.120 318.705,175.715 319.200,175.532 319.200 C 175.350 319.200,175.200 319.393,175.200 319.628 C 175.200 319.863,174.627 320.889,173.926 321.908 C 171.137 325.961,171.200 328.113,174.185 330.733 C 177.736 333.851,183.846 334.388,185.230 331.703 C 185.543 331.096,185.889 330.510,185.999 330.400 C 186.110 330.290,186.397 329.840,186.638 329.400 C 187.726 327.409,188.216 326.585,188.421 326.400 C 188.542 326.290,188.952 325.533,189.331 324.719 C 189.710 323.904,190.240 323.004,190.510 322.719 C 190.955 322.247,192.230 320.003,193.360 317.703 C 193.602 317.210,193.935 316.805,194.100 316.803 C 194.265 316.801,194.400 316.643,194.400 316.451 C 194.400 316.259,195.356 314.504,196.524 312.551 C 197.693 310.598,198.772 308.672,198.922 308.272 C 199.095 307.813,199.511 307.591,200.046 307.672 C 200.858 307.794,203.594 312.157,210.062 323.645 C 210.358 324.170,210.690 324.690,210.800 324.800 C 211.196 325.196,212.454 327.415,212.671 328.100 C 212.793 328.485,213.052 328.800,213.247 328.800 C 213.441 328.800,213.600 328.993,213.600 329.228 C 213.600 329.463,214.149 330.453,214.819 331.428 L 216.038 333.200 218.824 333.200 C 224.608 333.200,229.246 329.226,227.983 325.353 C 227.252 323.109,227.103 322.800,226.753 322.800 C 226.559 322.800,226.400 322.530,226.400 322.200 C 226.400 321.870,226.220 321.600,226.000 321.600 C 225.780 321.600,225.600 321.330,225.600 321.000 C 225.600 320.670,225.420 320.400,225.200 320.400 C 224.980 320.400,224.800 320.164,224.800 319.875 C 224.800 319.587,224.440 318.964,224.000 318.492 C 223.560 318.020,223.200 317.446,223.200 317.217 C 223.200 316.988,223.020 316.800,222.800 316.800 C 222.580 316.800,222.400 316.564,222.400 316.275 C 222.400 315.987,222.040 315.364,221.600 314.892 C 221.160 314.420,220.800 313.943,220.800 313.834 C 220.800 313.724,218.952 310.791,216.694 307.317 C 214.436 303.843,212.336 300.505,212.027 299.900 C 211.718 299.295,211.337 298.800,211.181 298.800 C 210.407 298.800,209.916 296.426,210.557 295.786 C 210.911 295.432,211.200 294.989,211.200 294.800 C 211.200 294.611,211.425 294.219,211.700 293.929 C 211.975 293.638,212.638 292.590,213.173 291.600 C 213.708 290.610,214.453 289.350,214.829 288.800 C 216.660 286.123,219.200 281.933,219.200 281.588 C 219.200 281.374,219.380 281.200,219.600 281.200 C 219.820 281.200,220.000 280.964,220.000 280.675 C 220.000 280.387,220.315 279.794,220.700 279.358 C 221.588 278.353,222.783 276.409,223.071 275.500 C 223.193 275.115,223.452 274.800,223.647 274.800 C 223.841 274.800,224.000 274.564,224.000 274.275 C 224.000 273.987,224.360 273.364,224.800 272.892 C 225.240 272.420,225.600 271.919,225.600 271.778 C 225.600 271.638,225.929 271.046,226.330 270.462 C 228.415 267.430,228.258 265.521,225.728 263.138 C 221.615 259.264,213.604 259.239,213.600 263.100 C 213.600 263.375,213.454 263.600,213.275 263.600 C 213.096 263.600,212.702 264.230,212.400 265.000 C 212.098 265.770,211.725 266.400,211.572 266.400 C 211.419 266.400,211.193 266.715,211.071 267.100 C 210.854 267.785,209.596 270.004,209.200 270.400 C 209.090 270.510,208.622 271.320,208.161 272.200 C 207.209 274.016,206.132 275.928,203.320 280.800 C 202.241 282.670,201.238 284.515,201.091 284.900 C 200.407 286.700,195.429 280.402,194.471 276.523 C 194.400 276.235,194.175 276.000,193.971 276.000 C 193.767 276.000,193.600 275.640,193.600 275.200 C 193.600 274.760,193.441 274.400,193.247 274.400 C 193.052 274.400,192.793 274.085,192.671 273.700 C 192.454 273.013,191.195 270.794,190.799 270.400 C 190.689 270.290,190.329 269.660,190.000 269.000 C 189.671 268.340,189.311 267.710,189.201 267.600 C 188.975 267.375,188.240 266.108,187.077 263.940 C 185.306 260.638,183.777 259.845,180.000 260.269 M119.689 261.119 C 116.996 263.192,116.688 270.108,119.171 272.785 C 119.637 273.287,121.144 273.425,127.371 273.537 C 131.798 273.617,135.210 273.847,135.500 274.086 C 135.891 274.408,136.000 280.500,136.000 302.075 C 136.000 320.225,136.141 329.916,136.412 330.422 C 138.222 333.805,148.179 333.659,149.978 330.223 C 150.271 329.663,150.440 320.576,150.505 301.800 L 150.600 274.200 158.500 274.092 C 163.312 274.025,166.400 273.830,166.400 273.592 C 166.400 273.376,166.650 273.200,166.956 273.200 C 169.935 273.200,169.688 263.060,166.661 261.077 C 165.049 260.020,121.066 260.059,119.689 261.119 M232.900 261.782 C 232.185 262.524,231.600 263.480,231.600 263.906 C 231.600 264.332,231.400 265.253,231.157 265.953 C 230.847 266.841,230.837 267.552,231.124 268.312 C 231.350 268.911,231.635 269.862,231.757 270.426 C 232.358 273.213,232.873 273.380,241.533 273.600 L 249.400 273.800 249.495 301.600 C 249.560 320.519,249.729 329.663,250.022 330.223 C 251.654 333.341,259.877 333.930,262.860 331.144 L 264.000 330.079 264.000 302.288 C 264.000 280.542,264.109 274.408,264.500 274.086 C 264.790 273.847,268.202 273.617,272.629 273.537 C 278.760 273.427,280.370 273.282,280.829 272.800 C 283.524 269.968,283.056 262.288,280.104 260.900 C 279.291 260.518,273.750 260.404,256.620 260.416 L 234.200 260.432 232.900 261.782 M75.067 356.666 C 74.200 357.533,74.830 372.614,75.808 374.400 C 76.351 375.390,76.993 376.695,77.236 377.300 C 77.508 377.976,77.981 378.400,78.463 378.400 C 78.894 378.400,79.165 378.535,79.066 378.700 C 78.966 378.865,79.135 379.232,79.442 379.516 C 79.749 379.799,80.000 379.907,80.000 379.754 C 80.000 379.601,80.315 379.729,80.700 380.038 C 81.085 380.347,81.803 380.825,82.295 381.100 C 83.005 381.497,107.280 381.600,199.927 381.600 L 316.664 381.600 318.524 380.659 C 319.547 380.141,320.267 379.601,320.125 379.459 C 319.983 379.316,320.188 379.200,320.581 379.200 C 321.288 379.200,323.581 376.941,323.594 376.231 C 323.597 376.029,323.915 375.515,324.300 375.090 C 324.922 374.403,325.000 373.334,325.000 365.459 L 325.000 356.600 200.167 356.499 C 131.509 356.444,75.214 356.519,75.067 356.666 " stroke="none" fill="#d4d3d3" fill-rule="evenodd"></path><path id="path3" d="M137.500 231.500 C 171.875 231.556,228.125 231.556,262.500 231.500 C 296.875 231.444,268.750 231.397,200.000 231.397 C 131.250 231.397,103.125 231.444,137.500 231.500 M177.880 260.006 C 171.801 262.317,170.103 266.360,173.200 271.151 C 174.080 272.513,174.800 273.801,174.800 274.013 C 174.800 274.226,174.980 274.400,175.200 274.400 C 175.420 274.400,175.600 274.590,175.600 274.822 C 175.600 275.054,176.320 276.304,177.200 277.600 C 178.080 278.896,178.800 280.058,178.800 280.182 C 178.800 280.306,179.766 281.891,180.947 283.704 C 183.122 287.044,186.876 293.123,188.231 295.500 C 189.156 297.122,189.833 295.833,180.651 309.924 C 178.313 313.512,176.400 316.617,176.400 316.824 C 176.400 317.031,176.250 317.200,176.068 317.200 C 175.885 317.200,175.480 317.695,175.169 318.300 C 174.858 318.905,173.747 320.728,172.702 322.351 C 169.478 327.355,171.078 331.200,177.363 333.552 C 182.832 335.598,186.287 333.577,189.152 326.657 C 189.235 326.456,190.180 324.862,191.252 323.116 C 192.323 321.370,193.200 319.879,193.200 319.803 C 193.200 319.727,194.160 318.075,195.332 316.132 C 196.505 314.189,197.953 311.745,198.549 310.700 C 199.146 309.655,199.799 308.800,200.001 308.800 C 200.302 308.800,207.078 319.803,210.101 325.200 C 210.532 325.970,211.027 326.780,211.200 327.000 C 211.566 327.465,213.070 330.091,213.912 331.734 C 216.719 337.214,229.200 332.881,229.200 326.427 C 229.200 325.120,228.214 323.385,222.592 314.800 C 220.647 311.830,218.307 308.230,217.391 306.800 C 216.476 305.370,214.708 302.619,213.463 300.686 C 212.218 298.754,211.200 297.007,211.200 296.804 C 211.200 296.253,215.096 289.843,223.600 276.400 C 227.966 269.498,228.400 268.637,228.400 266.887 C 228.400 262.962,223.282 259.222,217.889 259.206 C 216.037 259.200,212.400 261.812,212.400 263.149 C 212.400 263.352,211.663 264.731,210.763 266.212 C 209.193 268.797,208.618 269.787,206.758 273.100 C 203.132 279.563,200.246 284.400,200.017 284.400 C 199.866 284.400,198.856 282.846,197.772 280.947 C 195.349 276.704,194.955 276.018,193.214 273.000 C 192.453 271.680,191.626 270.240,191.378 269.800 C 191.129 269.360,190.509 268.280,190.001 267.400 C 189.493 266.520,188.700 265.084,188.238 264.209 C 185.767 259.517,182.573 258.222,177.880 260.006 M184.299 260.209 C 185.665 260.891,186.035 261.397,189.121 266.800 C 190.314 268.890,191.630 271.185,192.045 271.900 C 192.460 272.615,193.160 273.830,193.600 274.600 C 194.040 275.370,194.760 276.630,195.200 277.400 C 195.640 278.170,196.335 279.385,196.743 280.100 C 197.152 280.815,197.941 282.203,198.495 283.184 C 200.082 285.990,200.002 286.058,204.493 278.000 C 205.045 277.010,206.443 274.580,207.600 272.600 C 208.757 270.620,210.153 268.190,210.702 267.200 C 214.278 260.757,215.409 259.600,218.133 259.600 C 221.401 259.600,226.051 262.133,227.500 264.702 C 228.690 266.813,228.182 268.464,224.679 273.865 C 222.133 277.791,214.041 290.746,213.101 292.400 C 212.664 293.170,211.967 294.278,211.553 294.862 C 210.341 296.570,210.597 297.279,214.673 303.494 C 216.803 306.742,219.298 310.570,220.219 312.000 C 221.139 313.430,223.112 316.490,224.604 318.800 C 229.808 326.857,229.891 327.383,226.496 330.658 C 223.519 333.528,217.621 334.823,215.645 333.039 C 214.948 332.410,210.182 324.758,209.641 323.400 C 209.553 323.180,208.968 322.248,208.341 321.328 C 207.713 320.408,207.200 319.573,207.200 319.472 C 207.200 319.191,200.798 308.655,200.350 308.200 C 199.918 307.761,198.974 308.823,197.683 311.200 C 196.169 313.989,195.091 315.821,194.353 316.862 C 193.939 317.446,193.600 318.012,193.600 318.121 C 193.600 318.229,192.863 319.531,191.963 321.012 C 191.063 322.494,190.009 324.268,189.621 324.953 C 184.572 333.872,184.180 334.253,180.484 333.831 C 176.606 333.388,172.795 330.885,171.597 327.994 C 171.067 326.712,171.681 323.600,172.464 323.600 C 172.649 323.600,172.800 323.431,172.800 323.225 C 172.800 323.019,175.069 319.374,177.843 315.125 C 190.541 295.674,189.896 296.905,188.447 294.862 C 188.033 294.278,187.335 293.170,186.897 292.400 C 185.875 290.604,179.711 280.724,175.678 274.418 C 171.782 268.326,171.318 266.629,172.892 264.228 C 173.876 262.727,177.139 260.403,178.276 260.394 C 178.674 260.391,179.270 260.213,179.600 260.000 C 180.505 259.415,182.923 259.523,184.299 260.209 M118.692 260.799 C 116.559 262.477,115.738 267.920,117.152 271.000 C 118.587 274.125,118.738 274.175,127.341 274.400 L 135.000 274.600 135.200 302.639 C 135.372 326.770,135.484 330.778,136.000 331.402 C 136.840 332.417,139.570 333.589,141.000 333.548 C 141.990 333.520,141.885 333.444,140.401 333.114 C 138.927 332.786,137.340 331.986,136.000 330.896 C 135.890 330.807,135.710 318.014,135.600 302.467 L 135.400 274.200 127.800 274.000 C 122.749 273.867,119.904 273.630,119.316 273.295 C 116.367 271.608,116.127 264.366,118.920 261.300 L 119.739 260.400 143.215 260.400 L 166.691 260.400 167.700 261.409 C 170.192 263.901,170.180 270.511,167.678 273.013 C 166.700 273.990,166.620 274.000,159.378 274.000 C 155.356 274.000,151.781 274.109,151.433 274.243 C 150.863 274.461,150.810 277.235,150.897 302.143 L 150.994 329.800 151.100 302.422 C 151.182 281.132,151.316 274.974,151.703 274.728 C 151.976 274.554,155.559 274.409,159.664 274.406 L 167.129 274.400 168.154 273.182 C 170.817 270.017,170.443 262.676,167.513 260.624 C 165.953 259.532,120.094 259.696,118.692 260.799 M232.474 260.817 C 229.498 263.589,229.789 271.659,232.939 273.723 C 233.815 274.297,235.095 274.400,241.386 274.400 L 248.800 274.400 248.800 301.840 C 248.800 333.078,248.617 331.306,252.002 332.763 C 253.072 333.223,254.455 333.582,255.074 333.560 C 256.022 333.526,255.947 333.461,254.600 333.151 C 248.803 331.816,249.200 334.133,249.200 301.620 L 249.200 274.000 241.689 274.000 C 235.389 274.000,234.028 273.895,233.246 273.347 C 230.305 271.287,229.965 263.877,232.694 261.348 L 233.724 260.394 257.118 260.497 L 280.512 260.600 281.733 262.108 C 282.870 263.514,282.954 263.840,282.961 266.908 C 282.977 273.381,282.022 274.000,272.020 274.000 L 264.800 274.000 264.800 301.140 C 264.800 328.285,264.713 330.195,263.427 331.400 C 262.716 332.066,261.089 332.776,259.400 333.158 C 257.966 333.482,257.924 333.523,259.000 333.551 C 260.706 333.596,263.410 332.262,264.269 330.951 C 264.956 329.902,265.007 328.186,265.111 302.118 L 265.221 274.400 272.732 274.400 L 280.243 274.400 281.468 273.100 C 284.451 269.934,284.272 262.837,281.154 260.653 C 279.534 259.518,233.702 259.673,232.474 260.817 M150.023 330.757 C 149.470 331.790,148.352 332.404,145.800 333.074 C 143.832 333.590,143.827 333.596,145.443 333.445 C 148.134 333.193,151.553 331.019,150.660 330.127 C 150.553 330.019,150.266 330.303,150.023 330.757 M137.500 356.300 C 171.875 356.356,228.125 356.356,262.500 356.300 C 296.875 356.244,268.750 356.197,200.000 356.197 C 131.250 356.197,103.125 356.244,137.500 356.300 " stroke="none" fill="#e4948c" fill-rule="evenodd"></path><path id="path4" d="M249.797 56.700 L 249.800 93.800 287.400 93.803 L 325.000 93.806 287.502 93.701 L 250.004 93.596 249.899 56.598 L 249.794 19.600 249.797 56.700 M155.500 149.900 C 179.975 149.957,220.025 149.957,244.500 149.900 C 268.975 149.843,248.950 149.796,200.000 149.796 C 151.050 149.796,131.025 149.843,155.500 149.900 M109.400 150.467 C 108.347 151.049,106.800 152.461,106.800 152.839 C 106.800 153.004,107.302 152.657,107.915 152.069 C 108.529 151.481,109.384 150.786,109.815 150.524 C 110.808 149.921,110.470 149.875,109.400 150.467 M289.803 150.405 C 289.937 150.622,290.291 150.800,290.588 150.800 C 290.886 150.800,291.595 151.354,292.164 152.031 C 292.734 152.708,293.200 153.101,293.200 152.906 C 293.200 152.417,291.163 150.575,290.279 150.263 C 289.851 150.112,289.658 150.170,289.803 150.405 M106.267 153.867 C 104.843 155.290,106.606 160.163,109.169 161.890 L 110.518 162.800 199.905 162.800 C 300.817 162.800,290.920 163.120,293.100 159.787 C 293.996 158.417,294.413 154.304,293.700 153.861 C 293.535 153.758,293.452 154.692,293.516 155.937 C 293.652 158.586,292.785 160.333,290.704 161.602 C 288.648 162.855,111.352 162.855,109.296 161.602 C 107.206 160.327,106.348 158.589,106.484 155.899 C 106.548 154.634,106.585 153.599,106.567 153.599 C 106.548 153.600,106.413 153.720,106.267 153.867 M109.169 188.110 C 106.617 189.829,104.715 195.153,106.300 196.139 C 106.465 196.242,106.548 195.308,106.484 194.063 C 106.348 191.414,107.215 189.667,109.296 188.398 C 111.352 187.145,288.648 187.145,290.704 188.398 C 292.785 189.667,293.652 191.414,293.516 194.063 C 293.452 195.308,293.535 196.242,293.700 196.139 C 295.285 195.153,293.383 189.829,290.831 188.110 L 289.482 187.200 200.000 187.200 L 110.518 187.200 109.169 188.110 M106.800 197.094 C 106.800 197.583,108.837 199.425,109.721 199.737 C 110.149 199.888,110.342 199.830,110.197 199.595 C 110.063 199.378,109.709 199.200,109.412 199.200 C 109.114 199.200,108.405 198.646,107.836 197.969 C 107.266 197.292,106.800 196.899,106.800 197.094 M292.070 198.053 C 291.558 198.684,290.893 199.200,290.593 199.200 C 290.293 199.200,289.946 199.363,289.823 199.563 C 289.700 199.762,289.941 199.836,290.359 199.727 C 291.153 199.519,293.468 197.321,293.171 197.057 C 293.077 196.974,292.581 197.422,292.070 198.053 M155.300 200.300 C 179.885 200.357,220.115 200.357,244.700 200.300 C 269.285 200.243,249.170 200.197,200.000 200.197 C 150.830 200.197,130.715 200.243,155.300 200.300 M137.300 231.100 C 171.785 231.156,228.215 231.156,262.700 231.100 C 297.185 231.044,268.970 230.997,200.000 230.997 C 131.030 230.997,102.815 231.044,137.300 231.100 M179.636 259.969 C 179.274 260.198,179.943 260.306,181.502 260.270 C 182.839 260.239,183.847 260.076,183.743 259.907 C 183.481 259.484,180.328 259.531,179.636 259.969 M216.257 259.907 C 216.153 260.076,217.161 260.239,218.498 260.270 C 220.057 260.306,220.726 260.198,220.364 259.969 C 219.672 259.531,216.519 259.484,216.257 259.907 M118.920 261.300 C 116.870 263.550,116.292 268.323,117.711 271.283 C 118.436 272.796,119.200 273.587,119.200 272.824 C 119.200 272.591,119.065 272.399,118.900 272.397 C 116.638 272.373,117.297 262.960,119.689 261.119 C 120.190 260.733,120.406 260.414,120.170 260.409 C 119.933 260.404,119.371 260.805,118.920 261.300 M166.874 261.227 C 167.464 261.668,168.157 262.664,168.414 263.441 C 168.939 265.033,169.378 265.050,168.980 263.462 C 168.697 262.334,166.956 260.392,166.245 260.413 C 166.000 260.420,166.283 260.786,166.874 261.227 M184.814 260.517 C 184.806 260.691,185.136 261.194,185.546 261.634 C 185.957 262.075,186.710 263.247,187.221 264.240 C 187.731 265.233,188.321 266.151,188.531 266.281 C 189.084 266.623,186.940 262.784,185.797 261.385 C 185.264 260.733,184.822 260.343,184.814 260.517 M214.109 261.477 C 212.875 263.258,212.725 263.600,213.176 263.600 C 213.409 263.600,213.600 263.364,213.600 263.075 C 213.600 262.787,213.978 262.145,214.440 261.649 C 214.902 261.153,215.192 260.659,215.084 260.551 C 214.976 260.442,214.537 260.859,214.109 261.477 M232.618 261.418 C 232.009 261.983,231.602 262.535,231.713 262.646 C 231.824 262.758,232.395 262.368,232.982 261.782 C 233.568 261.195,233.976 260.642,233.887 260.554 C 233.798 260.465,233.227 260.854,232.618 261.418 M174.954 262.091 C 173.790 262.989,172.779 264.113,172.967 264.300 C 173.023 264.356,173.825 263.681,174.751 262.801 C 176.623 261.020,176.703 260.741,174.954 262.091 M225.200 262.703 C 226.190 263.592,227.074 264.249,227.165 264.162 C 227.368 263.967,225.287 262.112,224.200 261.521 C 223.760 261.281,224.210 261.813,225.200 262.703 M281.840 262.800 C 283.146 265.458,282.646 271.310,281.012 272.478 C 280.798 272.631,280.739 272.872,280.880 273.013 C 282.746 274.879,283.772 264.669,281.947 262.392 L 281.152 261.400 281.840 262.800 M231.022 264.622 C 230.872 265.425,230.838 266.172,230.948 266.282 C 231.058 266.392,231.272 265.825,231.422 265.022 C 231.573 264.219,231.606 263.473,231.496 263.363 C 231.386 263.253,231.173 263.819,231.022 264.622 M211.819 265.163 C 211.467 265.843,211.319 266.399,211.490 266.397 C 211.855 266.393,212.869 264.335,212.625 264.092 C 212.534 264.000,212.171 264.482,211.819 265.163 M172.267 265.067 C 171.544 265.789,172.542 270.400,173.421 270.400 C 173.531 270.400,173.326 269.831,172.966 269.135 C 172.542 268.315,172.385 267.330,172.518 266.335 C 172.732 264.738,172.709 264.624,172.267 265.067 M169.324 267.400 C 169.326 268.720,169.401 269.212,169.490 268.493 C 169.579 267.774,169.577 266.694,169.486 266.093 C 169.395 265.492,169.322 266.080,169.324 267.400 M230.836 268.600 C 230.807 269.851,232.216 272.626,233.246 273.347 C 234.028 273.895,235.389 274.000,241.686 274.000 L 249.195 274.000 249.301 301.700 L 249.408 329.400 249.404 301.600 L 249.400 273.800 241.533 273.600 C 232.873 273.380,232.351 273.210,231.761 270.426 C 231.641 269.862,231.388 269.040,231.199 268.600 L 230.854 267.800 230.836 268.600 M226.222 270.622 C 225.845 271.198,225.616 271.749,225.714 271.847 C 225.812 271.945,226.200 271.554,226.578 270.978 C 226.955 270.402,227.184 269.851,227.086 269.753 C 226.988 269.655,226.600 270.046,226.222 270.622 M168.291 271.491 C 167.423 273.405,167.686 273.669,168.582 271.782 C 168.959 270.986,169.198 270.265,169.112 270.179 C 169.026 270.093,168.657 270.684,168.291 271.491 M173.600 271.009 C 173.600 271.416,175.720 274.413,175.888 274.245 C 175.983 274.151,175.573 273.337,174.977 272.437 C 173.956 270.894,173.600 270.525,173.600 271.009 M206.986 273.700 L 206.352 275.000 207.167 274.000 C 207.952 273.037,208.208 272.400,207.810 272.400 C 207.706 272.400,207.335 272.985,206.986 273.700 M224.469 273.239 C 223.710 274.454,224.166 274.616,224.955 273.412 C 225.320 272.856,225.478 272.400,225.305 272.400 C 225.133 272.400,224.757 272.778,224.469 273.239 M119.865 273.600 C 119.975 273.710,123.515 273.890,127.732 274.000 L 135.400 274.200 135.600 302.467 C 135.710 318.014,135.890 330.807,136.000 330.896 C 137.375 332.015,138.977 332.780,140.720 333.150 C 144.017 333.850,144.527 333.622,141.400 332.846 C 135.488 331.378,136.000 334.293,136.000 302.075 C 136.000 280.500,135.891 274.408,135.500 274.086 C 135.008 273.681,119.464 273.197,119.865 273.600 M272.029 273.500 C 267.731 273.574,264.856 273.788,264.529 274.059 C 264.100 274.415,264.000 279.725,264.000 302.288 L 264.000 330.079 262.758 331.240 C 262.074 331.878,261.129 332.413,260.658 332.428 C 260.186 332.444,259.440 332.626,259.000 332.832 C 258.413 333.108,258.613 333.147,259.749 332.977 C 261.259 332.751,262.515 332.210,263.411 331.400 C 264.714 330.222,264.800 328.348,264.800 301.140 L 264.800 274.000 272.100 273.994 C 276.122 273.991,279.669 273.814,280.000 273.600 C 280.490 273.283,280.453 273.228,279.800 273.296 C 279.360 273.342,275.863 273.434,272.029 273.500 M150.667 274.267 C 150.520 274.413,150.394 286.968,150.387 302.167 C 150.378 323.275,150.259 329.943,149.887 330.406 C 149.076 331.413,147.489 332.262,145.800 332.591 C 144.920 332.762,144.412 332.980,144.670 333.075 C 145.648 333.432,148.586 332.286,149.672 331.123 L 150.800 329.915 150.800 302.191 C 150.800 280.386,150.907 274.424,151.300 274.265 C 151.579 274.152,151.609 274.049,151.367 274.032 C 151.128 274.014,150.813 274.120,150.667 274.267 M205.883 275.473 C 205.775 275.653,205.192 276.700,204.588 277.800 C 199.734 286.642,199.995 286.580,196.555 279.694 C 196.196 278.975,195.712 278.269,195.479 278.125 C 195.113 277.899,196.017 279.646,198.757 284.464 C 199.479 285.734,200.689 285.960,201.089 284.900 C 201.234 284.515,202.491 282.237,203.882 279.839 C 205.273 277.440,206.336 275.403,206.246 275.312 C 206.155 275.221,205.992 275.294,205.883 275.473 M177.386 277.100 C 177.735 277.815,178.106 278.400,178.210 278.400 C 178.608 278.400,178.352 277.763,177.567 276.800 L 176.752 275.800 177.386 277.100 M222.214 277.035 C 221.841 277.604,221.627 278.161,221.739 278.272 C 221.850 278.383,222.229 277.918,222.581 277.237 C 223.359 275.733,223.144 275.615,222.214 277.035 M179.045 279.812 C 179.410 280.369,179.786 280.747,179.882 280.651 C 180.119 280.414,179.084 278.800,178.695 278.800 C 178.522 278.800,178.680 279.256,179.045 279.812 M220.336 280.000 C 220.044 280.660,219.669 281.200,219.502 281.200 C 219.336 281.200,219.200 281.362,219.200 281.560 C 219.200 281.758,218.120 283.603,216.800 285.660 C 214.098 289.871,212.695 292.376,213.809 291.000 C 214.165 290.560,215.407 288.670,216.569 286.800 C 217.731 284.930,219.344 282.365,220.153 281.100 C 220.962 279.835,221.454 278.800,221.246 278.800 C 221.037 278.800,220.628 279.340,220.336 280.000 M181.635 283.900 C 182.130 284.725,183.495 286.891,184.668 288.714 C 185.840 290.536,186.800 292.124,186.800 292.242 C 186.800 292.359,187.340 293.241,188.000 294.200 C 189.879 296.932,190.257 296.004,182.217 308.400 C 179.119 313.176,178.881 313.607,179.941 312.517 C 180.414 312.031,180.800 311.545,180.800 311.437 C 180.800 311.329,182.679 308.385,184.975 304.894 C 190.103 297.099,190.331 296.639,189.520 295.702 C 189.186 295.316,188.126 293.650,187.164 292.000 C 186.202 290.350,185.277 288.940,185.108 288.867 C 184.938 288.793,184.800 288.566,184.800 288.362 C 184.800 287.945,181.181 282.400,180.909 282.400 C 180.813 282.400,181.140 283.075,181.635 283.900 M211.273 294.600 C 211.022 295.150,210.883 295.600,210.963 295.600 C 211.043 295.600,211.403 295.150,211.763 294.600 C 212.124 294.050,212.263 293.600,212.073 293.600 C 211.884 293.600,211.523 294.050,211.273 294.600 M210.000 296.381 C 210.000 297.120,210.934 298.800,211.344 298.800 C 211.596 298.800,211.571 298.611,211.280 298.320 C 211.016 298.056,210.800 297.426,210.800 296.920 C 210.800 296.414,210.620 296.000,210.400 296.000 C 210.180 296.000,210.000 296.172,210.000 296.381 M212.400 300.602 C 212.400 300.713,214.290 303.691,216.600 307.219 C 218.910 310.747,220.800 313.724,220.800 313.834 C 220.800 313.943,221.160 314.420,221.600 314.892 C 222.040 315.364,222.400 315.987,222.400 316.275 C 222.400 316.564,222.580 316.800,222.800 316.800 C 223.020 316.800,223.200 317.070,223.200 317.400 C 223.200 317.730,223.391 318.000,223.624 318.000 C 224.114 318.000,224.196 318.149,220.996 313.200 C 212.588 300.194,212.400 299.919,212.400 300.602 M198.440 309.300 C 197.978 310.235,197.862 310.640,198.182 310.200 C 198.503 309.760,199.043 309.040,199.383 308.600 L 200.000 307.800 200.626 308.600 C 200.971 309.040,202.512 311.515,204.051 314.100 C 205.591 316.685,206.946 318.800,207.063 318.800 C 207.277 318.800,206.882 318.085,202.916 311.300 C 200.407 307.007,199.725 306.702,198.440 309.300 M196.586 312.500 L 195.952 313.800 196.767 312.800 C 197.552 311.837,197.808 311.200,197.410 311.200 C 197.306 311.200,196.935 311.785,196.586 312.500 M195.022 315.022 C 194.645 315.598,194.416 316.149,194.514 316.247 C 194.612 316.345,195.000 315.954,195.378 315.378 C 195.755 314.802,195.984 314.251,195.886 314.153 C 195.788 314.055,195.400 314.446,195.022 315.022 M177.445 315.788 C 177.080 316.344,176.922 316.800,177.095 316.800 C 177.484 316.800,178.519 315.186,178.282 314.949 C 178.186 314.853,177.810 315.231,177.445 315.788 M175.845 318.188 C 175.480 318.744,175.322 319.200,175.495 319.200 C 175.884 319.200,176.919 317.586,176.682 317.349 C 176.586 317.253,176.210 317.631,175.845 318.188 M192.622 319.022 C 192.245 319.598,192.016 320.149,192.114 320.247 C 192.212 320.345,192.600 319.954,192.978 319.378 C 193.355 318.802,193.584 318.251,193.486 318.153 C 193.388 318.055,193.000 318.446,192.622 319.022 M207.218 319.400 C 207.218 319.620,207.570 320.250,208.000 320.800 C 208.430 321.350,208.782 321.620,208.782 321.400 C 208.782 321.180,208.430 320.550,208.000 320.000 C 207.570 319.450,207.218 319.180,207.218 319.400 M173.829 321.229 C 173.230 322.133,172.817 322.951,172.912 323.045 C 173.006 323.139,173.573 322.476,174.171 321.571 C 174.770 320.667,175.183 319.849,175.088 319.755 C 174.994 319.661,174.427 320.324,173.829 321.229 M190.069 323.239 C 189.310 324.454,189.766 324.616,190.555 323.412 C 190.920 322.856,191.078 322.400,190.905 322.400 C 190.733 322.400,190.357 322.778,190.069 323.239 M171.607 325.179 C 169.585 331.305,182.254 337.180,185.669 331.700 C 186.114 330.985,186.325 330.400,186.137 330.400 C 185.949 330.400,185.558 330.937,185.267 331.593 C 184.025 334.400,177.812 333.918,174.185 330.733 C 172.027 328.838,171.446 327.260,172.152 325.210 C 172.457 324.324,172.576 323.600,172.417 323.600 C 172.258 323.600,171.894 324.311,171.607 325.179 M228.133 326.600 C 228.133 327.571,228.283 328.272,228.467 328.159 C 228.650 328.045,228.800 327.344,228.800 326.600 C 228.800 325.856,228.650 325.155,228.467 325.041 C 228.283 324.928,228.133 325.629,228.133 326.600 M211.786 327.100 C 212.135 327.815,212.506 328.400,212.610 328.400 C 213.008 328.400,212.752 327.763,211.967 326.800 L 211.152 325.800 211.786 327.100 M187.014 328.635 C 186.641 329.204,186.427 329.761,186.539 329.872 C 186.650 329.983,187.029 329.518,187.381 328.837 C 188.159 327.333,187.944 327.215,187.014 328.635 M213.627 330.300 C 215.745 333.861,218.510 334.779,222.406 333.216 C 224.131 332.523,227.328 330.395,227.055 330.121 C 226.944 330.010,226.455 330.290,225.970 330.742 C 224.245 332.349,221.771 333.200,218.824 333.200 L 216.038 333.200 214.819 331.428 C 214.149 330.453,213.600 329.463,213.600 329.228 C 213.600 328.993,213.405 328.800,213.167 328.800 C 212.929 328.800,213.136 329.475,213.627 330.300 M249.976 330.670 C 250.481 331.717,252.349 332.706,254.340 332.980 L 255.800 333.182 254.400 332.755 C 252.567 332.196,250.730 331.206,250.078 330.425 C 249.634 329.893,249.619 329.930,249.976 330.670 " stroke="none" fill="#dcc3c1" fill-rule="evenodd"></path></g></svg>